<svg width="680" height="326" xmlns="http://www.w3.org/2000/svg" xmlns:xlink="http://www.w3.org/1999/xlink"><defs><path id="a" d="M0 0h679.93v245.541H0z"/><path id="c" d="M.038.004h52.436v97.184H.038z"/><path id="e" d="M.006 0h133.302v40.752H.006z"/><path id="g" d="M.009 0h133.376v40.828H.01z"/></defs><g style="mix-blend-mode:multiply" fill="none" fill-rule="evenodd"><g transform="translate(0 52.484)"><mask id="b" fill="#fff"><use xlink:href="#a"/></mask><path d="M549.058 210.44c-52.876 0-95.884-43.263-95.884-96.452 0-53.17 43.008-96.451 95.884-96.451 52.875 0 95.884 43.28 95.884 96.451 0 53.189-43.009 96.452-95.884 96.452m-296.246 0c-52.858 0-95.883-43.263-95.883-96.452 0-53.17 43.025-96.451 95.883-96.451 52.876 0 95.884 43.28 95.884 96.451 0 53.189-43.008 96.452-95.884 96.452M662.497 70.147c-2.946 0-5.596.93-8.037 2.227C637.933 30.023 597.017 0 549.058 0c-34.065 0-64.538 15.187-85.302 39.107-17.503-13.31-39.05-21.57-62.76-21.57-23.587 0-45.17 8.295-62.812 21.657C317.42 15.222 286.912 0 252.812 0 204.87 0 163.99 29.988 147.427 72.304c-2.406-1.263-5.02-2.157-7.932-2.157-9.623 0-17.433 7.839-17.433 17.536 0 .158.087.28.087.421l-95.971 59.239C1.126 161.898-7.434 194.008 7.036 219.208c14.47 25.2 46.39 33.81 71.442 19.256l-.035-.053c4.027-2.473 5.405-7.716 3.034-11.837-2.371-4.121-7.566-5.542-11.698-3.28l-.018-.017a.617.617 0 00-.156.07s-.018 0-.035.017c-16.597 9.488-37.883 3.718-47.437-12.924-9.588-16.695-3.835-38.265 12.762-47.91l96.511-59.572c2.458 1.315 5.125 2.262 8.09 2.262.156 0 .295-.088.452-.088-.226 2.929-.453 5.858-.453 8.856 0 62.957 50.731 113.989 113.317 113.989 62.586 0 113.317-51.032 113.317-113.989 0-22.43-6.537-43.298-17.66-60.94 4.202-3.244 8.595-6.26 13.302-8.68 11.855-5.963 25.104-9.295 39.225-9.295 14.121 0 27.37 3.332 39.225 9.295 4.69 2.42 9.066 5.384 13.25 8.575-11.175 17.642-17.73 38.563-17.73 61.045 0 62.957 50.731 113.989 113.317 113.989 62.586 0 113.317-51.032 113.317-113.989 0-2.998-.227-5.945-.453-8.89.209.017.383.122.575.122 9.64 0 17.434-7.839 17.434-17.537 0-9.697-7.793-17.536-17.434-17.536" fill="#E63E33" mask="url(#b)"/></g><path d="M227.315 176.126c-9.604 0-17.398 7.84-17.398 17.54s7.794 17.54 17.398 17.54c9.603 0 17.398-7.84 17.398-17.54s-7.795-17.54-17.398-17.54m296.051 0c-9.604 0-17.398 7.84-17.398 17.54s7.794 17.54 17.398 17.54c9.603 0 17.398-7.84 17.398-17.54s-7.795-17.54-17.398-17.54M71.12 228.068a6.457 6.457 0 00-9.17 0l-9.186 9.245-9.169-9.245c-2.526-2.547-6.643-2.547-9.186 0-2.526 2.547-2.526 6.698 0 9.245l9.186 9.262-9.186 9.245c-2.526 2.547-2.526 6.699 0 9.245 2.543 2.564 6.66 2.564 9.186 0l9.17-9.245 9.186 9.245a6.426 6.426 0 009.17 0c2.525-2.546 2.525-6.698 0-9.245l-9.17-9.245 9.17-9.262c2.525-2.547 2.525-6.698 0-9.245" fill="#E63E33"/><g transform="translate(401.58 228.458)"><mask id="d" fill="#fff"><use xlink:href="#c"/></mask><path d="M2.594 2.589c-3.408 3.445-3.408 9.047 0 12.493C18.516 31.18 34.997 47.843 34.997 61.856c0 11.84-12.584 18.554-12.654 18.59-4.317 2.19-6.065 7.492-3.915 11.856 1.538 3.093 4.614 4.895 7.83 4.895 1.31 0 2.64-.3 3.897-.937.91-.477 22.319-11.556 22.319-34.404 0-21.346-19.085-40.607-37.524-59.267a8.677 8.677 0 00-12.356 0" fill="#E63E33" mask="url(#d)"/></g><g transform="translate(178.712 .727)"><mask id="f" fill="#fff"><use xlink:href="#e"/></mask><path d="M13.055 39.572c.576-.35.977-.838 1.447-1.274l.122.14c4.584-3.559 9.378-6.786 14.555-9.507.33-.21.662-.419.836-.61 11.365-5.88 23.497-9.403 36.169-10.52 6.24-.54 12.567-.4 18.912.28 3.172.244 6.205.854 9.238 1.465.348-.017.523.122.714.105 2.842.645 5.892 1.413 8.594 2.407.348-.035.54.122.906.28 5.578 1.778 10.86 4.116 16.001 6.82l.07-.14c2.562 1.326 5.647 1.5 8.332-.035 4.166-2.424 5.595-7.762 3.19-11.931-.785-1.344-1.935-2.303-3.208-3.036l.07-.14c-6.432-3.453-13.16-6.366-20.167-8.564C94.979.933 80.11-.916 64.65.427a112.735 112.735 0 00-42.635 12.508C15.478 16.3 9.36 20.33 3.625 24.849l.123.14C.105 27.57-1.115 32.455 1.15 36.379c2.406 4.187 7.74 5.617 11.905 3.193" fill="#E63E33" mask="url(#f)"/></g><g transform="translate(491.137 .152)"><mask id="h" fill="#fff"><use xlink:href="#g"/></mask><path d="M4.369 29.035c2.668 1.556 5.755 1.363 8.32.035l.069.157c5.145-2.727 10.43-5.051 16.01-6.852.35-.157.716-.28.907-.437 12.244-3.845 24.801-5.209 37.48-4.107 6.244.576 12.436 1.8 18.592 3.565 3.087.804 5.965 1.94 8.843 3.06.349.034.506.227.68.244 2.703 1.101 5.564 2.412 8.058 3.863.349.035.505.21.837.42 5.197 2.726 9.993 5.977 14.58 9.526l.122-.158c.471.455.872.962 1.465 1.294 4.169 2.43 9.506.996 11.912-3.181 2.268-3.95 1.03-8.845-2.598-11.432l.087-.122c-5.72-4.527-11.86-8.583-18.383-11.956A112.675 112.675 0 0068.673.42c-15.47-1.346-30.33.525-44.195 4.912-7.029 2.202-13.76 5.121-20.179 8.582l.07.14c-1.256.734-2.407 1.678-3.192 3.024A8.774 8.774 0 004.37 29.035" fill="#E63E33" mask="url(#h)"/></g><path d="M-23 0h794v327H-23z"/></g></svg>