<svg version="1.1" id="glasses" xmlns="http://www.w3.org/2000/svg" x="0" y="0" viewBox="0 0 400 400" xml:space="preserve"><style>.st0{fill:none}.st1{fill:#120e0b}</style><path class="st0" d="M8 8h384v384H8z"/><path class="st0" d="M8 8h384v384H8z"/><path class="st0" d="M8 8h384v384H8z"/><path class="st1" d="M123.7 149.3c.3-.1.4-.4.7-.6l.1.1c2.1-1.6 4.3-3.1 6.7-4.4.1-.1.3-.2.4-.3 5.2-2.7 10.8-4.3 16.6-4.8 2.9-.2 5.8-.2 8.7.1 1.5.1 2.9.4 4.2.7.2 0 .2.1.3.1 1.3.3 2.7.6 3.9 1.1.2 0 .2.1.4.1 2.6.8 5 1.9 7.3 3.1v-.1c1.2.6 2.6.7 3.8 0 1.9-1.1 2.6-3.6 1.5-5.5-.4-.6-.9-1.1-1.5-1.4v-.1c-2.9-1.6-6-2.9-9.3-3.9-6.4-2-13.2-2.9-20.3-2.2-7.1.6-13.7 2.6-19.6 5.7-3 1.6-5.8 3.4-8.4 5.5l.1.1c-1.7 1.2-2.2 3.4-1.2 5.2 1.2 2 3.7 2.6 5.6 1.5z"/><path class="st0" d="M8 8h384v384H8z"/><path class="st1" d="M262.9 144.4c1.2.7 2.6.6 3.8 0v.1c2.4-1.2 4.8-2.3 7.3-3.1.2-.1.3-.1.4-.2 5.6-1.8 11.4-2.4 17.2-1.9 2.9.2 5.7.8 8.5 1.6 1.4.4 2.7.9 4 1.4.2 0 .2.1.3.1 1.2.5 2.5 1.1 3.7 1.8.2 0 .2.1.4.2 2.4 1.2 4.6 2.7 6.7 4.4l.1-.1c.2.2.4.4.7.6 1.9 1.1 4.4.4 5.5-1.5 1-1.8.5-4.1-1.2-5.2v-.1c-2.6-2.1-5.4-3.9-8.4-5.5-5.9-3.1-12.5-5.1-19.6-5.7-7.1-.6-13.9.2-20.3 2.2-3.2 1-6.3 2.3-9.3 3.9v.1c-.6.3-1.1.8-1.5 1.4-.8 2-.2 4.5 1.7 5.5z"/><path class="st0" d="M8 8h384v384H8z"/><path class="st1" d="M68.4 234.7c-1.2-1.2-3.1-1.2-4.2 0l-4.2 4.2-4.2-4.2c-1.2-1.2-3.1-1.2-4.2 0s-1.2 3.1 0 4.2l4.2 4.2-4.2 4.2c-1.2 1.2-1.2 3.1 0 4.2s3.1 1.2 4.2 0l4.2-4.2 4.2 4.2c1.2 1.2 3.1 1.2 4.2 0s1.2-3.1 0-4.2l-4.2-4.2 4.2-4.2c1.2-1.1 1.2-3 0-4.2z"/><path class="st0" d="M8 8h384v384H8z"/><path class="st1" d="M221.1 236.3c-1.6 1.6-1.6 4.1 0 5.7 7.3 7.3 14.8 14.8 14.8 21.2 0 5.4-5.8 8.4-5.8 8.4-2 1-2.8 3.4-1.8 5.4.7 1.4 2.1 2.2 3.6 2.2.6 0 1.2-.1 1.8-.4.4-.2 10.2-5.2 10.2-15.6 0-9.7-8.7-18.4-17.2-26.8-1.5-1.6-4.1-1.6-5.6-.1z"/><path class="st0" d="M8 8h384v384H8z"/><path class="st1" d="M339.9 187.2c-1.4 0-2.6.4-3.7 1-7.6-19.3-26.4-33-48.4-33-15.6 0-29.6 6.9-39.1 17.8-8-6.1-17.9-9.8-28.8-9.8-10.8 0-20.7 3.8-28.8 9.9-9.5-10.9-23.5-17.9-39.2-17.9-22 0-40.8 13.7-48.4 33-1.1-.6-2.3-1-3.6-1-4.4 0-8 3.6-8 8v.2l-44 27c-11.5 6.6-15.4 21.3-8.8 32.8s21.3 15.4 32.8 8.8c1.8-1.1 2.5-3.5 1.4-5.4-1.1-1.9-3.5-2.5-5.4-1.5h-.1c-7.6 4.3-17.4 1.7-21.8-5.9-4.4-7.6-1.8-17.5 5.9-21.9l44.3-27.2c1.1.6 2.3 1 3.7 1h.2c-.1 1.3-.2 2.7-.2 4 0 28.7 23.3 52 52 52s52-23.3 52-52c0-10.2-3-19.8-8.1-27.8 1.9-1.5 3.9-2.9 6.1-4 5.4-2.7 11.5-4.2 18-4.2s12.6 1.5 18 4.2c2.1 1.1 4.2 2.4 6.1 3.9-5.1 8.1-8.1 17.6-8.1 27.9 0 28.7 23.3 52 52 52s52-23.3 52-52c0-1.4-.1-2.7-.2-4.1.1 0 .2.1.3.1 4.4 0 8-3.6 8-8-.1-4.3-3.7-7.9-8.1-7.9zm-188 64c-24.3 0-44-19.7-44-44s19.7-44 44-44 44 19.7 44 44-19.8 44-44 44zm135.9 0c-24.3 0-44-19.7-44-44s19.7-44 44-44 44 19.7 44 44-19.7 44-44 44z"/></svg>