<svg xmlns="http://www.w3.org/2000/svg" viewBox="0 0 620.48 148"><defs><style>.cls-1{fill:#120e0b}</style></defs><g id="Calque_2" data-name="Calque 2"><g id="a"><path class="cls-1" d="M304 56a7.72 7.72 0 00-3.68 1 51.91 51.91 0 00-87.52-15.17 47 47 0 00-57.62 0A51.91 51.91 0 0067.65 57 7.84 7.84 0 0064 56a8 8 0 00-8 8v.19l-44 27a24 24 0 0024 41.57 4 4 0 00-4-6.89h-.07A16 16 0 0116 98.15L60.3 71a7.84 7.84 0 003.7 1h.21c-.1 1.34-.21 2.68-.21 4a52 52 0 1095.9-27.79 39.82 39.82 0 0142.1-4 41.14 41.14 0 016.08 3.91A52 52 0 10304 76c0-1.37-.1-2.71-.21-4h.26a8 8 0 000-16zm-188 64a44 44 0 1144-44 44.05 44.05 0 01-44 44zm136 0a44 44 0 1144-44 44 44 0 01-44 44z"/><circle class="cls-1" cx="104.01" cy="88" r="8"/><circle class="cls-1" cx="240.01" cy="88" r="8"/><path class="cls-1" d="M32.5 103.52a3 3 0 00-4.24 0L24 107.76l-4.24-4.24a3 3 0 00-4.24 4.24l4.25 4.24-4.24 4.24a3 3 0 104.24 4.25l4.23-4.25 4.25 4.25a3 3 0 104.24-4.25L28.26 112l4.24-4.24a3 3 0 000-4.24zm152.69 1.65a4 4 0 000 5.66C192.48 118.12 200 125.66 200 132c0 5.37-5.75 8.41-5.78 8.42A4 4 0 00196 148a3.91 3.91 0 001.78-.42c.42-.21 10.21-5.23 10.21-15.58 0-9.65-8.73-18.38-17.17-26.83a4 4 0 00-5.63 0zM87.8 18.15a3.67 3.67 0 00.66-.59l.05.07a45.72 45.72 0 016.69-4.36 2.2 2.2 0 00.38-.28 44.29 44.29 0 0116.6-4.82 45.82 45.82 0 018.68.12 36.39 36.39 0 014.24.71h.32a30.73 30.73 0 014 1.1c.16 0 .25.06.42.12a46.67 46.67 0 017.34 3.13v-.06a3.93 3.93 0 003.82 0 4 4 0 001.46-5.46 3.86 3.86 0 00-1.46-1.4v-.06a52.38 52.38 0 00-57.54 5v.06a4 4 0 004.28 6.69zm139.25-4.86a3.91 3.91 0 003.81 0v.06a46.67 46.67 0 017.34-3.13 1.65 1.65 0 00.42-.2 44.17 44.17 0 0117.19-1.87 45 45 0 018.53 1.63 33.92 33.92 0 014.05 1.4c.16 0 .24.1.32.11a30.45 30.45 0 013.69 1.76.86.86 0 01.39.2 45.1 45.1 0 016.68 4.36l.06-.07a3.78 3.78 0 00.67.59 4 4 0 004.27-6.69l.05-.06a52.32 52.32 0 00-8.44-5.47 52.25 52.25 0 00-49.1.44v.06a3.77 3.77 0 00-1.46 1.4 4 4 0 001.53 5.48zm152.61 20.59c-6.37 0-11.24 5-11.24 11.86s4.87 11.86 11.24 11.86S391 52.55 391 45.74s-5-11.86-11.34-11.86zm-3.1-10.8c6.64 0 11.16 2.39 14.43 6.29v-5.49h12.39v43.81H391V62.2c-3.27 3.8-7.79 6.28-14.43 6.28-11.68 0-20.44-9.91-20.44-22.74s8.75-22.66 20.43-22.66zm58.97 10.8c-6.38 0-11.16 5-11.16 11.86s4.78 11.86 11.16 11.86 11.32-5.05 11.32-11.86-4.95-11.86-11.32-11.86zm23.71-32.57v66.38h-12.39v-5.58c-3.09 3.81-7.78 6.37-14.42 6.37-11.68 0-20.45-9.91-20.45-22.74s8.77-22.66 20.45-22.66c6.64 0 11.33 2.57 14.42 6.37V1.31zm10.43 66.24h12.39V47.46c0-8.49 5.13-12.92 10.44-12.92h1.29l-.12-11.33c-4.89.68-8.82 2.57-11.61 6.16v-5.63h-12.39zm38.24-64.11a6.93 6.93 0 016.9 6.72 6.95 6.95 0 11-13.89 0 7 7 0 016.99-6.72zm6 20.44v43.81H501.8V23.88zm31.67 8.23c-5.6 0-9.9 3.37-11.45 8.92l-.06.19h22.4c-1.6-6.01-5.4-9.11-10.89-9.11zm-.09-9.65c12.75 0 22 8.5 22.13 23.1 0 1 0 2.07-.07 3.24v.39H533.9a11.29 11.29 0 0011.59 9.56 14.23 14.23 0 0011-4.88l.13-.17 7.54 6.3c-4.07 5.75-11.5 8.85-18.58 8.85a22.78 22.78 0 01-23.19-23c0-13.3 9.83-23.39 23.1-23.39zm58.38.62c8 0 16.61 6.81 16.61 20.88v23.73h-12.2v-23c0-7.39-2.93-10-9.31-10-5.68 0-10.44 4.68-10.44 12.92v20.08h-12.39V23.88h12.39v5.67c3.01-3.55 5.59-6.47 15.34-6.47zM375.22 140.23H392l17.44-43.81h-13l-12.8 31.42-12.85-31.42h-13.1zM436 106.42c-6.37 0-11.24 5-11.24 11.86s4.87 11.86 11.24 11.86 11.33-5 11.33-11.86-5-11.86-11.33-11.86zm-3.1-10.79c6.64 0 11.15 2.39 14.43 6.28v-5.49h12.39v43.81h-12.43v-5.49c-3.29 3.81-7.79 6.26-14.43 6.26-11.68 0-20.44-9.92-20.44-22.75s8.76-22.62 20.44-22.62zm37.39 44.46h12.39V120c0-8.24 4.76-12.93 10.44-12.93 6.37 0 9.3 2.67 9.3 10.06v23h12.2v-23.77c0-14.07-8.62-20.87-16.6-20.87-9.76 0-12.33 2.92-15.34 6.46v-5.67h-12.39zm76.71 1.38a23.48 23.48 0 0018.93-9.47l-9.93-7.26a10.32 10.32 0 01-9 5.13c-6.73-.08-11.51-4.86-11.51-11.5s4.78-11.68 11.51-11.59a10.78 10.78 0 018.93 5l10.07-7.3a23.92 23.92 0 00-19-9.56 23.28 23.28 0 100 46.55zm49.76-35.05c-6.37 0-11.24 5-11.24 11.86s4.87 11.86 11.24 11.86 11.33-5 11.33-11.86-4.96-11.86-11.33-11.86zm-3.1-10.79c6.64 0 11.16 2.39 14.43 6.28v-5.49h12.39v43.81h-12.39v-5.49c-3.27 3.81-7.79 6.29-14.43 6.29-11.68 0-20.44-9.92-20.44-22.75s8.78-22.65 20.44-22.65z"/></g></g></svg>