<svg xmlns="http://www.w3.org/2000/svg" viewBox="0 0 335 442"><path d="M334.5.5v28.2c-5.8-.4-11.7-.5-17.6-.5-83.2 0-157.6 36.7-208.3 94.6-31.3-23.6-68-40.6-108.1-48V.5h334z" fill-rule="evenodd" clip-rule="evenodd" fill="#3c3bcf"/><path d="M40.2 303.8c0 50.1 13.4 97.1 36.9 137.7H.5V117.8c17.8 3.8 34.7 9.8 50.7 17.7 11.5 5.9 22.1 13 32.4 20.7-27.4 42.7-43.4 93.3-43.4 147.6z" fill-rule="evenodd" clip-rule="evenodd" fill="#fac242"/><path d="M316.9 70.6c-129.1 0-234.1 104.7-234.1 233.2 0 51.4 16.8 99 45.2 137.7h206.5V71.2c-5.8-.4-11.7-.6-17.6-.6zM254.2 412c-23.5 0-42.5-19-42.5-42.4 0-23.5 19-42.4 42.5-42.4s42.5 19 42.5 42.4-19.1 42.4-42.5 42.4z" fill-rule="evenodd" clip-rule="evenodd" fill="#e63e33"/></svg>