<?xml version="1.0" encoding="UTF-8"?>
<svg width="230px" height="110px" viewBox="0 0 230 110" version="1.1" xmlns="http://www.w3.org/2000/svg" xmlns:xlink="http://www.w3.org/1999/xlink">
    <!-- Generator: Sketch 57 (83077) - https://sketch.com -->
    <title>Medis</title>
    <desc>Created with Sketch.</desc>
    <g id="Medis" stroke="none" stroke-width="1" fill="none" fill-rule="evenodd">
        <g id="logo-medis-2" transform="translate(50.000000, 21.000000)" fill-rule="nonzero">
            <g id="logo-medis">
                <g id="Group" transform="translate(56.000000, 24.000000)">
                    <path d="M0,23.1 L0,8.2 L2.4,8.2 C4,8.2 4.2,10.2 4.2,10.2 C5.1,8.8 6.5,7.9 8.3,7.9 C10.5,7.9 11.8,8.9 12.5,10.3 C13.6,8.9 15.2,7.9 17.2,7.9 C20.3,7.9 22.1,10 22.1,13.5 L22.1,23.1 L17.8,23.1 L17.8,13.8 C17.8,12.2 16.6,11.4 15.5,11.4 C14.3,11.4 13.2,12.2 13.2,14 L13.2,23.2 L8.9,23.2 L8.9,13.8 C8.9,12.3 7.8,11.5 6.7,11.5 C5.5,11.5 4.4,12.3 4.3,13.8 L4.3,23.1 L0,23.1 L0,23.1 Z" id="Path" fill="#3B3B3B"></path>
                    <path d="M38.2,16.1 C38.2,11.5 36.2,7.9 31.2,7.9 C26.6,7.9 23.8,11.4 23.8,15.6 C23.8,20.2 27,23.4 31.4,23.4 C34.8,23.4 36.4,22.3 38,20.2 L35.2,18.2 C34.5,19.3 33.3,20 31.7,20 C30,20 28.5,19.1 28.2,16.6 L38.4,16.6 L38.4,16.1 L38.2,16.1 Z M28.1,14 C28.5,12.3 29.7,11.4 31.1,11.4 C32.4,11.4 33.7,12.3 34,14 L28.1,14 Z" id="Shape" fill="#3B3B3B"></path>
                    <path d="M50.3,21.2 L50.3,21.2 C49.1,22.6 47.5,23.5 45.8,23.5 C41.6,23.5 39.4,19.7 39.4,15.7 C39.4,11.7 41.7,8 45.9,8 C47.5,8 49.1,8.6 50.2,9.8 L50.2,0.9 L54.5,0.9 L54.5,23.2 L52.3,23.2 C51.1,23.1 50.3,22.2 50.3,21.2 Z M50.2,15.6 C50.2,13.3 48.9,11.7 46.9,11.7 C44.7,11.7 43.6,13.5 43.6,15.7 C43.6,17.9 44.7,19.7 46.9,19.7 C48.8,19.6 50.2,17.7 50.2,15.6 Z" id="Shape" fill="#3B3B3B"></path>
                    <path d="M58.9,1.1 C60.2,1.1 61.4,2.2 61.4,3.6 C61.4,5 60.3,6.1 58.9,6.1 C57.6,6.1 56.4,5 56.4,3.6 C56.4,2.2 57.6,1.1 58.9,1.1 Z M56.7,23.1 L56.7,8.2 L58.5,8.2 C59.9,8.2 61,9.3 61,10.7 L61,23.1 L56.7,23.1 Z" id="Shape" fill="#3B3B3B"></path>
                    <path d="M64.9,18.1 C65.9,19.3 67.6,19.8 69,19.8 C69.9,19.8 70.6,19.4 70.6,18.9 C70.6,18.1 69.8,17.8 68.6,17.4 C66.3,16.7 63.4,15.4 63.4,12.4 C63.4,9.5 66.2,7.9 68.7,7.9 C71,7.9 72.5,8.7 73.9,10.1 L71.5,12.7 C70.9,12 69.7,11.4 68.8,11.4 C68,11.4 67.4,11.8 67.4,12.3 C67.4,13 68.3,13.4 69.6,13.8 C71.9,14.5 74.8,15.9 74.8,18.7 C74.8,21.5 72.4,23.5 69,23.5 C66.3,23.5 64.1,22.7 62.5,21 L64.9,18.1 Z" id="Path" fill="#3B3B3B"></path>
                    <path d="M30.6,6.1 L30.6,6.1 L32.1,0.8 L35.9,0.8 C35.9,0.8 35.4,2.2 34.8,3.5 C34,5.1 32.3,6.1 30.6,6.1 Z" id="Path" fill="#000080"></path>
                </g>
                <g id="Group">
                    <path d="M22.9,17 C36.8,17 48,28.2 48,42.1 C48,56 36.8,67.3 22.9,67.3 L22.9,17 Z" id="Path" fill="#727272"></path>
                    <path d="M44.6,22.4 C44.6,29 40.3,33 36.6,35 C33.8,36.5 30.3,39.4 30.3,44.9 L30.3,57.3 L22.9,57.3 L22.9,44.1 L22.9,13.3 C22.9,5.4 32.4,1.4 38.1,6.9 C38.1,6.9 38.2,7 38.2,7 C42.1,10.9 44.6,16.4 44.6,22.4 Z" id="Path" fill="#FFFFFF"></path>
                    <path d="M22.9,57.3 C10.7,57.3 0.8,47.4 0.8,35.2 C0.8,23 10.7,13.1 22.9,13.1 L22.9,57.3 Z" id="Path" fill="#3B3B3B"></path>
                    <path d="M37.7,25.4 C30.5,31.8 24.6,30.2 22.9,40 L22.9,0.7 C28.9,0.7 34.3,3.1 38.2,7 C44.1,12.9 42.9,20.8 37.7,25.4 Z" id="Path" fill="#6A6A6A"></path>
                    <path d="M22.9,13.1 L22.9,27.9 C27,27.9 30.3,24.6 30.3,20.5 C30.3,16.4 27,13.1 22.9,13.1 Z" id="Path" fill="#FFFFFF"></path>
                    <path d="M22.9,40 L22.9,40 C22.9,35.1 18.9,31.1 14,31.1 L4.9,31.1 L4.9,40 L4.9,40.2 L23,40.2 L23,40 L22.9,40 Z" id="Path" fill="#FFFFFF"></path>
                </g>
            </g>
        </g>
    </g>
</svg>