<svg height="110" viewBox="0 0 230 110" width="230" xmlns="http://www.w3.org/2000/svg"><g fill="none" fill-rule="evenodd" transform="translate(84 18)"><path d="m0 75h63v-75h-63z" fill="#444"/><path d="m0 75h63v-75h-63z" fill="#444"/><g fill="#fff"><path d="m20.0179856 32.0332717c-1.7133885 0-3.426777-.0055444-5.1400899.0056194-.2751907.0017982-.362741-.0714785-.3619101-.3525225.0089892-3.3778471.0088381-6.7556943.0000756-10.1335414-.0007554-.2777473.0809028-.3563437.3594928-.3551449 2.2420899.0103397 4.4846331-.0168581 6.7264208.0152847 1.1605899.0166334 2.2736655.3372378 3.3592446.7347153 2.1812806.7987762 4.0980216 2.01998 5.8170756 3.5647852 1.8677158 1.6781719 3.4312338 3.5878622 4.5548849 5.8335165.6287158 1.2565684 1.0787805 2.5734516 1.2553165 3.9726024.0170719.1347153.018054.272053.0181295.4081918.000982 2.2239261-.0060432 4.4479271.0082338 6.6717782.001964.3218032-.0901942.4039211-.4092734.4028722-3.4055503-.011014-6.8111762-.0066684-10.2168021-.007043-.4137302-.0000749-.4156187-.0014985-.41509-.4273726.0038526-3.3043457.0083094-6.6086164.0129173-9.9129621.0006043-.4042957-.0089892-.4150849-.428536-.4152347-1.7133884-.0002997-3.4267014-.0000749-5.1400899-.0000749z"/><path d="m42.6694543 32.0847228c-1.6922374 0-3.3846259-.0062188-5.0767878.0056943-.3076726.0021728-.4224928-.0713287-.4213597-.4016733.0117087-3.3359641.0114065-6.672003.0003022-10.008042-.0010576-.3215784.0969928-.4096903.4141834-.4087912 3.4057015.0096653 6.8114029.0057692 10.2171044.0062937.41441.0000749.4155431.002023.4155431.4271478.0003777 3.31506.0003777 6.6301199.0000756 9.9451049-.0000756.4328422-.0010576.4339661-.4404713.4341159-1.7028884.0004496-3.4057014.0001499-5.1085899.0001499"/><path d="m31.0983259 10.0643781c1.713464 0 3.4268525.0062188 5.140241-.005994.2911295-.0020979.3756583.081968.3748273.3718532-.0094424 3.3464535-.009669 6.6930569.0005288 10.0395105.000831.2971528-.096464.3675824-.3801151.366908-3.426777-.0082417-6.853705-.008991-10.280482.0008242-.3051043.0008991-.3934101-.0846653-.3925791-.3885614.0101978-3.336039.0105-6.6720779-.0003022-10.0081169-.0009065-.3110889.0991835-.3848901.3975648-.3826424 1.7133884.0127373 3.4268525.0062188 5.1403165.0062188"/><path d="m21.7641734 49.9186289c-1.0808202 2.4896104-2.1627734 4.9786963-3.2421583 7.468981-.9835252 2.2692557-1.9617626 4.5409091-2.9502734 6.8080669-.1027338.2356394-.1638453.5838162-.5353489.5132368-.3610791-.0686314-.3090324-.4196554-.3218741-.6696803-.0855863-1.6638612-.1515324-3.3287713-.2221619-4.9933817-.1229028-2.899975-.244446-5.8000249-.3672733-8.699925-.0011331-.0261489-.0117842-.0518482-.0716871-.0868382-.118446.467982-.2393849.9352897-.3548849 1.4039461-1.0430503 4.2314685-2.0851187 8.4632367-3.1277914 12.6948551-.0200179.0812937-.0302913.1689561-.0691187.241034-.1059064.196978-.2925647.2813436-.50347118.2539211-.20667626-.0269731-.24935612-.2055945-.25026259-.3821929-.00339928-.6267482.18960431-1.2203046.33811507-1.8184315 1.255241-5.0531718 2.5184892-10.1043207 3.7819641-15.1553946.159464-.6376124.3150755-.7455045.9743093-.7315685.253813.0053197.5079281-.0053946.7615144.0031469.4287626.0145355.5495504.1207043.5695683.5432817.036259.764011.0583166 1.5287712.0811295 2.2933816.0798454 2.6608891.1608238 5.3217033.2333418 7.9827423.0170719.6264485.0025683 1.2536463.0025683 1.8804695.0360324.0058442.0720648.0116883.1080971.0174576.1318166-.2763986.2641619-.5526474.3954497-.8294206 1.7470791-3.6857143 3.3691403-7.425974 4.9052374-11.2021978.2053165-.5046953.5147266-.6707293.999464-.672977.2856151-.0014236.5711547-.0025475.8567698.0000749.3688597.0034465.5356511.1622877.4907806.5282218-.0815072.6654096-.1904353 1.3275974-.2908274 1.9906094-.4598093 3.0361138-.9158417 6.0727522-1.3826762 9.1078171-.3057842 1.9884366-.6253166 3.9748502-.9437158 5.9613387-.0873993.5458292-.449536.7257992-.9699281.4957043-.5442626-.2405844-.7038777-.7514985-.8738417-1.2476524-.1525144-.4452048-.0401871-.8982018.0194892-1.3407092.266277-1.9736764.6388381-3.9307193.9635072-5.8953297.3520144-2.1290709.7062194-4.2577672 1.0594424-6.3866134.0110288-.0517732.0200935-.1018981-.0634532-.075974"/><path d="m45.9286468 62.3029795c.0018885-.4838661.025759-.9663836.2021438-1.4241009.1808418-.4694805.5047554-.5173576.821795-.1270729.2137015.2631369.3634964.56501.4968238.8731768.1710215.3955295.3661402.7783966.6001618 1.1398352.1308346.2020729.2717159.4027972.4373741.5766983.611795.6421079 1.2702734.5169081 1.5941115-.3051698.3018561-.7664086.2263921-1.5287713-.1199568-2.2581669-.4960683-1.0446803-1.1821187-1.9808691-1.7744245-2.9708541-.2918093-.4876124-.5745539-.9791209-.7211007-1.5314686-.4332949-1.6332167.2461835-3.4116383 1.7068166-4.5322177.7760935-.5953547 1.6312769-.7528472 2.5697805-.5168332 1.1288634.2838911 1.6441187.9987512 1.5401008 2.1425574-.0293849.3221029-.058241.6479521-.2177806.9429321-.1888489.3491509-.4641907.4196553-.779795.1843906-.3508057-.2613386-.6076403-.6105644-.8714244-.9516234-.2512446-.3248751-.5009029-.6510239-.8223238-.9125874-.2909029-.2366883-.6062806-.3930569-.9885108-.2196054-.3822302.1733017-.5620144.4915834-.6141367.8899601-.0672302.5141358.1275864.9704295.3462734 1.4136863.5069461 1.0276723 1.1700324 1.9652847 1.7524425 2.9495005.4226439.7142607.8320683 1.4312937.9895683 2.2625125.3761115 1.9858891-.9203741 4.2045704-2.7850683 4.7404345-.6265252.180045-1.2566763.1698552-1.8715684-.0421828-1.0245431-.3533466-1.4913777-1.0940559-1.4913021-2.3238012"/><path d="m41.4953428 63.4580095c.0160144-1.0691059.244446-2.0565435.4956907-3.0443557.6893741-2.7096653 1.3585036-5.4243506 2.0363201-8.136938.0737266-.2951299.1619568-.5853147.3164352-.8512987.1275108-.2195305.3071439-.3329671.5726655-.3117633.2628022.0209791.5272662.0204546.7905216.0362638.3607014.0215784.4990144.1922577.461018.5545954-.0680612.649001-.2584964 1.2721528-.4127482 1.9024975-.8662122 3.5398352-1.7376367 7.0783966-2.6036979 10.6183067-.0690431.2823926-.1633165.519006-.5046043.556993-.387518.0431568-.7448201.0243506-.9640359-.3639111-.1772914-.3140859-.2037303-.6558192-.1875648-.9603896"/><path d="m30.283473 50.5643107c.9744605-1.2689311 1.9006511-2.4752248 2.8279748-3.6807692.038072-.0496004.0850576-.0929071.1299281-.1371129.3539029-.3478772.6624065-.4311189.9175036-.2484516.3271619.2343657.4313309.7489511.230018 1.1353397-.1141403.2190809-.2922626.3827922-.4793741.5367632-.9180324.7549451-1.8415036 1.5035215-2.7543238 2.2646104-.2566834.2141359-.5323273.1072927-.8717266.1296204"/><path d="m46.2257137 47.3713262c.7555467.0034465 1.3153705.5674825 1.3092518 1.3189061-.0058921.7231019-.5817302 1.2920829-1.3108382 1.2952297-.7445179.0032218-1.3270791-.5736263-1.3252661-1.3123126.0017374-.7478272.569946-1.3053447 1.3268525-1.3018232"/><path d="m21.7641734 49.9186289c.040807-.0552198.081614-.1103647.1307028-.1769731.1694017.1004746.0849267.1767483-.0042162.2528722-.0421622-.0252498-.0843244-.0505745-.1264866-.0758991"/><path d="m39.2304853 55.4533516c-.8105396 2.1908092-1.8999713 4.2459291-3.2226691 6.1766734-.2384029.347952-.5340648.6537962-.9131979.8591658-.5758381.311988-.9704568.1374126-1.1394388-.4970529-.0817338-.3067433-.0921583-.6212788-.0926115-1.082068.0880036-1.4477023.5691906-2.9391608 1.2290288-4.3765234.5351978-1.1656094 1.1330935-2.2998252 2.0799064-3.2057443.3392482-.3245754.7164928-.5866633 1.1989641-.6603147.5744028-.0876623.9660755.1780969 1.0858057.7477523.1476799.7027222.0123885 1.3942807-.2257877 2.0381118m3.4682482-9.8235015c-1.0495468-.1988511-1.3346331-.0143106-1.6209281 1.0133617-.0139748.0503496-.0250036.1016733-.0358813.1528471-.2552482 1.2096654-.5095899 2.4195555-.7658201 3.629071-.1309857.6177572-.265295 1.2349151-.3975648 1.8501248-.0484964-.0081668-.0597518-.0075674-.0685144-.0118381-.0663237-.0322927-.1336295-.063012-.1979136-.0989011-.7585684-.4237013-1.5299785-.4147103-2.3139281-.0735764-.7877266.3427822-1.4589712.8492008-2.0317122 1.4754995-1.8767806 2.0526473-3.0262662 4.4534715-3.3897626 7.2023976-.1293238.9783716-.1406547 1.9732267.231982 2.9188561.4550503 1.15497 1.4925108 1.4442558 2.5023993.7132867.5620899-.4068431 1.0023345-.92997 1.409946-1.4811938.858205-1.1606643 1.5554353-2.4183566 2.2413345-3.6825674.0092914-.0689311.0314245-.1294705.103867-.1603397.0443417.0868382.0111043.1562937-.0403382.2223776-.0568057.2876374-.1149712.57505-.1702662.8629121-.2232194 1.1612638-.5580108 2.3055195-.534518 3.5043207.0043813.223052.0326331.4386114.1190504.6445055.1523633.3629371.3938633.4992258.8001151.4721778.3611547-.023976.4252878-.2878621.4862482-.5626873 1.2023633-5.4215035 2.406464-10.8426324 3.6064101-16.2646603.1312122-.593032.2868993-1.1816434.3628165-1.7859141.0314245-.2506244-.0090647-.4855145-.2970215-.54006"/><path d="m26.0083338 58.399046c.294-1.6142608.6774389-3.1992258 1.5385144-4.6275974.1800863-.2987263.3952986-.5716784.6723777-.7887363.5641295-.4418332 1.1210072-.3021728 1.407982.3482517.1114964.2528722.1892266.7225775.1772914 1.0777223-.0503849 1.4486014-.5235648 2.6886114-1.7828849 3.5355644-.5543094.3727523-1.180759.5471779-1.8363669.6406844-.169813.0242008-.204259-.0355145-.1769137-.1858891m.2581187 1.0924825c1.1388346-.2443307 2.2443561-.591009 3.2561331-1.1827673 1.6347518-.955969 2.3602338-2.4761238 2.0716727-4.3305944-.2281295-1.4665834-1.4233921-2.3344405-2.8365108-2.0422327-.7581151.1568181-1.3902302.5629121-1.9193849 1.1052197-1.9579856 2.0066434-2.8729209 4.4438812-2.9912914 7.1518981.0234928.3699051.0320288.6845905.0654173.9966534.1118741 1.0466284.3828345 2.0400599 1.0722842 2.8724026.816205.9854146 1.9766438 1.1963287 3.0167482.4987762 1.1692014-.7840909 1.8872805-1.9245255 2.3794208-3.2127123.0656439-.1717282.1695108-.425949-.0988057-.5148102-.2463346-.0816683-.2976259.1798951-.3741475.3357393-.2960396.6029221-.6896007 1.1322677-1.2139209 1.5528222-.9222626.7396603-1.9938669.4660339-2.4537518-.6151349-.2980791-.7007742-.3331295-1.442008-.3370575-2.189011-.0013597-.2586413.0976726-.3693057.3631942-.4262487"/></g></g></svg>