<?xml version="1.0" encoding="UTF-8"?>
<svg width="230px" height="110px" viewBox="0 0 230 110" version="1.1" xmlns="http://www.w3.org/2000/svg" xmlns:xlink="http://www.w3.org/1999/xlink">
    <!-- Generator: Sketch 50.2 (55047) - http://www.bohemiancoding.com/sketch -->
    <title>UG</title>
    <desc>Created with Sketch.</desc>
    <defs>
        <polygon id="path-1" points="0 74.9134337 116.6814 74.9134337 116.6814 0.000180722892 0 0.000180722892"></polygon>
    </defs>
    <g id="UG" stroke="none" stroke-width="1" fill="none" fill-rule="evenodd">
        <g id="Page-1" transform="translate(57.000000, 18.000000)">
            <path d="M65.6091,52.8164458 L65.6091,47.3522892 L66.4641,47.3522892 L66.4641,52.6592169 C66.4641,54.4980723 67.4928,55.7062048 69.2901,55.7062048 C71.0343,55.7062048 72.378,54.3760843 72.378,52.518253 L72.378,47.3522892 L73.233,47.3522892 L73.233,56.2845181 L72.378,56.2845181 L72.378,54.6200602 C71.7849,55.6718675 70.7904,56.4950602 69.1677,56.4950602 C66.9177,56.4950602 65.6091,54.953494 65.6091,52.8164458 Z" id="Fill-1" fill="#231F20"></path>
            <path d="M76.47588,47.3523795 L77.33088,47.3523795 L77.33088,49.0159337 C77.92398,47.9650301 78.91848,47.1418373 80.54028,47.1418373 C82.79118,47.1418373 84.09978,48.6834036 84.09978,50.8204518 L84.09978,56.2846084 L83.24478,56.2846084 L83.24478,50.9776807 C83.24478,49.1388253 82.21518,47.9297892 80.41788,47.9297892 C78.67368,47.9297892 77.33088,49.2608133 77.33088,51.117741 L77.33088,56.2846084 L76.47588,56.2846084 L76.47588,47.3523795 Z" id="Fill-3" fill="#231F20"></path>
            <mask id="mask-2" fill="white">
                <use xlink:href="#path-1"></use>
            </mask>
            <g id="Clip-6"></g>
            <polygon id="Fill-5" fill="#231F20" mask="url(#mask-2)" points="87.1857 45.0227711 88.2495 45.0227711 88.2495 43.8489759 87.1857 43.8489759"></polygon>
            <polygon id="Fill-7" fill="#231F20" mask="url(#mask-2)" points="87.2901 56.2845181 88.1442 56.2845181 88.1442 47.3522892 87.2901 47.3522892"></polygon>
            <path d="M91.98198,53.9900602 L91.98198,48.1391566 L90.69138,48.1391566 L90.69138,47.3521084 L91.98198,47.3521084 L91.98198,44.4975904 L92.83698,44.4975904 L92.83698,47.3521084 L95.95998,47.3521084 L95.95998,48.1391566 L92.83698,48.1391566 L92.83698,53.9024096 C92.83698,55.1810241 93.58668,55.6364458 94.61628,55.6364458 C95.05278,55.6364458 95.41908,55.5487952 95.92488,55.3210843 L95.92488,56.1271084 C95.47128,56.336747 95.03478,56.4424699 94.47678,56.4424699 C93.09888,56.4424699 91.98198,55.6888554 91.98198,53.9900602" id="Fill-8" fill="#231F20" mask="url(#mask-2)"></path>
            <path d="M105.91884,51.8184036 C105.91884,49.1735241 104.33124,47.1421988 101.83734,47.1421988 C99.42984,47.1421988 97.61544,49.2087651 97.61544,51.7994277 L97.61544,51.8364759 C97.61544,54.620512 99.63864,56.4946084 101.97684,56.4946084 C103.68594,56.4946084 104.74974,55.7934036 105.65784,54.8120783 L105.06474,54.2870783 C104.33124,55.0750301 103.38984,55.6885843 102.01194,55.6885843 C100.26774,55.6885843 98.68014,54.3928012 98.52264,52.169006 L105.90174,52.169006 C105.91884,52.0271386 105.91884,51.9756325 105.91884,51.8184036 L105.91884,51.8184036 Z M98.52264,51.3982229 C98.68014,49.4193072 100.04094,47.9301506 101.80224,47.9301506 C103.84344,47.9301506 104.87214,49.5946084 104.99454,51.3982229 L98.52264,51.3982229 Z" id="Fill-9" fill="#231F20" mask="url(#mask-2)"></path>
            <path d="M115.82676,43.4988253 L115.82676,49.2783434 C115.09416,48.1578614 113.94306,47.1412952 112.16376,47.1412952 C110.01816,47.1412952 107.83746,48.9105723 107.83746,51.8184036 L107.83746,51.852741 C107.83746,54.7605723 110.01816,56.4946084 112.16376,56.4946084 C113.92596,56.4946084 115.05816,55.4608735 115.82676,54.2879819 L115.82676,56.2840663 L116.68176,56.2840663 L116.68176,43.4988253 L115.82676,43.4988253 Z M115.87896,51.8364759 C115.87896,54.1126807 114.10056,55.6714157 112.25016,55.6714157 C110.38446,55.6714157 108.76176,54.1650904 108.76176,51.8184036 L108.76176,51.7831627 C108.76176,49.3831627 110.31426,47.964488 112.25016,47.964488 C114.10056,47.964488 115.87896,49.5060542 115.87896,51.8012349 L115.87896,51.8364759 Z" id="Fill-10" fill="#231F20" mask="url(#mask-2)"></path>
            <path d="M73.61064,63.1435843 L73.61064,64.9309337 C72.87444,63.8791265 71.66484,62.9339458 69.87744,62.9339458 C67.72284,62.9339458 65.58444,64.5975 65.58444,67.1718976 L65.58444,67.2071386 C65.58444,69.7634639 67.72284,71.410753 69.87744,71.410753 C71.64864,71.410753 72.83934,70.4465964 73.61064,69.3432831 L73.61064,70.6399699 C73.61064,72.934247 72.15624,74.1071386 70.10604,74.1071386 C68.79114,74.1071386 67.56444,73.6688855 66.49614,72.8465964 L65.98764,73.5478012 C67.21434,74.457741 68.59854,74.9131627 70.08804,74.9131627 C71.40294,74.9131627 72.55854,74.4938855 73.33074,73.7221988 C74.04894,73.0038253 74.46924,71.9881627 74.46924,70.6923795 L74.46924,63.1435843 L73.61064,63.1435843 Z M73.66374,67.1899699 C73.66374,69.2221988 71.82324,70.5866566 69.96564,70.5866566 C68.12514,70.5866566 66.51324,69.1860542 66.51324,67.1718976 L66.51324,67.1366566 C66.51324,65.0520181 68.09004,63.7571386 69.96564,63.7571386 C71.82324,63.7571386 73.66374,65.087259 73.66374,67.1547289 L73.66374,67.1899699 Z" id="Fill-11" fill="#231F20" mask="url(#mask-2)"></path>
            <path d="M77.72697,63.1435843 L78.58557,63.1435843 L78.58557,65.6836446 C79.28667,64.0896687 80.77617,62.9339458 82.54647,63.0044277 L82.54647,63.9496084 L82.45827,63.9496084 C80.39097,63.9496084 78.58557,65.5083434 78.58557,68.4152711 L78.58557,72.0767169 L77.72697,72.0767169 L77.72697,63.1435843 Z" id="Fill-12" fill="#231F20" mask="url(#mask-2)"></path>
            <path d="M88.29369,62.9335843 C85.62969,62.9335843 83.68479,65.1040663 83.68479,67.6097892 L83.68479,67.6450301 C83.68479,70.1489458 85.61259,72.2868976 88.25859,72.2868976 C90.92169,72.2868976 92.86749,70.1137048 92.86749,67.6097892 L92.86749,67.5754518 C92.86749,65.0697289 90.93969,62.9335843 88.29369,62.9335843 L88.29369,62.9335843 Z M91.93869,67.6450301 C91.93869,69.7468373 90.41409,71.4808735 88.29369,71.4808735 C86.22549,71.4808735 84.61359,69.764006 84.61359,67.6097892 L84.61359,67.5754518 C84.61359,65.4736446 86.13819,63.7396084 88.25859,63.7396084 C90.32679,63.7396084 91.93869,65.4555723 91.93869,67.6097892 L91.93869,67.6450301 Z" id="Fill-13" fill="#231F20" mask="url(#mask-2)"></path>
            <path d="M95.33637,68.6085542 L95.33637,63.143494 L96.19497,63.143494 L96.19497,68.4504217 C96.19497,70.2892771 97.22907,71.4974096 99.03357,71.4974096 C100.78587,71.4974096 102.13587,70.1672892 102.13587,68.3103614 L102.13587,63.143494 L102.99447,63.143494 L102.99447,72.0766265 L102.13587,72.0766265 L102.13587,70.4112651 C101.54007,71.4630723 100.54107,72.2853614 98.91117,72.2853614 C96.65037,72.2853614 95.33637,70.7446988 95.33637,68.6085542" id="Fill-14" fill="#231F20" mask="url(#mask-2)"></path>
            <path d="M110.79144,62.9335843 C109.02204,62.9335843 107.88264,63.9673193 107.11134,65.1402108 L107.11134,63.1432229 L106.25274,63.1432229 L106.25274,74.8784639 L107.11134,74.8784639 L107.11134,70.1489458 C107.84754,71.2703313 109.00404,72.2868976 110.79144,72.2868976 C112.94784,72.2868976 115.13754,70.5176205 115.13754,67.6097892 L115.13754,67.5754518 C115.13754,64.6676205 112.94784,62.9335843 110.79144,62.9335843 L110.79144,62.9335843 Z M114.20874,67.6450301 C114.20874,70.0450301 112.64904,71.4628012 110.70414,71.4628012 C108.84564,71.4628012 107.05824,69.9212349 107.05824,67.6269578 L107.05824,67.5917169 C107.05824,65.315512 108.84564,63.7567771 110.70414,63.7567771 C112.57884,63.7567771 114.20874,65.2631024 114.20874,67.6097892 L114.20874,67.6450301 Z" id="Fill-15" fill="#231F20" mask="url(#mask-2)"></path>
            <polygon id="Fill-16" fill="#808184" mask="url(#mask-2)" points="27.26109 31.5496988 9e-05 47.3620482 27.25839 63.1536145 40.90869 39.45"></polygon>
            <polygon id="Fill-17" fill="#4C4C4E" mask="url(#mask-2)" points="54.47952 15.7929217 27.24282 -0.000451807229 18.14742 15.7929217"></polygon>
            <polygon id="Fill-18" fill="#6C6E70" mask="url(#mask-2)" points="0.0009 47.3612349 27.2709 31.5696687 13.6116 23.6784036"></polygon>
            <polygon id="Fill-19" fill="#808184" mask="url(#mask-2)" points="13.61169 23.6775 0.00549 15.7925602 0.00549 47.3558133"></polygon>
            <polygon id="Fill-20" fill="#808184" mask="url(#mask-2)" points="27.24084 0.000903614458 0.00144 15.7942771 18.14634 15.7942771"></polygon>
            <polygon id="Fill-21" fill="#6C6E70" mask="url(#mask-2)" points="27.24876 63.1506325 54.47916 47.3391867 40.88646 39.4714157"></polygon>
            <polygon id="Fill-22" fill="#6C6E70" mask="url(#mask-2)" points="27.25101 31.5656024 40.88871 39.4668072 54.47241 15.800241"></polygon>
            <polygon id="Fill-23" fill="#322F31" mask="url(#mask-2)" points="18.14643 15.7929217 13.60683 23.6760542 27.25713 31.5646084 54.47943 15.7929217"></polygon>
            <polygon id="Fill-24" fill="#626366" mask="url(#mask-2)" points="18.14643 15.7929217 0.00063 15.7983434 13.60683 23.6760542"></polygon>
            <polygon id="Fill-25" fill="#4C4C4E" mask="url(#mask-2)" points="40.88673 39.4660843 54.47943 47.3329518 54.47943 15.7922892"></polygon>
            <path d="M39.56445,38.9833735 C38.43765,39.2960241 35.67735,40.013494 36.94995,36.9041566 C38.43405,33.291506 43.22835,24.3529518 44.40735,22.4436145 C45.49095,20.6851807 43.62795,17.4565663 40.33485,20.5080723 C36.29115,24.2508434 23.26725,37.3595783 17.90235,39.9303614 C16.29675,40.6993373 16.41465,39.9303614 16.47855,39.279759 C16.54425,38.6300602 22.91445,25.6062651 24.34005,22.7490361 C25.76115,19.8936145 24.38595,18.6746386 22.20435,19.1779518 C21.37545,19.3695181 10.19475,24.7125904 0.00675,29.6255422 L0.00675,30.2264458 C7.85655,26.7005422 15.75405,23.1493373 17.03025,22.5538554 C19.68075,21.3231325 17.67645,24.6330723 17.67645,24.6330723 L10.75725,39.3068675 C10.75725,39.3068675 8.74935,44.1023494 12.98925,44.1023494 C20.48445,44.1023494 35.13915,31.5159036 35.13915,31.5159036 C35.13915,31.5159036 32.42385,36.8409036 30.74355,40.8014458 C29.06055,44.761988 32.72085,44.4186145 34.84125,43.5330723 C36.51885,42.8354819 45.72945,38.7339759 54.47925,34.8249398 L54.47925,33.5309639 C47.15235,36.24 40.09905,38.8342771 39.56445,38.9833735" id="Fill-26" fill="#FEFEFE" mask="url(#mask-2)"></path>
        </g>
    </g>
</svg>