<svg height="110" viewBox="0 0 230 110" width="230" xmlns="http://www.w3.org/2000/svg"><g fill="#444"><g transform="translate(52 46)"><path d="m12.0585938 15.761194s5.4632812-13.19999997 5.4632812-13.29850743c.1476563-.44328358.0984375-.59104478-.590625-.88656717-.7382812-.34477612-1.8210937-.54179104-1.8210937-.54179104v-.44328358h6.3v.59104477c-.4921875.04925373-1.4273438.19701493-2.0179688.54179105-.7382812.39402985-.984375 1.03432836-1.18125 1.62537313-.196875.59104478-4.3804687 11.22985077-6.4476562 16.59850747h-1.2796875c-2.95312505-6.7970149-5.41406255-12.51044777-6.69375005-15.76119404-.590625-1.47761194-.984375-2.11791044-1.82109375-2.56119403-.44296875-.24626865-1.42734375-.49253731-1.6734375-.54179104v-.44328358h8.7609375v.59104477c-.7875 0-1.72265625.24626866-2.165625.49253732-.73828125.39402985-.54140625.6402985-.34453125 1.18208955.0984375.09850746 5.51250005 12.85522385 5.51250005 12.85522385z"/><path d="m23.5757812 19.9477612v-.4925373h.7875c.4921876 0 1.7226563-.0492538 1.7226563-.738806 0-.9850746-.0492188-16.3522388-.0492188-16.79552238-.1476562-.64029851-2.0671875-.83731343-2.0671875-.83731343v-.54179104h13.7320313l.196875 4.48208955h-.590625c-.2460938-1.13283582-1.0828125-3.69402985-3.1992188-3.69402985h-4.8234375v8.32388059h4.5773438c1.18125 0 1.4765625-1.28059701 1.575-2.41343283h.7382812v5.51641789h-.590625c-.0984375-1.4776119-.6890625-2.4134328-1.771875-2.4134328h-4.4789062v7.3880597c0 .738806.2460937 1.4776119 1.0828125 1.4776119h4.6265625c1.0828125-.0492537 2.2640625-2.3149253 2.4609375-4.0388059h.6890625l-.2953125 4.6791044h-14.3226563z"/><path d="m53.2546875 19.8985075c0-.0985075 0-.197015 0-.2955224 0-1.0343284-.2460937-3.4477612-.590625-4.7283582-.5414063-2.019403-1.2304687-4.87611944-3.8882812-4.9746269h-1.9195313l-.0492187 7.880597c0 .738806.0492187 1.477612 1.0335937 1.5268657.6398438.0492537.984375.0492537 1.2796875.0492537v.5417911c-1.18125 0-6.5460937-.0492538-7.9242187-.0492538v-.4925373c.6890625 0 2.0671875.0492537 2.4609375-.738806.0492187-.0985074.1476562-.3447761.1476562-1.0343283-.0492187-2.2656717.0492188-15.46567165 0-15.76119404-.1476562-.54179105-2.2148437-.83731343-2.2148437-.83731343v-.54179105c1.7226562 0 7.284375 0 8.6625.04925373 2.165625.04925374 5.11875 1.67462687 5.11875 4.72835821 0 1.97014926-2.2148438 3.98955224-4.9710938 4.0880597 3.2484375.29552239 4.33125 3.34925378 5.2664063 5.86119408.5414062 1.3791044.7875 2.7089552 1.18125 3.2507462.6398437.9358209 1.2796875.8865672 1.8703125.8865672v.4432836zm-4.8234375-18.71641795c-.6398438 0-1.2796875.04925373-1.6242188.09850746v7.88059702c1.6242188.04925373 1.8703125.04925373 2.0671875.04925373 2.4117188 0 3.4453125-2.01940298 3.4453125-3.98955224 0-1.77313433-.8367187-3.54626865-2.2148437-3.89104477-.4921875-.09850747-1.0828125-.1477612-1.6734375-.1477612z"/><path d="m95.2875 11.4761194-2.8546875 6.7477612c-.0492188.0985075-.0984375.1970149-.0984375.2955224 0 .6895522 1.3289062.8865671 1.96875.8865671v.4925374h-5.90625v-.4925374h.0492187c.6890625 0 1.7226563-.3447761 2.2640625-1.0343283.8367188-.9850746 8.0226563-17.82985075 8.0226563-17.82985075h.984375l6.5953125 15.90895525c.885937 2.1179104 1.427344 2.5119403 1.870312 2.7582089.639844.2955224 1.082813.2462687 1.427344.2462687v.4925373c-2.707031 0-4.774218 0-8.26875 0v-.4925373h.541406c.492188 0 1.181251-.1970149 1.525782-.6402985.147656-.197015.196875-.4432836.196875-.6895523 0-.541791-.344532-1.280597-.344532-1.280597l-2.017968-5.3686567zm5.807812-.6895522-2.7070308-6.89552242-2.75625 6.89552242z"/><path d="m122.751563 2.31492537c.442968-.04925373.984375-.54179104 1.132031-1.28059701h.492187v5.8119403h-.492187c-.246094-1.7238806-.295313-2.5119403-1.082813-3.64477612-.738281-1.08358209-2.116406-2.06865672-4.085156-2.06865672-2.017969 0-3.396094 1.97014925-3.396094 3.34925373 0 1.77313433 1.870313 3.10298508 4.429688 4.03880597 3.494531 1.28059702 5.955468 3.20149258 5.955468 5.95970148 0 3.0537314-1.525781 5.3686567-7.185937 5.3686567-2.411719 0-4.134375-1.3791044-4.528125-1.6746268-.590625.1970149-.935156.5910447-1.082812 1.1328358h-.689063v-5.4179105h.639844c.639844 2.9552239 1.919531 5.1716418 5.5125 5.1716418 3.592968 0 4.134375-1.9208955 4.134375-3.6940298 0-1.9701493-1.722656-3.0537314-4.33125-3.9402985-3.248438-1.1328358-5.217188-3.20149257-5.217188-5.51641794 0-2.75820895 1.18125-5.41791045 5.857032-5.41791045 1.96875.09850747 3.396093 1.23134329 3.9375 1.82238806z"/><path d="m67.6757812 18.5686567c0-1.3298507 0-16.30298506 0-16.64776118 0-.39402985 1.1812501-.64029851 2.1164063-.68955224v-.59104477c-.4429687 0-2.1164063 0-3.740625 0s-3.3960937 0-3.8390625 0v.59104477c.8859375.04925373 2.1164063.29552239 2.1164063.68955224v16.64776118c0 .738806-1.5257813.8865672-2.3132813.8865672v.4925373h4.0851563 3.9375v-.4925373c-.8367188 0-2.4117188-.0985075-2.3625001-.8865672z"/><path d="m88.790625.64029851c-.984375 0-14.9132812 0-15.8484375 0l-.2460937 5.61492537h.5906249c.0984375-1.67462687.4429688-4.82686567 2.5101563-4.8761194l3.54375-.04925373-.0984375 15.71194025c-.0492187.9850747-.0984375 1.2805971-.5414063 1.7238806-.5414062.5417911-1.5257812.6895523-2.4609375.6895523v.4925373h9.3023438v-.4925373c-.9351562 0-1.96875-.1477612-2.4609375-.6895523-.4429687-.4432835-.4921875-.7388059-.5414062-1.7238806l-.0492188-15.71194025 3.54375.04925373c2.0179688 0 2.4117188 3.1522388 2.5101563 4.8761194h.5906249z"/></g><g transform="translate(68.242188 73.58209)"><path d="m4.2328125 5.0238806-.63984375-1.52686567h-2.11640625l-.6890625 1.52686567h-.4921875l1.96875-4.58059702h.4921875l1.96875 4.58059702zm-1.72265625-4.0880597-.8859375 2.11791044h1.771875z"/><path d="m4.8234375 5.07313433h-.63984375l-.63984375-1.52686567h-2.0671875l-.6890625 1.52686567h-.590625l.04921875-.09850746 1.96875-4.62985075h.590625v.04925373zm-.54140625-.09850746h.34453125l-1.91953125-4.48208956h-.44296875l-1.91953125 4.48208956h.34453125l.6890625-1.52686568h2.21484375zm-.7875-1.8716418h-1.96875l.984375-2.31492537zm-1.771875-.09850746h1.575l-.7875-1.87164179z"/><path d="m6.9890625 3.3 1.2796875 1.7238806h-.590625l-1.575-2.06865672c.2953125 0 .6890625 0 .984375-.04925373.44296875-.14776119.73828125-.49253731.73828125-.98507463 0-.34477612-.196875-.68955224-.4921875-.88656716-.2953125-.1477612-.590625-.19701493-.8859375-.19701493h-.7875v4.18656717h-.44296875v-4.58059702h1.18125c.34453125 0 .7875 0 1.13203125.19701493.4921875.24626865.83671875.73880597.83671875 1.32985074 0 .73880597-.590625 1.28059702-1.378125 1.32985075z"/><path d="m8.41640625 5.07313433h-.73828125v-.04925373l-1.62421875-2.16716418h.39375c.24609375 0 .4921875 0 .6890625-.04925373.44296875-.1477612.6890625-.49253732.6890625-.9358209 0-.34477612-.196875-.68955224-.4921875-.83731343-.2953125-.1477612-.590625-.1477612-.83671875-.1477612h-.73828125v4.18656717h-.590625v-4.72835821h1.23046875c.34453125 0 .83671875 0 1.13203125.19701493.54140625.24626865.83671875.7880597.83671875 1.37910447 0 .73880597-.54140625 1.32985075-1.32890625 1.42835821zm-.6890625-.09850746h.39375l-1.23046875-1.7238806h.0984375c.73828125-.04925373 1.2796875-.59104478 1.2796875-1.32985075 0-.54179104-.2953125-1.03432836-.7875-1.23134328-.2953125-.14776119-.73828125-.14776119-1.0828125-.14776119h-1.0828125v4.48208955h.34453125v-4.18656717h.8859375c.2953125 0 .590625 0 .93515625.19701493.34453125.19701492.54140625.54179104.54140625.93582089 0 .49253732-.2953125.88656717-.7875 1.03432836-.196875.04925373-.4921875.04925373-.6890625.04925373h-.14765625z"/><path d="m10.1390625.83731343v4.18656717h-.44296875v-4.18656717h-1.03359375v-.39402985h2.559375v.39402985z"/><path d="m10.2375 5.07313433h-.590625v-4.18656717h-1.03359375v-.54179104h2.70703125v.54179104h-1.0335938v4.18656717zm-.4921875-.09850746h.3445313v-4.18656717h1.0335937v-.29552239h-2.41171875v.29552239h1.03359375z"/><path d="m16.9804688 5.0238806-.6398438-1.52686567h-2.1164063l-.6890624 1.52686567h-.4921875l1.96875-4.58059702h.4921875l1.96875 4.58059702zm-1.7226563-4.0880597-.8859375 2.11791044h1.771875z"/><path d="m17.5710937 5.07313433h-.6398437l-.6398438-1.52686567h-2.0671875l-.6890624 1.52686567h-.590625l.0492187-.09850746 1.96875-4.62985075h.590625v.04925373zm-.5414062-.09850746h.3445313l-1.9195313-4.48208956h-.4429687l-1.9195313 4.48208956h.3445313l.6890625-1.52686568h2.2148437zm-.7875-1.8716418h-1.96875l.984375-2.31492537zm-1.771875-.09850746h1.575l-.7875-1.87164179z"/><path d="m20.86875 4.2358209c-.2460938.54179104-.7875.83731343-1.378125.83731343s-1.1320313-.29552239-1.378125-.83731343c-.1476563-.29552239-.196875-.64029851-.196875-.9358209v-2.85671642h.4429687v2.85671642c0 .24626866.0492188.59104478.1476563.83731343.196875.39402985.5414062.54179105.9351562.54179105.4429688 0 .7382813-.19701493.9351563-.54179105.1476562-.24626865.1476562-.59104477.1476562-.83731343v-2.85671642h.4429688v2.85671642c.0492188.29552239 0 .64029851-.0984375.9358209z"/><path d="m19.490625 5.17164179c-.6398437 0-1.18125-.34477612-1.4273437-.88656716-.1476563-.34477612-.196875-.73880597-.196875-.98507463v-2.90597015h.590625v2.90597015c0 .14776119 0 .54179104.1476562.7880597.196875.34477612.4921875.54179105.8859375.54179105s.6890625-.19701493.8859375-.54179105c.1476563-.24626866.1476563-.64029851.1476563-.7880597v-2.90597015h.590625v2.90597015c0 .24626866 0 .64029851-.196875.98507463-.2460938.54179104-.7875001.88656716-1.4273438.88656716zm-1.5257812-4.67910448v2.80746269c0 .19701493 0 .59104478.1476562.9358209.2460938.54179104.7382813.83731343 1.3289063.83731343.5906249 0 1.0828124-.29552239 1.3289062-.83731343.1476563-.29552239.1476563-.68955224.1476563-.9358209v-2.80746269h-.3445313v2.80746269c0 .14776119 0 .59104478-.1476562.83731343-.196875.39402985-.5414063.59104478-.984375.59104478-.4429688 0-.7875001-.19701493-.984375-.59104478-.1476563-.24626865-.1476563-.68955224-.1476563-.83731343v-2.80746269z"/><path d="m24.1664063 5.07313433c-1.3289063 0-2.4117188-1.03432836-2.4117188-2.36417911 0-1.32985074 1.0828125-2.3641791 2.4117188-2.3641791.6890625 0 1.3289062.29552239 1.8210937.83731343.0984375.1477612.2460938.29552239.2953125.44328358h-.4921875c-.3445312-.54179104-.9351562-.83731343-1.575-.83731343-1.0335937 0-1.9195312.9358209-1.9195312 1.97014926 0 1.03432835.8859375 1.92089552 1.9195312 1.92089552.6398438 0 1.2304688-.34477612 1.6242188-.88656717h.4921875c-.4921875.7880597-1.2796876 1.28059702-2.165625 1.28059702z"/><path d="m24.1664063 5.17164179c-1.378125 0-2.4609375-1.08358209-2.4609375-2.41343283 0-1.37910448 1.0828125-2.41343284 2.4609375-2.41343284.6890625 0 1.378125.29552239 1.8703125.83731343.1476562.1477612.2460937.29552239.2953125.44328358l.0492187.09850747h-.6398437v-.04925373c-.3445313-.49253732-.9351563-.78805971-1.5257813-.78805971-.984375 0-1.8703125.88656717-1.8703125 1.92089553 0 .98507462.8859375 1.87164179 1.8703125 1.87164179.590625 0 1.1320313-.29552239 1.575-.83731344h.6398438l-.0492188.09850747c-.4921875.68955224-1.3289063 1.23134328-2.2148437 1.23134328zm0-4.77761194c-1.3289063 0-2.3132813 1.03432836-2.3132813 2.31492537 0 1.28059702 1.0335938 2.31492538 2.3132813 2.31492538.8367187 0 1.575-.44328359 2.0179687-1.13283582h-.39375c-.4429687.54179104-1.0335937.88656716-1.6242187.88656716-1.0828125 0-2.0179688-.9358209-2.0179688-2.01940298 0-1.08358209.9351562-2.01940299 1.96875-2.01940299.6398438 0 1.2796875.29552239 1.6242188.83731343h.39375c-.0492188-.09850746-.1476563-.19701492-.2460938-.34477612-.4429688-.54179104-1.0828125-.83731343-1.7226562-.83731343z"/><path d="m28.0546875.83731343v4.18656717h-.4429687v-4.18656717h-1.0335938v-.39402985h2.559375v.39402985z"/><path d="m28.153125 5.07313433h-.590625v-4.18656717h-1.0335938v-.54179104h2.7070313v.54179104h-1.0335938zm-.4921875-.09850746h.3445312v-4.18656717h1.0335938v-.29552239h-2.4117187v.29552239h1.0335937z"/><path d="m29.6296875 5.0238806v-4.58059702h.4432836v4.58059702z"/><path d="m30.1710938 5.07313433h-.590625v-4.72835821h.590625zm-.4921875-.09850746h.3445312v-4.48208956h-.3445312z"/><path d="m33.271875 5.07313433c-1.2796875 0-2.4117187-1.03432836-2.4117187-2.36417911 0-1.32985074 1.0828125-2.41343283 2.4117187-2.41343283 1.3289063 0 2.4117188 1.03432836 2.4117188 2.3641791 0 1.37910448-1.1320313 2.41343284-2.4117188 2.41343284zm0-4.33432836c-1.0828125 0-1.96875.88656716-1.96875 1.97014925s.8859375 1.92089553 1.96875 1.92089553 1.96875-.88656717 1.96875-1.97014926c0-1.03432836-.9351562-1.92089552-1.96875-1.92089552z"/><path d="m33.271875 5.17164179c-1.3289062 0-2.4609375-1.08358209-2.4609375-2.41343283 0-1.37910448 1.1320313-2.46268657 2.4609375-2.46268657 1.378125 0 2.5101563 1.08358209 2.5101563 2.41343283-.0492188 1.37910448-1.18125 2.46268657-2.5101563 2.46268657zm0-4.77761194c-1.2796875 0-2.3625 1.03432836-2.3625 2.31492537 0 1.23134329 1.0828125 2.26567165 2.3625 2.26567165s2.3625-1.03432836 2.3625-2.31492538c0-1.23134328-1.0828125-2.26567164-2.3625-2.26567164zm0 4.33432836c-1.0828125 0-2.0179687-.9358209-2.0179687-2.01940299 0-1.13283582.8859375-2.06865671 2.0179687-2.06865671 1.1320313 0 2.0179688.88656716 2.0179688 2.01940298-.0000001 1.18208955-.9351563 2.06865672-2.0179688 2.06865672zm0-3.89104478c-1.0335937 0-1.9195312.83731344-1.9195312 1.92089553 0 1.03432835.8859375 1.87164179 1.9195312 1.87164179s1.9195312-.83731344 1.9195312-1.87164179c-.0492187-1.08358209-.8859375-1.92089553-1.9195312-1.92089553z"/><path d="m39.571875 5.0238806-2.7070313-4.03880597v4.03880597h-.4429687v-4.58059702h.6398438l2.559375 3.79253732v-3.79253732h.4429687v4.58059702z"/><path d="m40.1132813 5.07313433h-.5414063v-.04925373l-2.6085938-3.89104478v3.89104478h-.590625v-4.72835821h.7382813l2.4609375 3.69402985v-3.69402985h.590625zm-.4921875-.09850746h.3445312v-4.48208956h-.3445312v3.79253732h-.0984375l-.0492188-.04925373-2.559375-3.79253732h-.5414063v4.48208955h.3445313v-3.98955223h.0984375.0984375z"/><path d="m40.95 5.0238806v-4.58059702h2.5101563v.39402985h-2.0671875v1.62537314h1.96875v.44328358h-1.96875v1.67462686h2.0671875v.39402986h-2.5101563z"/><path d="m43.509375 5.07313433h-2.6578125v-4.72835821h2.6578125v.54179104h-2.0671875v1.52686568h1.96875v.54179104h-1.96875v1.5761194h2.0671875zm-2.5101562-.09850746h2.3625v-.29552239h-2.0179688v-1.82238806h1.96875v-.29552239h-1.96875v-1.77313433h2.0671875v-.29552239h-2.3625v4.48208956z"/><path d="m44.2476563 5.0238806v-4.58059702h2.5101562v.39402985h-2.0671875v1.62537314h1.96875v.44328358h-1.96875v1.67462686h2.0671875v.39402986h-2.5101562z"/><path d="m46.85625 5.07313433h-2.6578125v-4.72835821h2.6578125v.54179104h-2.0671875v1.52686568h1.96875v.54179104h-1.96875v1.5761194h2.0671875zm-2.5101562-.09850746h2.3625v-.29552239h-2.0671875v-1.82238806h1.96875v-.29552239h-1.96875v-1.77313433h2.0671875v-.29552239h-2.3625z"/><path d="m49.3171875 3.3 1.2796875 1.7238806h-.590625l-1.575-2.06865672c.2953125 0 .6890625 0 .984375-.04925373.4429688-.14776119.7382813-.49253731.7382813-.98507463 0-.34477612-.196875-.68955224-.4921875-.88656716-.2953125-.1477612-.590625-.19701493-.8859375-.19701493h-.7875v4.18656717h-.4429688v-4.58059702h1.18125c.3445313 0 .7875 0 1.1320313.19701493.4921875.24626865.8367187.73880597.8367187 1.32985074 0 .73880597-.590625 1.28059702-1.378125 1.32985075z"/><path d="m50.7445313 5.07313433h-.7382813l-1.6734375-2.21641791h.39375c.2460938 0 .4921875 0 .6890625-.04925373.4429688-.1477612.6890625-.49253732.6890625-.9358209 0-.34477612-.196875-.68955224-.4921875-.83731343-.2953125-.1477612-.590625-.1477612-.8367187-.1477612h-.7382813v4.18656717h-.590625v-4.72835821h1.2304688c.3445312 0 .8367187 0 1.1320312.19701493.5414063.24626865.8367188.7880597.8367188 1.37910447 0 .73880597-.5414063 1.32985075-1.3289063 1.42835821zm-.6398438-.09850746h.39375l-1.2796875-1.7238806h.0984375c.7382813-.04925373 1.2796875-.59104478 1.2796875-1.32985075 0-.54179104-.2953125-1.03432836-.7875-1.23134328-.2953125-.14776119-.7382812-.14776119-1.0828125-.14776119h-1.0828125v4.48208955h.3445313v-4.18656717h.8859375c.2953125 0 .590625 0 .9351562.19701493.3445313.19701492.5414063.54179104.5414063.93582089 0 .49253732-.2953125.88656717-.7875 1.03432836-.196875.04925373-.4921875.04925373-.7382813.04925373h-.1476562z"/><path d="m52.4671875 5.07313433c-.7875 0-1.378125-.54179105-1.4273437-1.37910448h.4429687c.0492188.54179105.39375.9358209.9351563.9358209.4921875 0 .9351562-.39402985.9351562-.88656717 0-.64029851-.5414062-.83731343-1.0335937-.98507462-.6398438-.19701493-1.18125-.39402986-1.18125-1.23134329 0-.73880597.590625-1.23134328 1.2796875-1.23134328s1.2796875.54179104 1.2796875 1.23134328h-.4429688c0-.44328358-.3445312-.83731343-.7875-.83731343-.4429687 0-.8367187.34477612-.8367187.7880597 0 .59104478.6398437.73880597 1.0828125.83731343.6398437.19701493 1.1320312.59104478 1.1320312 1.32985075 0 .88656716-.6398437 1.42835821-1.378125 1.42835821z"/><path d="m52.4671875 5.17164179c-.8367187 0-1.4765625-.59104478-1.4765625-1.42835821v-.04925373h.590625v.04925373c0 .54179105.3445312.88656717.8859375.88656717.4921875 0 .8367187-.39402985.8367187-.83731344 0-.59104477-.4921875-.7880597-.984375-.93582089-.6398437-.19701493-1.2304687-.44328358-1.2304687-1.28059702 0-.73880597.590625-1.28059701 1.3289062-1.28059701.7382813 0 1.3289063.59104477 1.3289063 1.32985074v.04925374h-.590625v-.04925374c0-.44328358-.3445313-.7880597-.7382813-.7880597-.4429687 0-.7875.29552239-.7875.73880597 0 .49253732.4429688.64029851.8859376.73880597.0492187 0 .0984374.04925373.1476562.04925373.7382813.24626866 1.18125.68955224 1.18125 1.37910448.0492188.7880597-.590625 1.42835821-1.378125 1.42835821zm-1.378125-1.37910448c.0492188.73880597.590625 1.23134329 1.3289063 1.23134329.7382812 0 1.3289062-.54179105 1.3289062-1.28059702 0-.7880597-.590625-1.13283582-1.0828125-1.28059701-.0492187 0-.0984375-.04925373-.1476562-.04925373-.4429688-.1477612-.984375-.29552239-.984375-.88656717 0-.49253731.39375-.88656716.8859375-.88656716.4429687 0 .8367187.34477612.8859375.83731343h.3445312c-.0492187-.64029851-.5414062-1.13283582-1.18125-1.13283582-.6890625 0-1.2304687.49253731-1.2304687 1.18208955 0 .73880597.4921875.9358209 1.1320312 1.13283582.39375.09850747 1.0828125.29552239 1.0828125 1.03432836 0 .54179105-.4429687.98507463-.984375.98507463-.590625 0-.984375-.39402985-1.0335937-.9358209h-.3445313z"/><path d="m57.5367188 5.22089552v-5.02388059h.4432835v5.02388059z"/><path d="m58.078125 5.27014925h-.590625v-5.12238806h.590625zm-.4429687-.09850746h.3445312v-4.92537313h-.3445312z"/><path d="m64.4765625 2.90597015c-.3445312.24626866-.7875.24626866-1.18125.24626866h-.7875v1.82238806h-.4429687v-4.53134329h1.2796875c.39375 0 .8367187.04925373 1.18125.24626866.39375.24626866.590625.64029851.590625 1.08358209-.0492188.49253731-.2460938.88656716-.6398438 1.13283582zm-.39375-1.92089552c-.2460937-.1477612-.4921875-.09850747-.7875-.09850747h-.7875v1.92089553h.7875c.2953125 0 .5414063 0 .7875-.09850747.3445313-.14776119.5414063-.44328358.5414063-.83731343 0-.44328358-.196875-.73880597-.5414063-.88656716z"/><path d="m62.5570313 5.07313433h-.590625v-4.72835821h1.3289062c.4429688 0 .8367188.04925373 1.2304688.29552239.39375.24626865.590625.68955224.590625 1.13283582 0 .49253731-.196875.88656716-.590625 1.13283582-.3445313.24626866-.7875.29552239-1.2304688.29552239h-.7382812zm-.4429688-.09850746h.3445312v-1.82238806h.8859376c.39375 0 .8367187-.04925374 1.1320312-.24626866.3445313-.24626866.5414063-.64029851.5414063-1.03432836 0-.44328358-.196875-.83731343-.5414063-1.03432836-.3445312-.24626865-.7382812-.24626865-1.1320312-.24626865h-1.2304688zm1.2304688-2.16716418h-.9351563v-2.01940299h.9351563c.2460937 0 .4921875 0 .7382812.1477612.3445313.19701492.590625.49253731.590625.88656716s-.196875.73880597-.590625.88656716c-.196875.09850747-.4429687.09850747-.7382812.09850747zm-.7875-.09850747h.7875c.2460937 0 .4921875 0 .6890625-.09850746.3445312-.14776119.4921875-.44328358.4921875-.7880597s-.196875-.64029851-.4921875-.7880597c-.196875-.09850746-.39375-.09850746-.6890625-.09850746h-.7875z"/><path d="m67.921875 5.07313433c-1.2796875 0-2.4117187-1.03432836-2.4117187-2.36417911 0-1.32985074 1.0828124-2.41343283 2.4117187-2.41343283s2.4117188 1.03432836 2.4117188 2.3641791c0 1.37910448-1.0828125 2.41343284-2.4117188 2.41343284zm0-4.33432836c-1.0828125 0-1.96875.88656716-1.96875 1.97014925s.8859375 1.92089553 1.96875 1.92089553 1.96875-.88656717 1.96875-1.97014926c0-1.03432836-.8859375-1.92089552-1.96875-1.92089552z"/><path d="m67.921875 5.17164179c-1.3289062 0-2.4609375-1.08358209-2.4609375-2.41343283 0-1.37910448 1.1320313-2.46268657 2.4609375-2.46268657 1.378125 0 2.5101563 1.08358209 2.5101563 2.41343283 0 1.37910448-1.1320313 2.46268657-2.5101563 2.46268657zm0-4.77761194c-1.2796875 0-2.3625 1.03432836-2.3625 2.31492537 0 1.23134329 1.0828125 2.26567165 2.3625 2.26567165s2.3625-1.03432836 2.3625-2.31492538c0-1.23134328-1.0335937-2.26567164-2.3625-2.26567164zm0 4.33432836c-1.0828125 0-2.0179687-.9358209-2.0179687-2.01940299 0-1.13283582.8859375-2.06865671 2.0179687-2.06865671 1.1320313 0 2.0179688.88656716 2.0179688 2.01940298 0 1.18208955-.8859375 2.06865672-2.0179688 2.06865672zm0-3.89104478c-1.0335937 0-1.9195312.83731344-1.9195312 1.92089553 0 1.03432835.8859375 1.87164179 1.9195312 1.87164179 1.0335938 0 1.9195313-.83731344 1.9195313-1.87164179 0-1.08358209-.8859375-1.92089553-1.9195313-1.92089553z"/><path d="m72.7945313 3.3 1.2796875 1.7238806h-.590625l-1.575-2.06865672c.2953125 0 .6890625 0 .984375-.04925373.4429687-.14776119.7382812-.49253731.7382812-.98507463 0-.34477612-.196875-.68955224-.4921875-.88656716-.2953125-.1477612-.590625-.19701493-.8859375-.19701493h-.7875v4.18656717h-.4429687v-4.58059702h1.18125c.3445312 0 .7875 0 1.1320312.19701493.4921875.24626865.8367188.73880597.8367188 1.32985074 0 .73880597-.590625 1.28059702-1.378125 1.32985075z"/><path d="m74.221875 5.07313433h-.7382812l-1.6242188-2.21641791h.39375c.2460938 0 .4921875 0 .6890625-.04925373.4429688-.1477612.6890625-.49253732.6890625-.9358209 0-.34477612-.196875-.68955224-.4921875-.83731343-.2953125-.1477612-.590625-.1477612-.8859375-.1477612h-.7382812v4.18656717h-.590625v-4.72835821h1.2304687c.3445313 0 .8367188 0 1.1320313.19701493.5414062.24626865.8367187.7880597.8367187 1.37910447 0 .73880597-.5414062 1.32985075-1.3289062 1.42835821zm-.6890625-.09850746h.39375l-1.2796875-1.7238806h.0984375c.7382813-.04925373 1.2796875-.59104478 1.2796875-1.32985075 0-.54179104-.2953125-1.03432836-.7875-1.23134328-.2953125-.14776119-.7382812-.14776119-1.0828125-.14776119h-1.0828125v4.48208955h.3445313v-4.18656717h.8859375c.2953125 0 .590625 0 .9351562.19701493.3445313.19701492.5414063.54179104.5414063.93582089 0 .49253732-.2953125.88656717-.7875 1.03432836-.196875.04925373-.4921875.04925373-.6890625.04925373h-.1476563z"/><path d="m75.9445313.83731343v4.18656717h-.4429688v-4.18656717h-1.0335937v-.39402985h2.559375v.39402985z"/><path d="m76.0429688 5.07313433h-.590625v-4.18656717h-1.0335938v-.54179104h2.7070313v.54179104h-1.0335938zm-.4921875-.09850746h.3445312v-4.18656717h1.0335937v-.29552239h-2.4117187v.29552239h1.0335937z"/><path d="m80.4726562 4.2358209c-.2460937.54179104-.7874999.83731343-1.378125.83731343-.590625 0-1.1320312-.29552239-1.378125-.83731343-.1476562-.29552239-.196875-.64029851-.196875-.9358209v-2.85671642h.4429688v2.85671642c0 .24626866.0492187.59104478.1476562.83731343.196875.39402985.5414063.54179105.9351563.54179105.4429687 0 .7382812-.19701493.9351563-.54179105.1476562-.24626865.1476562-.59104477.1476562-.83731343v-2.85671642h.4429688v2.85671642c.0492187.29552239-.0000001.64029851-.0984376.9358209z"/><path d="m79.0945313 5.17164179c-.6398438 0-1.18125-.34477612-1.4273438-.88656716-.1476563-.34477612-.196875-.73880597-.196875-.98507463v-2.90597015h.590625v2.90597015c0 .14776119 0 .54179104.1476563.7880597.196875.34477612.4921875.54179105.8859375.54179105s.6890625-.19701493.8859375-.54179105c.1476562-.24626866.1476562-.64029851.1476562-.7880597v-2.90597015h.590625v2.90597015c0 .24626866 0 .64029851-.196875.98507463-.2953125.54179104-.7875.88656716-1.4273437.88656716zm-1.5257813-4.67910448v2.80746269c0 .19701493 0 .59104478.1476563.9358209.2460937.54179104.7382812.83731343 1.3289062.83731343s1.0828125-.29552239 1.3289063-.83731343c.1476562-.29552239.1476562-.68955224.1476562-.9358209v-2.80746269h-.2953125v2.80746269c0 .14776119 0 .59104478-.1476562.83731343-.196875.39402985-.5414063.59104478-.984375.59104478-.4429688 0-.7875-.19701493-.984375-.59104478-.1476563-.24626865-.1476563-.68955224-.1476563-.83731343v-2.80746269z"/><path d="m83.8195313 5.07313433c-1.2796875 0-2.4609375-1.03432836-2.4609375-2.36417911 0-1.32985074 1.1320312-2.3641791 2.4609375-2.3641791.6890625 0 1.378125.29552239 1.8703125.83731343.0984375.1477612.2460937.29552239.2953125.44328358h-.5414063c-.3445312-.54179104-.984375-.88656716-1.6242187-.88656716-1.0828125 0-2.0179688.88656716-2.0179688 1.97014925 0 1.13283582.9351563 1.97014926 2.0179688 1.97014926.7875 0 1.6242187-.54179105 1.8703125-1.37910448h-2.559375v-.39402985h3.1007812c-.0984375 1.28059701-1.18125 2.16716418-2.4117187 2.16716418z"/><path d="m83.8195313 5.17164179c-1.3781251 0-2.5101563-1.13283582-2.5101563-2.41343283 0-1.32985075 1.1320313-2.41343284 2.5101563-2.41343284.7382812 0 1.4273437.29552239 1.9195312.88656716.0984375.09850747.2460938.29552239.2953125.49253732l.0492188.09850746h-.6398438v-.04925373c-.2953125-.49253732-.9351562-.83731343-1.575-.83731343-1.0828125 0-1.9195312.83731343-1.9195312 1.92089552 0 1.03432836.8859375 1.87164179 1.96875 1.87164179.7874999 0 1.5257812-.54179105 1.7718749-1.23134328h-2.5593749v-.54179105h3.2484374v.04925373c-.196875 1.18208955-1.2796874 2.16716418-2.5593749 2.16716418zm0-4.77761194c-1.3289063 0-2.4117188 1.03432836-2.4117188 2.31492537 0 1.23134329 1.0828125 2.31492538 2.4117188 2.31492538 1.18125 0 2.2148437-.88656717 2.3625-2.06865672h-2.953125v.29552239h2.559375v.09850746c-.196875.7880597-1.0335938 1.42835821-1.9195313 1.42835821-1.1320312 0-2.0671875-.88656716-2.0671875-2.01940298 0-1.13283583.9351563-2.01940299 2.0671875-2.01940299.6890625 0 1.3289062.34477612 1.6734375.88656716h.39375c-.0492187-.09850746-.1476562-.24626865-.2460937-.34477612-.5414063-.59104477-1.18125-.88656716-1.8703125-.88656716z"/><path d="m90.5132813 5.0238806-.6398438-1.52686567h-2.1164062l-.6890625 1.52686567h-.4921875l1.96875-4.58059702h.4921875l1.96875 4.58059702zm-1.7226563-4.0880597-.8859375 2.11791044h1.771875z"/><path d="m91.1039063 5.07313433h-.6398438v-.04925373l-.6398437-1.52686567h-2.0671876l-.6890625 1.52686567h-.5906249l2.0179687-4.72835821h.590625v.04925373zm-.5414063-.09850746h.3445313l-1.9195313-4.48208956h-.39375l-1.9195313 4.48208956h.3445313l.6890625-1.52686568h2.2148437v.04925374zm-.7875-1.8716418h-1.96875l.984375-2.31492537zm-1.771875-.09850746h1.575l-.7875-1.87164179z"/><path d="m91.5960938 5.0238806v-4.58059702h.4429687v4.18656717h1.8703125v.39402985z"/><path d="m94.0078125 5.07313433h-2.4609375v-4.72835821h.590625v4.18656716h1.8703125zm-2.3625-.09850746h2.2148438v-.29552239h-1.8703125v-4.18656717h-.3445313z"/></g></g></svg>