<svg height="110" viewBox="0 0 230 110" width="230" xmlns="http://www.w3.org/2000/svg"><g fill="none" transform="translate(33 40)"><path d="m138.741606.24h24.89927v27h-24.89927z" fill="#444"/><path d="m138.741606 27.24 8.080292 2.4v-26.76l-8.080292-2.64z" fill="#444"/><path d="m.359124.24h24.89927v27h-24.89927z" fill="#444"/><path d="m17.1781022 2.88v26.76l8.080292-2.4v-27z" fill="#444"/><path d="m17.178102 2.88h129.70365v26.76h-129.70365z" fill="#444"/><g fill="#fff"><g transform="translate(22.744526 9)"><path d="m6.58394161.18h-.53868614l-5.92554744 14.04h2.51386861l.77810219-1.92h5.80583942l.77810219 1.92h2.69343066zm1.6759124 9.9h-3.95036496l1.55620438-3.84c.17956204-.36.29927007-.84.4189781-1.26.11970803.36.29927008.84.41897811 1.2z"/><path d="m27.2934307.18-6.2248176 7.38-6.2846715-7.38h-.5386861v13.98h2.4540146v-7.2c0-.3 0-.72-.059854-1.08.239416.3.4788321.66.7182481.96l3.4116789 4.14h.4788321l3.4116788-4.14c.2394161-.3.5386861-.6.7182482-.9 0 .36-.059854.78-.059854 1.08v7.2h2.4540146v-14.04z"/><path d="m35.9124088.18h-.5386862l-5.9255474 14.04h2.5138686l.7781022-1.92h5.8058394l.7781022 1.92h2.6934306zm1.6759124 9.9h-3.950365l1.5562044-3.84c.179562-.36.2992701-.84.4189781-1.26.119708.36.2992701.84.4189781 1.2z"/><path d="m52.3124088.3v7.62c0 .36 0 .78.059854 1.14-.2394161-.3-.4788321-.6-.7182482-.84l-7.4218978-7.98h-.5985402v13.98h2.3941606v-7.68c0-.36 0-.78-.059854-1.14.2394161.3.5386861.6.7781022.9l7.4218978 8.04h.5985402v-14.04z"/></g><path d="m88.7635036 9.3v7.2h-5.9255474v-7.2h-2.5737226v13.86h2.5737226v-4.32h5.9255474v4.32h2.5737227v-13.86z"/><path d="m96.6642336 20.88v-2.28h5.6262774v-2.28h-5.6262774v-4.68h6.3445254v-2.34h-8.9182481v13.86h9.2175181v-2.28z"/><path d="m11.1328467 9.78-.119708.18c-.8978102 1.32-2.15474454 1.98-3.77080293 1.98-2.57372263 0-4.4890511-1.98-4.4890511-4.74s1.91532847-4.74 4.4890511-4.74c1.55620438 0 2.75328467.6 3.53138683 1.8l.1197081.24 1.9751824-1.44-.119708-.18c-1.1970803-1.86-3.05255474-2.76-5.50656933-2.76-4.070073 0-7.12262774 3.06-7.12262774 7.08 0 4.08 3.05255474 7.08 7.12262774 7.08 2.45401459 0 4.48905113-1.08 5.74598543-2.94l.119708-.18z" transform="translate(104.744526 9)"/><path d="m122.281752 20.88v-2.28h5.626277v-2.28h-5.626277v-4.68h6.344525v-2.34h-8.918248v13.86h9.217518v-2.28z"/><path d="m7.18248175 9.9c1.67591241-.84 2.57372263-2.28 2.57372263-4.38 0-3.3-2.27445256-5.22-5.98540146-5.22h-3.59124088v13.86h2.57372263v-3.42h1.01751825c.35912409 0 .65839416-.06 1.01751825-.06l2.39416058 3.54h2.99270075zm-4.48905109-7.32h.95766423c2.39416058 0 3.47153285.96 3.47153285 2.94s-1.07737227 2.94-3.47153285 2.94h-.95766423z" transform="translate(131.080292 9)"/></g></g></svg>