<svg height="110" viewBox="0 0 230 110" width="230" xmlns="http://www.w3.org/2000/svg"><g fill="#444" fill-rule="evenodd" transform="translate(42 44)"><path d="m.39007634 27.7457143h.16717557c.11145038 0 .16717557 0 .22290076-.0557143s.05572519-.1114286.05572519-.1671429c0-.0557142 0-.1671428-.05572519-.1671428 0-.0557143-.11145038-.0557143-.22290076-.0557143h-.16717557zm-.33435115.9471428v-1.6714285h.50152672c.22290076 0 .39007633.0557143.50152672.1114285.11145038.0557143.16717557.2228572.16717557.39 0 .1671429-.05572519.2785715-.16717557.39-.11145039.1114286-.22290077.1114286-.44580153.1114286h-.22290076v.6128572h-.33435115zm1.2259542 0 .6129771-1.6714285h.39007633l.55725191 1.6714285h-.33435114l-.11145038-.3342857h-.66870229l-.11145039.3342857zm.55725191-.6128571h.50152672l-.22290077-.7242857zm1.56030534-.3342857h.22290076c.11145039 0 .22290077 0 .27862596-.0557143s.05572519-.1114286.05572519-.1671429c0-.1114285 0-.1671428-.05572519-.1671428-.05572519-.0557143-.16717557-.0557143-.27862596-.0557143h-.22290076zm-.33435114.9471428v-1.6714285h.66870229c.16717557 0 .33435114.0557143.44580152.1114285.11145038.0557143.11145038.1671429.11145038.3342858 0 .1114285 0 .2228571-.05572519.2785714s-.11145038.1114286-.22290076.1114286c.11145038 0 .16717557.0557142.22290076.0557142.05572519.0557143.05572519.1114286.05572519.2228572l.0557252.2228571c0 .0557143 0 .1114286.05572519.1671429 0 .0557143.05572519.0557143.05572519.1114286h-.39007634s0-.0557143-.05572519-.0557143c0-.0557143 0-.0557143 0-.1114286v-.2228571c0-.1114286 0-.1671429-.05572519-.1671429 0 0-.05572519-.0557143-.16717557-.0557143h-.27862596v.6685714zm1.33740458 0 .6129771-1.6714285h.39007633l.55725191 1.6714285h-.33435115l-.11145038-.3342857h-.66870229l-.11145038.3342857zm.5572519-.6128571h.50152672l-.22290076-.7242857zm2.56335878.1114286c0 .1671428-.05572519.2785714-.16717557.39-.11145038.1114285-.27862595.1114285-.50152672.1114285-.22290076 0-.44580152-.0557142-.55725191-.2228571-.11145038-.1114286-.16717557-.3342857-.16717557-.6128571 0-.2785715.05572519-.5014286.22290077-.6128572.11145038-.1671428.33435114-.2228571.5572519-.2228571.22290077 0 .33435115.0557143.44580153.1114285.11145038.1114286.16717557.2228572.16717557.39h-.33435114c0-.0557142-.05572519-.1671428-.11145038-.1671428-.05572519-.0557143-.11145039-.0557143-.22290077-.0557143s-.22290076.0557143-.33435114.1671429c-.05572519.1114285-.11145038.2785714-.11145038.4457142 0 .2228572.05572519.3342858.11145038.4457143.05572519.1114286.16717557.1671429.33435114.1671429.11145038 0 .16717558 0 .22290077-.0557143s.11145038-.1114286.11145038-.2228571h.33435114zm.22290077.5014285v-1.6714285h1.11450381v.2785714h-.72442748v.39h.66870229v.2785714h-.66870229v.4457143h.78015267v.2785714zm1.7832061 0v-1.3928571h-.50152671v-.2785714h1.33740458v.2785714h-.50152672v1.3928571zm.83587787 0 .6129771-1.6714285h.3900763l.5572519 1.6714285h-.3343511l-.1114504-.3342857h-.6687023l-.1114504.3342857zm.5572519-.6128571h.5015267l-.2229007-.7242857zm1.2259542.6128571v-1.6714285h.5572519l.3343512 1.17.3343511-1.17h.5572519v1.6714285h-.3343511v-1.3928571l-.4458016 1.3928571h-.3343511l-.3343512-1.3928571v1.3928571zm2.4519084-.8357142c0 .2228571.0557252.3342857.1114504.4457142.0557252.1114286.1671756.1671429.3343511.1671429.1114504 0 .2229008-.0557143.3343512-.1671429.0557252-.1114285.1114504-.2785714.1114504-.4457142 0-.2228572-.0557252-.3342858-.1114504-.4457143-.0557252-.1114286-.1671756-.1671429-.3343512-.1671429-.1114504 0-.2229007.0557143-.3343511.1671429-.1114504.1114285-.1114504.2228571-.1114504.4457143zm-.3900763 0c0-.2785715.0557252-.4457143.2229007-.6128572.1671756-.1671428.3343512-.2228571.5572519-.2228571.2229008 0 .4458016.0557143.5572519.2228571.1671756.1671429.2229008.3342857.2229008.6128572 0 .2785714-.0557252.5014285-.2229008.6128571-.1114503.1671429-.3343511.2228571-.5572519.2228571-.2229007 0-.4458015-.0557142-.5572519-.2228571-.1671755-.1671429-.2229007-.3342857-.2229007-.6128571zm1.8389313.8357142v-1.6714285h.3343511v1.3928571h.7244275v.2785714z" fill-rule="nonzero"/><path d="m.22290076.39h5.57251909v7.29857143c1.11450381-1.33714286 2.78625954-2.00571429 4.45801525-2.00571429 4.2351145 0 7.1885496 3.73285715 7.1885496 8.07857146 0 4.4014285-2.9534351 8.1342857-7.2442748 8.1342857-1.6717557 0-3.39923662-.6685714-4.34656486-2.1728572h-.05572519v1.6714286h-5.57251909zm5.40534351 13.4828571c0 1.95 1.2259542 3.3985715 3.28778626 3.3985715 2.06183207 0 3.28778627-1.5042857 3.28778627-3.3985715 0-1.8942857-1.2259542-3.4542857-3.28778627-3.4542857-2.11755725 0-3.28778626 1.56-3.28778626 3.4542857z"/><path d="m36.2770992 14.7642857h-11.5908397c0 2.1728572 1.170229 3.3985714 3.4549619 3.3985714 1.170229 0 2.0061068-.39 2.6190839-1.3928571h5.2938932c-.8916031 3.5657143-4.3465649 5.2371429-7.9129771 5.2371429-5.1267176 0-8.9717558-2.8414286-8.9717558-8.0785715 0-5.06999997 3.5664123-8.13428569 8.5816794-8.13428569 5.4053435 0 8.5259542 3.28714286 8.5259542 8.46857139zm-5.1267175-3.12c-.278626-1.4485714-1.6160306-2.39571427-3.1206107-2.39571427-1.6160305 0-2.9534351.83571427-3.2877863 2.39571427z"/><path d="m43.7442748 8.19h.0557252c1.2816794-1.83857143 2.8419847-2.45142857 4.959542-2.45142857 4.1793893 0 5.851145 2.56285714 5.851145 6.29571427v9.4157143h-5.5167939v-7.41c0-1.4485714.2229008-4.0114286-2.5076336-4.0114286-2.2290076 0-2.8977099 1.6157143-2.8977099 3.51v7.9114286h-5.5167939v-15.21h5.5167939v1.95z"/><path d="m77.2908397 19.4442857h-.0557252c-1.2816794 1.8385714-2.8419847 2.4514286-4.959542 2.4514286-4.1793893 0-5.851145-2.5628572-5.851145-6.2957143v-9.41571429h5.5167939v7.40999999c0 1.4485714-.2229008 4.0114286 2.5076336 4.0114286 2.2290076 0 2.8977099-1.6157143 2.8977099-3.51v-7.91142859h5.5167939v15.20999999h-5.5167939v-1.95z"/><path d="m64.3068702 11.8671429v4.4571428h-7.6343511v-4.4571428z"/><path d="m92.4480916 11.8671429v4.4571428h-7.6343511v-4.4571428z"/><path d="m99.1908397 8.69142857h.0557252c1.0587791-1.89428571 2.3404581-2.67428571 4.5137401-2.67428571h1.058779v5.68285714c-.780153-.39-1.50458-.5014286-2.340458-.5014286-3.0648855 0-3.2877863 2.0057143-3.2877863 4.6242857v5.6271429h-5.5167939v-15.21h5.5167939z"/><path d="m123.542748 13.8728571c0 5.1814286-4.179389 8.0785715-8.971756 8.0785715-4.792366 0-8.971755-2.8971429-8.971755-8.0785715 0-5.18142853 4.179389-8.13428567 8.971755-8.13428567 4.792367 0 8.971756 2.89714286 8.971756 8.13428567zm-12.370992 0c0 1.95 1.225954 3.3985715 3.399236 3.3985715 2.173283 0 3.399237-1.5042857 3.399237-3.3985715 0-1.8942857-1.225954-3.4542857-3.399237-3.4542857-2.173282 0-3.399236 1.56-3.399236 3.4542857z"/><path d="m130.341221 8.19h.055726c1.281679-1.83857143 2.841984-2.45142857 4.959542-2.45142857 4.179389 0 5.851145 2.56285714 5.851145 6.29571427v9.4157143h-5.516794v-7.41c0-1.4485714.2229-4.0114286-2.507634-4.0114286-2.229008 0-2.89771 1.6157143-2.89771 3.51v7.9114286h-5.516794v-15.21h5.516794v1.95z"/><path d="m142.99084 4.84714286v-.66857143h.390076c.222901 0 .501527 0 .501527.27857143s-.167176.33428571-.390077.33428571h-.501526zm0 .44571428h.278626l.612977 1.11428572h.668702l-.668702-1.17c.334351 0 .668702-.22285715.668702-.72428572 0-.61285714-.390076-.83571428-1.114504-.83571428h-1.003053v2.73h.557252zm2.953435-.22285714c0-1.61571429-1.170229-2.50714286-2.507634-2.50714286-1.337404 0-2.507633.94714286-2.507633 2.50714286 0 1.61571429 1.170229 2.50714286 2.507633 2.50714286 1.337405 0 2.507634-.89142857 2.507634-2.50714286h-.724428c0 1.17-.835878 1.95-1.783206 1.95-1.003053 0-1.783206-.78-1.783206-1.95s.780153-1.95 1.783206-1.95c.947328 0 1.783206.78 1.783206 1.95z"/><g fill-rule="nonzero"><path d="m.05572519 25.6285714h.16717557c0 .1114286 0 .1671429.05572519.2228572.0557252.0557143.11145039.0557143.16717558.0557143.11145038 0 .16717557-.0557143.22290076-.1114286s.05572519-.1671429.05572519-.2785714c0-.1114286 0-.2228572-.05572519-.2785715s-.11145038-.1114285-.22290076-.1114285c-.05572519 0-.11145038 0-.16717558.0557142-.05572519 0-.05572519.0557143-.11145038.1114286h-.16717557l.11145038-.8914286h.72442748v.1671429h-.55725191v.5014286c0-.0557143.0557252-.0557143.11145039-.1114286.05572519 0 .11145038-.0557143.16717557-.0557143.11145038 0 .22290076.0557143.33435114.1671429.05572519.1114285.11145039.2228571.11145039.39 0 .1671428-.0557252.3342857-.11145039.4457143-.05572519.1114285-.22290076.1671428-.33435114.1671428-.16717557 0-.22290076-.0557143-.33435115-.1114286-.11145038-.0557142-.16717557-.1671428-.16717557-.3342857zm1.33740458-.39c0 .2785715 0 .4457143.05572519.5571429s.11145038.1671428.22290077.1671428c.11145038 0 .16717557-.0557142.22290076-.1114285.05572519-.1114286.05572519-.2785715.05572519-.5571429s0-.4457143-.05572519-.5571428c-.05572519-.1114286-.11145038-.1671429-.22290076-.1671429-.11145039 0-.16717558.0557143-.22290077.1114286-.05572519.1114285-.05572519.2785714-.05572519.5571428zm-.22290076 0c0-.3342857.05572519-.5571428.11145038-.6685714s.16717557-.1671429.33435114-.1671429c.0557252 0 .16717558 0 .22290077.0557143s.11145038.1114286.16717557.1671429.05572519.1114286.05572519.2228571v.39c0 .3342857-.05572519.5571429-.11145038.6685715-.05572519.1114285-.16717557.2228571-.33435115.2228571-.16717557 0-.27862595-.0557143-.33435114-.1671429-.05572519-.1671428-.11145038-.39-.11145038-.7242857zm1.33740458 0c0 .2785715 0 .4457143.05572519.5571429s.11145038.1671428.22290076.1671428.16717557-.0557142.22290077-.1114285c.05572519-.1114286.05572519-.2785715.05572519-.5571429s0-.4457143-.05572519-.5571428c-.0557252-.1114286-.11145039-.1671429-.22290077-.1671429s-.16717557.0557143-.22290076.1114286c-.05572519.1114285-.05572519.2785714-.05572519.5571428zm-.22290077 0c0-.3342857.0557252-.5571428.11145039-.6685714s.16717557-.1671429.33435114-.1671429c.05572519 0 .16717557 0 .22290076.0557143.0557252.0557143.11145039.1114286.16717558.1671429s.05572519.1114286.05572519.2228571v.39c0 .3342857-.05572519.5571429-.11145038.6685715-.05572519.1114285-.16717558.2228571-.33435115.2228571s-.27862595-.0557143-.33435114-.1671429c-.05572519-.1671428-.11145039-.39-.11145039-.7242857zm1.72748092.8357143v-1.2814286h.16717557v.1671429c.05572519-.0557143.05572519-.1114286.11145038-.1114286.0557252-.0557143.11145039-.0557143.22290077-.0557143.05572519 0 .11145038 0 .16717557.0557143s.05572519.0557143.11145038.1114286c.05572519-.0557143.05572519-.1114286.11145038-.1114286.05572519-.0557143.11145039-.0557143.16717558-.0557143.11145038 0 .16717557 0 .22290076.0557143s.05572519.1114286.05572519.2228572v1.0028571h-.16717557v-.8914286c0-.1114285 0-.1671428-.05572519-.2228571 0-.0557143-.05572519-.0557143-.11145038-.0557143-.0557252 0-.11145039 0-.16717558.0557143s-.05572519.1114286-.05572519.1671429v.8914285h-.16717557v-.8914285c0-.1114286 0-.1671429-.05572519-.2228572s-.05572519-.0557143-.16717557-.0557143c-.05572519 0-.11145039 0-.16717558.0557143s-.05572519.1114286-.05572519.1671429v.8914285h-.16717557zm1.8389313-.6128571c0 .1671428 0 .2785714.05572519.39.05572519.0557143.11145038.1114285.16717557.1114285.11145038 0 .16717557-.0557142.16717557-.1114285.05572519-.0557143.05572519-.2228572.05572519-.39 0-.1671429 0-.2785715-.05572519-.39-.05572519-.0557143-.11145038-.1114286-.16717557-.1114286s-.16717557.0557143-.16717557.1114286c-.05572519.0557143-.05572519.1671428-.05572519.39zm-.16717557.7242857h.16717557c0 .0557143 0 .1114286.05572519.1114286s.11145038.0557142.16717557.0557142c.11145038 0 .16717557-.0557142.16717557-.1114285.05572519-.0557143.05572519-.1671429.05572519-.2785715v-.0557142c0 .0557142-.05572519.1114285-.11145038.1114285-.05572519.0557143-.11145038.0557143-.16717557.0557143-.11145038 0-.22290076-.0557143-.27862595-.1671428-.05572519-.1114286-.11145039-.2785715-.11145039-.5014286 0-.2228572.0557252-.39.11145039-.4457143.05572519-.1114286.16717557-.1671429.27862595-.1671429.05572519 0 .11145038 0 .16717557.0557143s.05572519.0557143.11145038.1114286v-.1671429h.16717558v1.2257143c0 .1671429-.05572519.2785715-.11145038.3342857-.0557252.1114286-.16717558.1114286-.33435115.1114286-.11145038 0-.22290076-.0557143-.27862595-.1114286 0 0-.05572519-.0557142-.05572519-.1671428zm2.95343511-.5571429h.16717557c0 .1671429-.05572519.2785715-.11145038.3342857-.05572519.0557143-.16717557.1114286-.27862595.1114286-.16717558 0-.22290077-.0557143-.33435115-.1671428-.05572519-.1114286-.11145038-.2785715-.11145038-.5014286 0-.2228572.05572519-.39.11145038-.5014286s.16717557-.1671428.33435115-.1671428c.11145038 0 .22290076.0557142.27862595.1114285s.11145038.1671429.11145038.2785715h-.16717557c0-.1114286 0-.1671429-.05572519-.2228572s-.05572519-.0557143-.16717557-.0557143-.16717558.0557143-.16717558.1114286c-.05572519.0557143-.05572519.2228571-.05572519.39s0 .3342857.05572519.39c.0557252.0557143.11145039.1114286.16717558.1114286s.11145038 0 .16717557-.0557143c0 0 .05572519-.0557143.05572519-.1671429zm.39007634-.1671428c0-.2228572.05572519-.39.11145038-.5014286s.16717557-.1671429.33435114-.1671429c.16717558 0 .27862596.0557143.33435115.1671429s.11145038.2785714.11145038.5014286c0 .2228571-.05572519.39-.11145038.5014285-.05572519.1114286-.16717557.1671429-.33435115.1671429-.16717557 0-.27862595-.0557143-.33435114-.1671429-.11145038-.1114285-.11145038-.2785714-.11145038-.5014285zm.16717557 0c0 .1671428 0 .3342857.05572519.39s.11145038.1114285.22290076.1114285.16717558-.0557142.16717558-.1114285c.05572519-.0557143.05572519-.2228572.05572519-.39 0-.1671429 0-.3342857-.05572519-.39-.0557252-.0557143-.11145039-.1114286-.16717558-.1114286-.11145038 0-.16717557.0557143-.22290076.1114286s-.05572519.1671428-.05572519.39zm.94732821.6128571v-1.2814286h.1671756v.1671429c.0557252-.0557143.0557252-.1114286.1114504-.1114286.0557252-.0557143.1114504-.0557143.2229008-.0557143.0557251 0 .1114503 0 .1671755.0557143s.0557252.0557143.1114504.1114286c.0557252-.0557143.0557252-.1114286.1114504-.1114286.0557252-.0557143.1114504-.0557143.1671756-.0557143.1114503 0 .1671755 0 .2229007.0557143s.0557252.1114286.0557252.2228572v1.0028571h-.1671756v-.8914286c0-.1114285 0-.1671428-.0557252-.2228571 0-.0557143-.0557251-.0557143-.1114503-.0557143s-.1114504 0-.1671756.0557143-.0557252.1114286-.0557252.1671429v.8914285h-.1671756v-.8914285c0-.1114286 0-.1671429-.0557252-.2228572-.0557251-.0557143-.0557251-.0557143-.1671755-.0557143-.0557252 0-.1114504 0-.1671756.0557143s-.0557252.1114286-.0557252.1671429v.8914285h-.1671756zm1.8389313-.6128571c0 .1671428 0 .2785714.0557252.39.0557252.0557143.1114504.1114285.1671756.1114285s.1114504-.0557142.1671756-.1114285.0557252-.2228572.0557252-.39c0-.1671429 0-.2785715-.0557252-.39-.0557252-.0557143-.1114504-.1114286-.1671756-.1114286-.1114504 0-.1671756.0557143-.1671756.1114286-.0557252.0557143-.0557252.1671428-.0557252.39zm-.1671755 1.0585714v-1.6714286h.1671755v.1671429c0-.0557143.0557252-.1114286.1114504-.1114286.0557252-.0557143.1114504-.0557143.1671756-.0557143.1114504 0 .2229007.0557143.2786259.1671429s.1114504.2785714.1114504.5014286c0 .2228571-.0557252.39-.1114504.5014285-.0557252.1114286-.1671755.1671429-.2786259.1671429-.0557252 0-.1114504 0-.1671756-.0557143s-.1114504-.0557143-.1114504-.1114286v.5571429h-.1671755zm1.0587786-.4457143v-1.2814286h.1671756v.2228572c0-.0557143.0557251-.1114286.1114503-.1671429s.1114504-.0557143.1671756-.0557143h.0557252.0557252v.1671429s0 0-.0557252 0c0 0 0 0-.0557252 0-.1114504 0-.1671756.0557143-.2229008.1114286-.0557251.0557143-.0557251.1671428-.0557251.2785714v.78h-.1671756zm.6687023-1.4485714v-.2228572h.1671755v.2228572zm0 1.4485714v-1.2814286h.1671755v1.2814286zm.4458015 0v-1.2814286h.1671756v.1671429c.0557252-.0557143.0557252-.1114286.1114504-.1114286.0557251-.0557143.1114503-.0557143.2229007-.0557143.0557252 0 .1114504 0 .1671756.0557143s.0557252.0557143.1114504.1114286c.0557252-.0557143.0557252-.1114286.1114504-.1114286.0557251-.0557143.1114503-.0557143.1671755-.0557143.1114504 0 .1671756 0 .2229008.0557143s.0557252.1114286.0557252.2228572v1.0028571h-.1671756v-.8914286c0-.1114285 0-.1671428-.0557252-.2228571 0-.0557143-.0557252-.0557143-.1114504-.0557143s-.1114503 0-.1671755.0557143-.0557252.1114286-.0557252.1671429v.8914285h-.1671756v-.8914285c0-.1114286 0-.1671429-.0557252-.2228572s-.0557252-.0557143-.1671756-.0557143c-.0557252 0-.1114503 0-.1671755.0557143s-.0557252.1114286-.0557252.1671429v.8914285h-.1671756zm1.6717557-1.4485714v-.2228572h.1671756v.2228572zm0 1.4485714v-1.2814286h.1671756v1.2814286zm1.0587787-.6685714c0-.1671429 0-.3342857-.0557252-.39s-.1114504-.1114286-.1671756-.1114286-.1671756.0557143-.1671756.1114286c-.0557252.0557143-.0557252.2228571-.0557252.39 0 .1671428 0 .3342857.0557252.39s.1114504.1114286.1671756.1114286c.1114504 0 .1671756-.0557143.1671756-.1114286.0557252-.0557143.0557252-.1671429.0557252-.39zm.1671755.6685714h-.1671755v-.1671428c0 .0557142-.0557252.1114285-.1114504.1114285-.0557252.0557143-.1114504.0557143-.1671756.0557143-.1114504 0-.2229008-.0557143-.278626-.1671428-.0557251-.1114286-.1114503-.2785715-.1114503-.5014286 0-.2228572.0557252-.3342857.1114503-.4457143.0557252-.1114286.1671756-.1671429.278626-.1671429.0557252 0 .1114504 0 .1671756.0557143s.0557252.0557143.1114504.1114286v-.5571429h.1671755zm.2229008-.6128571c0-.2228572.0557252-.39.1114504-.5014286s.1671755-.1671429.3343511-.1671429.278626.0557143.3343512.1671429.1114503.2785714.1114503.5014286c0 .2228571-.0557251.39-.1114503.5014285-.0557252.1114286-.1671756.1671429-.3343512.1671429s-.2786259-.0557143-.3343511-.1671429c-.0557252-.1114285-.1114504-.2785714-.1114504-.5014285zm.2229008 0c0 .1671428 0 .3342857.0557251.39.0557252.0557143.1114504.1114285.2229008.1114285s.1671756-.0557142.1671756-.1114285c.0557252-.0557143.0557252-.2228572.0557252-.39 0-.1671429 0-.3342857-.0557252-.39s-.1114504-.1114286-.1671756-.1114286c-.1114504 0-.1671756.0557143-.2229008.1114286-.0557251.0557143-.0557251.1671428-.0557251.39zm.891603.2228571h.1671756v.0557143c0 .0557143 0 .1114286.0557252.1671429.0557252.0557142.1114503.0557142.1671755.0557142s.1114504 0 .1671756-.0557142c.0557252-.0557143.0557252-.1114286.0557252-.1671429 0-.1114286-.0557252-.1671429-.2229008-.2228571-.1671755-.0557143-.2786259-.1114286-.2786259-.1671429-.0557252-.0557143-.0557252-.1114286-.0557252-.2228571 0-.1114286.0557252-.2228572.1114504-.2785715s.1671755-.1114285.2786259-.1114285.2229008.0557142.278626.1114285.1114504.1671429.1114504.2785715h-.1671756c0-.0557143 0-.1114286-.0557252-.1671429s-.0557252-.0557143-.1671756-.0557143c-.0557252 0-.1114504 0-.1671755.0557143-.1114504.0557143-.1114504.1114286-.1114504.1671429v.0557142s0 .0557143.0557252.0557143.1114503.0557143.1671755.1114286c.0557252 0 .1114504.0557143.1114504.0557143.1114504.0557143.1671756.0557143.1671756.1114286.0557252.0557142.0557252.1114285.0557252.2228571s-.0557252.2228571-.1114504.2785714-.1671756.1114286-.3343511.1114286c-.1114504 0-.2229008-.0557143-.278626-.1114286 0-.0557143 0-.1671428 0-.3342857z"/><g transform="translate(70.770992 26.185714)"><path d="m5.85114504 2.22857143v.66857143h-4.73664122v2.89714285h4.45801526v.66857143h-4.45801526v3.12h4.79236641v.66857146h-5.57251908v-8.02285717zm-3.62213741-.61285714 1.17022901-1.56h.89160305l-1.44885496 1.56z"/><path d="m10.5877863 4.45714286v1.11428571c.1671755-.39.4458015-.72428571.7801526-.94714286.3900764-.22285714.7801527-.33428571 1.2816794-.33428571.4458015 0 .8358779.05571429 1.170229.22285714.3343512.16714286.6129771.39.8358779.66857143s.3900763.61285714.5015267.94714286c.1114504.39.1671756.78.1671756 1.17s-.0557252.78-.1671756 1.17-.2786259.66857143-.5015267.94714286c-.2229008.27857142-.5015267.50142857-.8358779.66857141-.3343511.1671429-.7244275.2228572-1.170229.2228572-.2229007 0-.3900763 0-.6129771-.0557143-.2229007-.0557143-.3900763-.1114286-.5572519-.2228572-.1671756-.11142854-.3343511-.22285711-.5015267-.38999997-.1114504-.16714286-.2229008-.33428572-.3343511-.55714286v3.23142853h-.72442753v-7.85571424zm3.8450381 2.00571428c-.0557252-.27857143-.1671755-.55714285-.3343511-.78-.1671756-.22285714-.3343512-.44571428-.6129771-.55714285-.2229008-.16714286-.5015267-.22285715-.8358779-.22285715-.3900763 0-.7244275.05571429-.9473282.22285715-.278626.11142857-.4458016.33428571-.6129771.55714285-.1671756.22285715-.278626.50142857-.3343512.78s-.1114503.61285715-.1114503.94714286c0 .27857143.0557251.61285714.1114503.89142857s.1671756.55714286.3343512.78c.1671755.22285714.3900763.44571429.6129771.55714286.2229007.11142857.5572519.22285714.9473282.22285714.3343512 0 .6129771-.05571428.8358779-.22285714.2229007-.16714286.4458015-.33428572.6129771-.55714286s.2786259-.50142857.3343511-.78.1114504-.61285714.1114504-.89142857c0-.39 0-.66857143-.1114504-.94714286z"/><path d="m16.4946565 5.34857143c.1114504-.22285714.2786259-.44571429.5015267-.61285714.2229008-.16714286.4458015-.27857143.7244275-.33428572.2786259-.05571428.5572519-.11142857.891603-.11142857.278626 0 .5015268 0 .7801527.05571429.278626.05571428.5015267.16714285.6687023.27857142.2229008.11142858.3900763.33428572.5015267.55714286s.1671756.55714286.1671756.94714286v3.06428571c0 .27857143.1114504.44571429.3900763.44571429.0557252 0 .1671756 0 .2229008-.05571429v.61285716c-.0557252 0-.1671756 0-.2229008.0557143-.0557252 0-.1671755 0-.2229007 0-.1671756 0-.3343512 0-.4458016-.0557143-.1114503-.0557143-.1671755-.1114286-.2786259-.22285716-.0557252-.11142857-.1114504-.22285714-.1114504-.33428571s-.0557252-.27857143-.0557252-.39c-.1114504.16714286-.2786259.33428571-.3900763.50142857s-.278626.2785714-.4458016.39c-.1671755.1114286-.3343511.1671429-.5572519.2228571-.2229007.0557143-.4458015.0557143-.7244274.0557143-.278626 0-.5015268-.0557143-.7801527-.1114285-.2229008-.0557143-.4458015-.1671429-.6129771-.2785715-.1671756-.11142854-.3343512-.33428569-.3900763-.50142854-.0557252-.16714286-.1671756-.44571429-.1671756-.78 0-.39.1114504-.72428572.2786259-.94714286.1671756-.22285714.3900764-.39.7244275-.50142857.278626-.11142857.6129771-.22285714 1.0030535-.27857143.3900763-.05571429.7244274-.11142857 1.1145038-.16714286.1671755 0 .2786259-.05571428.3900763-.05571428s.2229008-.05571429.278626-.11142857c.0557251-.05571429.1114503-.11142858.1671755-.22285715s.0557252-.22285714.0557252-.39c0-.22285714-.0557252-.44571428-.1114504-.61285714s-.1671755-.27857143-.3343511-.39c-.1114504-.11142857-.278626-.16714286-.5015267-.16714286-.1671756-.05571428-.3900764-.05571428-.6129771-.05571428-.4458015 0-.8358779.11142857-1.1145038.33428571-.278626.22285714-.4458016.55714286-.4458016 1.00285714h-.7244274c.2229007-.33428571.2786259-.61285714.3900763-.83571428zm3.510687 1.72714286c-.0557252.05571428-.1114504.16714285-.2786259.16714285-.1114504.05571429-.2229008.05571429-.3343512.05571429-.2786259.05571428-.6129771.11142857-.9473282.16714286-.3343512.05571428-.6129771.11142857-.8916031.16714285-.2786259.05571429-.5015267.22285715-.6687023.33428572-.1671755.16714285-.2786259.39-.2786259.66857143 0 .16714285.0557252.33428571.1114504.50142857.0557251.11142857.1671755.27857143.2786259.33428571.1114504.11142857.278626.16714286.3900763.22285714.1671756.05571429.3343512.05571429.5015268.05571429.2786259 0 .5015267-.05571429.7801526-.11142857.2229008-.05571429.4458016-.22285714.6687023-.33428572.1671756-.16714285.3343512-.33428571.4458015-.55714285.1114504-.22285715.1671756-.50142857.1671756-.78z"/><path d="m22.7916031 4.45714286v1.33714285c.1671755-.44571428.4458015-.83571428.8358778-1.05857142.3900764-.27857143.8358779-.39 1.3374046-.33428572v.72428572c-.3343511 0-.6129771 0-.8916031.11142857-.2786259.11142857-.5015267.22285714-.6687022.44571428-.1671756.16714286-.3343512.39-.4458016.66857143s-.1671755.55714286-.1671755.83571429v3.06428574h-.7244275v-5.79428574z"/><path d="m25.8007634 5.34857143c.1114503-.22285714.2786259-.44571429.5015267-.61285714.2229007-.16714286.4458015-.27857143.7244275-.33428572.2786259-.05571428.5572519-.11142857.891603-.11142857.278626 0 .5015267 0 .7801527.05571429.2786259.05571428.5015267.16714285.6687023.27857142.2229007.11142858.3900763.33428572.5015267.55714286s.1671756.55714286.1671756.94714286v3.06428571c0 .27857143.1114503.44571429.3900763.44571429.0557252 0 .1671756 0 .2229008-.05571429v.61285716c-.0557252 0-.1671756 0-.2229008.0557143-.0557252 0-.1671756 0-.2229008 0-.1671755 0-.3343511 0-.4458015-.0557143s-.1671756-.1114286-.2786259-.22285716c-.0557252-.11142857-.1114504-.22285714-.1114504-.33428571s-.0557252-.27857143-.0557252-.39c-.1114504.16714286-.278626.33428571-.3900764.50142857-.1114503.16714286-.2786259.2785714-.4458015.39s-.3343511.1671429-.5572519.2228571c-.2229008.0557143-.4458015.0557143-.7244275.0557143-.2786259 0-.5015267-.0557143-.7801526-.1114285-.2229008-.0557143-.4458016-.1671429-.6129771-.2785715-.1671756-.11142854-.3343512-.33428569-.3900764-.50142854-.0557252-.16714286-.1671755-.44571429-.1671755-.78 0-.39.1114503-.72428572.2786259-.94714286s.3900763-.39.7244275-.50142857c.2786259-.11142857.6129771-.22285714 1.0030534-.27857143.3900764-.05571429.7244275-.11142857 1.1145038-.16714286.1671756 0 .278626-.05571428.3900764-.05571428s.2229007-.05571429.2786259-.11142857c.0557252-.05571429.1114504-.11142858.1671756-.22285715s.0557252-.22285714.0557252-.39c0-.22285714-.0557252-.44571428-.1114504-.61285714s-.1671756-.27857143-.3343511-.39c-.1114504-.11142857-.278626-.16714286-.5015268-.16714286-.1671755-.05571428-.3900763-.05571428-.6129771-.05571428-.4458015 0-.8358778.11142857-1.1145038.33428571-.2786259.22285714-.4458015.55714286-.4458015 1.00285714h-.7244275c.2229008-.33428571.278626-.61285714.3900764-.83571428zm3.510687 1.72714286c-.0557252.05571428-.1114504.16714285-.278626.16714285-.1114504.05571429-.2229007.05571429-.3343511.05571429-.278626.05571428-.6129771.11142857-.9473283.16714286-.3343511.05571428-.6129771.11142857-.891603.16714285-.278626.05571429-.5015267.22285715-.6687023.33428572-.1671756.16714285-.278626.39-.278626.66857143 0 .16714285.0557252.33428571.1114504.50142857.0557252.11142857.1671756.27857143.278626.33428571.1114504.11142857.2786259.16714286.3900763.22285714.1671756.05571429.3343512.05571429.5015267.05571429.278626 0 .5015267-.05571429.7801527-.11142857.2229008-.05571429.4458015-.22285714.6687023-.33428572.1671756-.16714285.3343511-.33428571.4458015-.55714285.1114504-.22285715.1671756-.50142857.1671756-.78z"/><path d="m37.8374046 5.57142857c-.0557252-.16714286-.1671756-.27857143-.3343512-.39-.1114503-.11142857-.2786259-.16714286-.5015267-.22285714-.1671756-.05571429-.3900763-.05571429-.5572519-.05571429s-.3343511 0-.5015267.05571429c-.1671756.05571428-.3343512.11142857-.4458015.16714286-.1114504.05571428-.2229008.16714285-.3343512.33428571-.0557252.11142857-.1114504.27857143-.1114504.44571429 0 .16714285.0557252.27857142.1114504.39.0557252.11142857.1671756.22285714.278626.27857142.1114504.05571429.2229007.11142858.3900763.16714286.1671756.05571429.278626.11142857.3900763.11142857l.9473283.22285715c.2229008.05571428.3900763.11142857.6129771.16714285.2229008.05571429.3900763.16714286.5015267.33428572.1671756.11142857.278626.27857143.3900763.44571428.1114504.16714286.1671756.39.1671756.66857143 0 .33428572-.0557252.55714286-.2229007.78-.1671756.22285714-.3343512.39-.557252.55714283-.2229007.1114286-.4458015.2228572-.7244274.2785715-.278626.0557142-.5572519.1114285-.8358779.1114285-.6687023 0-1.2259542-.1671428-1.6717557-.50142854-.4458016-.33428572-.6687023-.83571429-.7244275-1.56h.7244275c.0557252.50142857.2229007.83571428.5015267 1.05857143.3343511.22285714.7244275.39 1.170229.39.1671756 0 .3343511 0 .5572519-.05571429.1671756-.05571429.3343512-.11142857.5015267-.16714286.1671756-.11142857.278626-.22285714.3900764-.33428571.1114503-.11142857.1671755-.33428572.1671755-.50142857 0-.16714286-.0557252-.33428572-.1114503-.44571429-.0557252-.11142857-.1671756-.22285714-.278626-.27857143-.1114504-.05571428-.278626-.16714285-.3900763-.22285714-.1671756-.05571429-.3343512-.11142857-.4458016-.11142857l-.891603-.22285714c-.2229008-.05571429-.4458015-.11142858-.6129771-.22285715-.1671756-.05571428-.3900764-.16714285-.5015267-.27857143-.1671756-.11142857-.278626-.27857142-.3343512-.44571428s-.1114504-.39-.1114504-.61285714c0-.27857143.0557252-.55714286.2229008-.72428572.1114504-.22285714.278626-.39.5015267-.50142857.2229008-.11142857.4458015-.22285714.7244275-.27857143.278626-.05571428.5015267-.11142857.7801527-.11142857.2786259 0 .5572519.05571429.8358778.11142857.2229008.05571429.4458016.16714286.6687023.33428572.1671756.16714285.3343512.33428571.4458016.55714285.1114503.22285715.1671755.50142857.1671755.83571429h-.7244275c-.0557251-.22285714-.1114503-.39-.2229007-.55714286z"/><path d="m40.4564885 8.30142857c.0557252.27857143.1671756.50142857.3343512.72428572.1671756.22285714.3343511.39.6129771.55714285.2229008.16714286.5015267.22285715.8358779.22285715.5015267 0 .891603-.11142858 1.2259542-.39.2786259-.27857143.5015267-.61285715.6129771-1.05857143h.7244274c-.1671755.66857143-.4458015 1.17-.8358778 1.50428571-.3900764.33428573-.9473283.55714283-1.6717558.55714283-.4458015 0-.8358778-.0557143-1.170229-.2228571-.3343511-.1671429-.6129771-.39000001-.8358778-.66857144-.2229008-.27857143-.3900764-.61285715-.4458015-.94714286-.1114504-.39-.1671756-.78-.1671756-1.17s.0557252-.72428571.1671756-1.11428571c.1114503-.39.2786259-.66857143.4458015-1.00285715.2229007-.27857143.5015267-.50142857.8358778-.66857143.3343512-.16714285.7244275-.27857142 1.170229-.27857142.4458016 0 .8358779.11142857 1.1702291.27857142.3343511.16714286.6129771.44571429.7801526.72428572.2229008.27857143.3343512.66857143.4458016 1.05857143.1114503.39.1114503.78.1114503 1.17h-4.40229c-.0557252.16714285-.0557252.44571428.0557251.72428571zm3.4549619-2.17285714c-.1114504-.22285714-.2229008-.44571429-.3900764-.66857143-.1671755-.16714286-.3343511-.33428571-.5572519-.44571429-.2229007-.11142857-.5015267-.16714285-.7801526-.16714285-.278626 0-.5572519.05571428-.7801527.16714285-.2229008.11142858-.3900763.27857143-.5572519.44571429s-.278626.39-.3900764.66857143c-.1114503.22285714-.1671755.50142857-.1671755.78h3.7335878c0-.27857143 0-.50142857-.1114504-.78z"/><path d="m46.3633588 4.45714286v.94714285h.0557252c.1671755-.33428571.4458015-.61285714.7244275-.83571428.2786259-.22285714.6687022-.27857143 1.170229-.27857143.3900763 0 .7244274.11142857 1.0587786.27857143.3343511.16714286.5015267.44571428.6129771.83571428.1671756-.39.4458015-.66857142.7801527-.83571428.3343511-.16714286.6687022-.27857143 1.0587786-.27857143 1.2816794 0 1.8946565.66857143 1.8946565 2.00571429v3.90000001h-.7801527v-3.84428573c0-.50142857-.1114504-.83571428-.278626-1.11428571-.2229007-.22285715-.5572519-.39-1.0587786-.39-.2786259 0-.5572519.05571428-.7801527.16714285-.2229007.11142858-.3343511.27857143-.5015267.44571429-.1114504.16714286-.2229007.39-.2786259.66857143-.0557252.22285714-.0557252.50142857-.0557252.78v3.23142857h-.7244275v-3.9c0-.16714286 0-.39-.0557252-.55714286-.0557252-.16714285-.1114504-.33428571-.2229008-.44571428-.1114503-.11142857-.2229007-.22285715-.3900763-.33428572-.1671756-.05571428-.3343511-.11142857-.5572519-.11142857-.278626 0-.5572519.05571429-.7801527.16714286-.2229007.11142857-.3900763.27857143-.5572519.44571428-.1114504.16714286-.2229007.39-.3343511.66857143-.0557252.27857143-.1114504.55714286-.1114504.83571429v3.23142857h-.5572519v-5.68285714z"/><path d="m55.6694656 4.45714286v1.11428571c.1671756-.39.4458016-.72428571.7801527-.94714286.3900764-.22285714.7801527-.33428571 1.2816794-.33428571.4458015 0 .8358779.05571429 1.170229.22285714.3343512.16714286.6129771.39.8358779.66857143.2229007.27857143.3900763.61285714.5015267.94714286.1114504.39.1671756.78.1671756 1.17s-.0557252.78-.1671756 1.17-.278626.66857143-.5015267.94714286c-.2229008.27857142-.5015267.50142857-.8358779.66857141-.3343511.1671429-.7244275.2228572-1.170229.2228572-.2229008 0-.3900763 0-.6129771-.0557143s-.3900763-.1114286-.5572519-.2228572c-.1671756-.11142854-.3343511-.22285711-.5015267-.38999997-.1114504-.16714286-.2229008-.33428572-.3343512-.55714286v3.23142853h-.7244274v-7.85571424zm3.8450382 2.00571428c-.0557252-.27857143-.1671756-.55714285-.3343511-.78-.1671756-.22285714-.3343512-.44571428-.6129771-.55714285-.2229008-.16714286-.5015267-.22285715-.8358779-.22285715-.3900763 0-.7244275.05571429-.9473282.22285715-.278626.11142857-.4458016.33428571-.6129771.55714285-.1671756.22285715-.278626.50142857-.3343512.78s-.1114504.61285715-.1114504.94714286c0 .27857143.0557252.61285714.1114504.89142857s.1671756.55714286.3343512.78c.1671755.22285714.3900763.44571429.6129771.55714286.2786259.16714286.5572519.22285714.9473282.22285714.3343512 0 .6129771-.05571428.8358779-.22285714.2229007-.16714286.4458015-.33428572.6129771-.55714286.1671755-.22285714.2786259-.50142857.3343511-.78s.1114504-.61285714.1114504-.89142857c0-.39-.0557252-.66857143-.1114504-.94714286z"/><path d="m62.0221374 4.45714286v1.33714285c.1671756-.44571428.4458015-.83571428.8358779-1.05857142.3900763-.27857143.8358778-.39 1.3374045-.33428572v.72428572c-.3343511 0-.6129771 0-.891603.11142857-.278626.11142857-.5015267.22285714-.6687023.44571428-.1671756.16714286-.3343511.39-.4458015.66857143s-.1671756.55714286-.1671756.83571429v3.06428574h-.7244275v-5.79428574z"/><path d="m65.2541985 8.30142857c.0557252.27857143.1671755.50142857.3343511.72428572.1671756.22285714.3343512.39.6129771.55714285.2229008.16714286.5015267.22285715.8358779.22285715.5015267 0 .891603-.11142858 1.2259542-.39.2786259-.27857143.5015267-.61285715.6129771-1.05857143h.7244275c-.1671756.66857143-.4458016 1.17-.8358779 1.50428571-.3900763.33428573-.9473282.55714283-1.6717557.55714283-.4458016 0-.8358779-.0557143-1.170229-.2228571-.3343512-.1671429-.6129771-.39000001-.8358779-.66857144s-.3900763-.61285715-.4458015-.94714286c-.1114504-.39-.1671756-.78-.1671756-1.17s.0557252-.72428571.1671756-1.11428571.2786259-.66857143.4458015-1.00285715c.2229008-.27857143.5015267-.50142857.8358779-.66857143.3343511-.16714285.7244274-.27857142 1.170229-.27857142.4458015 0 .8358778.11142857 1.170229.27857142.3343511.16714286.6129771.44571429.7801527.72428572.2229007.27857143.3343511.66857143.4458015 1.05857143s.1114504.78.1114504 1.17h-4.4022901c-.0557252.16714285-.0557252.44571428.0557252.72428571zm3.4549618-2.17285714c-.1114504-.22285714-.2229008-.44571429-.3900763-.66857143-.1671756-.16714286-.3343512-.33428571-.5572519-.44571429-.2229008-.11142857-.5015268-.16714285-.7801527-.16714285-.278626 0-.5572519.05571428-.7801527.16714285-.2229007.11142858-.3900763.27857143-.5572519.44571429s-.2786259.39-.3900763.66857143c-.1114504.22285714-.1671756.50142857-.1671756.78h3.7335878c0-.27857143 0-.50142857-.1114504-.78z"/><path d="m70.9381679 9.02571429h.9473283v1.17000001h-.9473283z"/></g></g></g></svg>