<?xml version="1.0" encoding="UTF-8"?>
<svg width="230px" height="110px" viewBox="0 0 230 110" version="1.1" xmlns="http://www.w3.org/2000/svg" xmlns:xlink="http://www.w3.org/1999/xlink">
    <!-- Generator: Sketch 50.2 (55047) - http://www.bohemiancoding.com/sketch -->
    <title>DW</title>
    <desc>Created with Sketch.</desc>
    <defs>
        <polygon id="path-1" points="39.0578824 0.083913738 0.04065035 0.083913738 0.04065035 50.5191013 39.0578824 50.5191013 39.0578824 0.083913738"></polygon>
        <polygon id="path-3" points="0 84.9160863 97.9340461 84.9160863 97.9340461 0.135782748 0 0.135782748"></polygon>
    </defs>
    <g id="DW" stroke="none" stroke-width="1" fill="none" fill-rule="evenodd">
        <g id="Group" transform="translate(66.000000, 13.000000)">
            <g id="Page-1">
                <g id="Group-3" transform="translate(47.603799, 0.051869)">
                    <mask id="mask-2" fill="white">
                        <use xlink:href="#path-1"></use>
                    </mask>
                    <g id="Clip-2"></g>
                    <path d="M37.5107034,18.4071845 C38.1342068,17.1721046 38.5887034,15.9177436 38.8575718,14.5307228 C39.2180575,12.3788379 39.1193927,10.2641573 38.3365894,8.21180112 C37.8550996,7.15174521 36.8136668,6.45341454 35.7022909,6.56380591 C35.5496396,4.73549121 35.1148228,2.71626597 33.9108988,1.16983626 C33.3550779,0.541162141 32.430527,-0.110051917 31.5210019,0.13788738 C30.1427522,0.375507188 29.6705704,1.93660144 29.3953194,3.20521965 C28.9847034,5.54665735 27.9468608,7.9065615 26.7249856,9.82136981 C24.7274877,12.5913379 22.0647332,14.8303954 19.0702149,16.7021605 C17.5696315,17.7486382 16.0840738,18.2727596 14.528972,19.2121046 C13.288082,19.9859305 11.8396233,20.531234 10.5333113,21.1225679 C8.05485536,21.9926637 5.97464912,23.5199481 4.01584586,25.1045327 C3.3749232,25.7527596 2.76072782,26.4275998 2.23190014,27.1932788 C0.885829579,29.8098123 -0.214908548,33.0690056 0.0926545455,35.9671526 C0.188659973,37.4194848 0.617626052,38.9535583 1.10842388,40.3480471 C1.83019322,43.068726 3.77623121,45.403103 5.86867083,47.1866094 C8.01961791,48.9804353 10.7379544,50.218095 13.6409883,50.4793411 C15.8052326,50.6684864 17.8971403,50.1637819 19.9758839,49.3691813 C24.3538377,47.2976797 27.5196233,42.979381 27.6996668,38.024397 C29.7300087,36.7128714 31.5441389,34.9472883 33.2373981,33.2041094 C34.474432,31.6335104 35.8013547,30.1367772 36.8035609,28.364405 C38.0205161,25.9916014 39.2120738,23.3073123 38.9703316,20.6184065 C38.8126274,19.7533347 38.4469558,18.6867612 37.5107034,18.4071845 M29.5923832,27.1055631 C30.1607034,27.4433906 30.6707821,26.876905 31.1529368,26.6233986 C33.3526844,24.9122644 34.9714795,22.706881 36.4103642,20.3262021 C36.742527,20.3278315 36.7736423,20.7577196 36.8975718,20.9770088 C37.1621851,22.4759145 36.3837699,23.9822883 35.8722285,25.3607548 C35.4738459,25.9901078 35.1507251,26.7692292 34.6460982,27.3460343 L34.6321362,27.5021845 C32.8330318,30.6140535 30.4541715,33.2322165 27.4411701,35.3037181 C27.0648608,33.7684225 26.0621227,32.2514577 25.2609693,30.9262181 C24.2241905,29.738119 23.1620141,28.5773123 21.6731322,27.9384545 C19.9543425,27.0280312 18.1049748,27.1471126 16.3812651,27.5664097 C14.9423805,28.1058746 13.4015066,28.8616414 12.4401227,30.0580232 C11.5615799,31.1288059 10.875314,32.4509225 10.7239924,33.9384225 C10.5460765,35.4534864 10.7709313,37.0817931 11.6246084,38.4337819 C11.8513248,38.8833586 12.2606111,39.1689097 12.5921091,39.5362021 C14.0643696,40.590012 16.0729042,41.0500439 17.7573872,40.3677356 C17.9672163,40.2576158 18.1773113,40.2008586 18.1633493,39.9106909 C18.2350209,39.7102756 18.033702,39.6537899 18.0055121,39.4930232 C16.6859028,39.3739417 15.1494171,39.1660583 14.1676885,38.1660184 C13.4919273,37.5605631 13.1281172,36.7089337 12.9182882,35.8449481 C12.5861254,34.0561462 13.5760982,32.1008746 15.0730915,31.1785024 C16.1703723,30.3035184 17.4559408,30.2502915 18.7102611,30.240651 C19.8442421,30.2542292 20.7753085,30.9962819 21.6517237,31.578111 C23.3791566,33.1883586 24.5615392,35.6666653 24.315409,38.0436781 C24.3163398,39.9387979 23.3881986,41.7536701 22.2919815,43.1554912 C21.1814035,44.6869848 19.2037183,45.9709465 17.319778,46.2840615 C14.5224564,46.9155871 11.1041579,46.7628315 8.63075495,44.8549481 C7.76431262,44.2678235 6.98669525,43.5666414 6.2920521,42.7672883 C5.90324342,42.4166973 5.77519186,41.8472244 5.38664912,41.496905 C3.76838589,39.2606989 3.35697205,36.4986062 3.3007251,33.8883187 C3.59485807,31.5263778 4.28085807,28.8640855 6.09259484,27.3298762 C7.342527,25.9954034 8.91690963,24.93752 10.5452787,23.9328634 C17.4854605,20.9475439 24.3610182,16.9395088 28.5042773,10.984349 C29.7277482,9.17667332 30.6871376,6.84514776 30.9610589,4.60228834 C31.0545379,3.99832668 31.15666,3.28085064 31.4305813,2.7986861 C31.4436125,2.56133786 31.599721,2.34435703 31.7880087,2.21807907 C32.341702,2.23858227 32.4744076,2.7640615 32.7940711,3.08342252 C33.6901661,4.85986821 33.7335148,6.81364617 33.6186274,8.74230431 C33.1532271,11.3428155 32.0401227,13.9992692 30.5346193,16.0095327 C29.131105,17.7763379 27.903778,19.6809625 26.1920358,21.1762021 C26.0577346,21.3824561 25.8808825,21.6105711 25.8468418,21.8585104 C25.906546,22.0032548 25.9658513,22.1211142 26.1143805,22.2051637 C26.405987,22.3632149 26.6817699,22.069381 26.9290969,21.9801717 C28.9855012,20.6417612 30.5937916,18.8623283 31.9895935,16.9236222 C33.2592054,15.0240216 34.5338703,13.108127 35.2340982,10.7630232 C35.4956532,10.0978235 35.4455229,9.42013179 35.7072109,8.80856629 C35.8643832,8.72573882 35.9950942,8.58982029 36.1750046,8.65798323 C36.5507821,8.79824681 36.6570263,9.32454073 36.803295,9.66779952 C37.0870562,10.4930871 37.0286817,11.3497404 37.106603,12.1884704 L36.9063479,14.0271046 C35.7280874,18.3695727 33.2182502,21.9634704 30.7008336,25.3854673 C30.3318377,25.8368091 29.8718893,26.2138778 29.51393,26.6865375 C29.458082,26.8382069 29.5122014,26.9715455 29.5923832,27.1055631" id="Fill-1" fill="#444444" mask="url(#mask-2)"></path>
                </g>
                <path d="M64.7246681,17.5523082 C64.4046369,17.5250146 64.7089728,17.5211155 64.5435978,17.7242577 C64.604465,17.6922853 64.7568244,17.6903357 64.7246681,17.5523082" id="Fill-4" fill="#444444"></path>
                <path d="M9.75276852,20.6703027 C9.51076038,23.3592085 10.7028499,26.0434976 11.9194062,28.4163011 C12.9218784,30.1886733 14.2489341,31.6854065 15.4854361,33.2558698 C17.1789612,34.9990487 18.9928255,36.7647676 21.0233004,38.0761573 C21.2032109,43.0312772 24.3692624,47.3495759 28.7476152,49.4210775 C30.8258269,50.2156781 32.9182665,50.7203826 35.0819788,50.5312372 C37.9848798,50.2699912 40.7037482,49.0323315 42.8542963,47.2385056 C44.946736,45.4549992 46.8927739,43.1206222 47.6148092,40.3999433 C48.1056071,39.0054545 48.5343072,37.4712452 48.6303126,36.0190487 C48.9378757,33.1209018 47.8368716,29.8615727 46.491067,27.2451749 C45.9623723,26.479496 45.348044,25.8046558 44.7071213,25.1564289 C42.748318,23.5718442 40.6679788,22.0445599 38.189257,21.1744641 C36.8834768,20.5829944 35.4347522,20.0378267 34.1942611,19.2640008 C32.6394252,18.3246558 31.1533357,17.8005343 29.6524863,16.7540567 C26.6584999,14.8822915 23.9957455,12.643234 21.9979815,9.87313019 C20.7758404,7.95845767 19.7383967,5.59855351 19.3277807,3.25711581 C19.0525297,1.9884976 18.5803479,0.427267572 17.2019653,0.189783546 C16.2924402,-0.0581557508 15.3677563,0.593058307 14.8122014,1.22173243 C13.6081444,2.76816214 13.1735935,4.78738738 13.0205433,6.61570208 C11.9096993,6.5053107 10.8680005,7.20364137 10.3863777,8.26369728 C9.60384043,10.3160535 9.50530855,12.4305982 9.86539539,14.582619 C10.1341308,15.9696398 10.5887604,17.2240008 11.2122638,18.4590807 C10.2758784,18.7385216 9.9106057,19.8052308 9.75276852,20.6703027 M19.2091701,26.7382979 C18.8509449,26.265774 18.3912624,25.8887053 18.0221335,25.4372276 C15.504717,22.0153666 12.9947468,18.4214688 11.8166193,14.0790008 L11.6163642,12.2403666 C11.6946844,11.4016366 11.6361769,10.5449832 11.9199381,9.71969569 C12.0660738,9.3764369 12.1721851,8.85014297 12.5482285,8.70987939 C12.7282719,8.64171645 12.858584,8.77763498 13.0158893,8.86032668 C13.2775772,9.47202796 13.2275799,10.1497196 13.488736,10.8149193 C14.1890969,13.1598874 15.4638947,15.0759177 16.7333737,16.9755184 C18.1291756,18.9140887 19.7377319,20.6936573 21.7942692,22.0320679 C22.0409313,22.1212772 22.3167142,22.415111 22.6085867,22.2570599 C22.7572488,22.1728746 22.8168201,22.055151 22.8761254,21.9104065 C22.8422176,21.6624673 22.6654985,21.4343522 22.5307984,21.2279625 C20.8193221,19.7328586 19.5917292,17.8280982 18.1883479,16.0614289 C16.6828445,14.0511653 15.5696071,11.3945759 15.1042068,8.79420048 C14.9895853,6.86554233 15.033067,4.91176438 15.9287631,3.13531869 C16.2486925,2.81595767 16.3813981,2.29047843 16.9352244,2.26997524 C17.123645,2.39625319 17.2793547,2.61323403 17.2923859,2.85058227 C17.5660412,3.33261102 17.6685623,4.05022284 17.7619083,4.6541845 C18.0363615,6.89690815 18.995219,9.22856949 20.2185569,11.0362452 C24.361683,16.991405 31.2375066,20.9994401 38.1779544,23.9847596 C39.8059246,24.9894161 41.3807061,26.0472995 42.6306383,27.3817724 C44.4422421,28.9159816 45.1282421,31.578274 45.422641,33.9402149 C45.3662611,36.5505024 44.9544483,39.312595 43.336451,41.5488011 C42.9475094,41.8991206 42.8197237,42.4685935 42.4307821,42.8191845 C41.7361389,43.6184018 40.9583886,44.3195839 40.0922122,44.9068442 C37.6186763,46.8145919 34.2005107,46.9673474 31.4030562,46.3359577 C29.5195148,46.0227069 27.5415636,44.738881 26.4312516,43.2073874 C25.3349015,41.8055663 24.4067604,39.9906941 24.4075582,38.0955743 C24.161029,35.7185615 25.3442095,33.2402548 27.0712434,31.6300072 C27.9477916,31.0481781 28.8787251,30.3061254 30.0124402,30.2925471 C31.2672923,30.3021877 32.5528608,30.3554145 33.6498757,31.2302628 C35.1470019,32.152635 36.1365758,34.1080423 35.804679,35.8968442 C35.594584,36.7608299 35.2313058,37.6123235 34.5550128,38.2177788 C33.5734171,39.2179545 32.0367984,39.4258379 30.7173221,39.5449193 C30.6891322,39.7055503 30.4880792,39.7620359 30.5596179,39.9625871 C30.5459218,40.2527548 30.7558839,40.309512 30.965314,40.4196318 C32.650063,41.1019401 34.6587305,40.6417724 36.131257,39.5880982 C36.462356,39.2208059 36.8716423,38.9352548 37.0980928,38.4856781 C37.9521688,37.1336893 38.1766247,35.5053826 37.9988418,33.9903187 C37.8476532,32.5028187 37.1616532,31.1807021 36.2832434,30.1099193 C35.3215935,28.9135375 33.7803208,28.1577708 32.3421009,27.6183059 C30.6175935,27.1990088 28.7687577,27.0799273 27.049835,27.9903506 C25.561086,28.6292085 24.4986437,29.7900152 23.4619978,30.9781142 C22.6611104,32.3033538 21.6578404,33.8203187 21.2815311,35.3554784 C18.2687957,33.2839768 15.8896695,30.6659497 14.0910969,27.5540807 L14.0768689,27.3979305 C13.572375,26.8211254 13.2492543,26.042004 12.8506057,25.412651 C12.3391973,24.0340487 11.5605161,22.5278107 11.8256613,21.028905 C11.9495908,20.80948 11.980972,20.3795919 12.3130019,20.3780982 C13.7512217,22.7587772 15.3705487,24.9641605 17.5704293,26.6752947 C18.0521851,26.9288011 18.5625297,27.4952867 19.130451,27.1573235 C19.2112977,27.0234417 19.2652841,26.890103 19.2091701,26.7382979" id="Fill-6" fill="#444444"></path>
                <path d="M31.7230496,17.5523082 C32.042698,17.5250146 31.7387449,17.5211155 31.9041199,17.7242577 C31.8428699,17.6922853 31.6920417,17.6903357 31.7230496,17.5523082" id="Fill-8" fill="#444444"></path>
                <path d="M37.6879544,69.8898243 C37.6879544,70.0133866 37.6879544,70.0767971 37.7057726,70.1641054 C37.722527,70.243131 37.871987,70.2653994 37.9944537,70.2791134 L37.9944537,70.416254 L36.7653981,70.416254 L36.7653981,70.2791134 C36.9191132,70.2653994 37.0722963,70.243131 37.0897156,70.1641054 C37.106337,70.0767971 37.106337,70.0133866 37.106337,69.8898243 L37.106337,68.7128594 C37.106337,68.4890895 36.9937102,68.4588099 36.7653981,68.4588099 L36.7653981,68.3197684 C37.064318,68.315016 37.4442176,68.2628754 37.6791783,68.1326597 L37.6879544,68.139992 L37.6879544,68.5072843 L37.6968635,68.5072843 C37.8548336,68.3007588 38.161067,68.1326597 38.5153031,68.1326597 C38.8339028,68.1326597 38.9505189,68.2646406 39.1146057,68.5072843 C39.2841444,68.3007588 39.5730915,68.1326597 39.9263967,68.1326597 C40.4036315,68.1326597 40.5388635,68.4713019 40.5388635,68.9240016 L40.5388635,69.8898243 C40.5388635,70.0133866 40.5388635,70.0767971 40.5561498,70.1641054 C40.5744999,70.243131 40.728082,70.2653994 40.8804673,70.2791134 L40.8804673,70.416254 L39.6510128,70.416254 L39.6510128,70.2791134 C39.7746763,70.2653994 39.9233384,70.243131 39.9400928,70.1641054 C39.9585758,70.0767971 39.9585758,70.0133866 39.9585758,69.8898243 L39.9585758,69.0390096 C39.9585758,68.7036262 39.9362366,68.4163099 39.5946328,68.4163099 C39.3250996,68.4163099 39.1146057,68.5696086 39.1146057,69.3280911 L39.1146057,69.8898243 C39.1146057,70.0133866 39.1146057,70.0767971 39.1312271,70.1641054 C39.1494442,70.243131 39.2974415,70.2653994 39.4200412,70.2791134 L39.4200412,70.416254 L38.2246274,70.416254 L38.2246274,70.2791134 C38.3448336,70.2653994 38.4978839,70.243131 38.5153031,70.1641054 C38.5319246,70.0767971 38.5319246,70.0133866 38.5319246,69.8898243 L38.5319246,69.0390096 C38.5319246,68.7036262 38.5101172,68.4163099 38.1729015,68.4163099 C37.9062936,68.4163099 37.6879544,68.5500559 37.6879544,69.3280911 L37.6879544,69.8898243 Z" id="Fill-10" fill="#444444"></path>
                <path d="M42.8999455,70.4721965 C42.8355872,70.3806789 42.8172372,70.2515495 42.8172372,70.1419728 L42.444917,70.3512141 C42.3005099,70.4355351 42.1529115,70.4721965 41.9994624,70.4721965 C41.5091965,70.4721965 41.3923145,70.1216054 41.3923145,69.6819409 L41.3923145,68.7128594 C41.3923145,68.4890895 41.278092,68.4588099 41.0544339,68.4588099 L41.0544339,68.3197684 C41.347902,68.315016 41.7282005,68.2628754 41.9648898,68.1326597 L41.9744638,68.139992 L41.9744638,69.5654393 C41.9744638,69.9009585 42.0138233,70.1688578 42.3406673,70.1688578 C42.6294814,70.1688578 42.8172372,70.0083626 42.8172372,69.3055511 L42.8172372,68.7128594 C42.8172372,68.4890895 42.7043444,68.4588099 42.4761653,68.4588099 L42.4761653,68.3197684 C42.7736225,68.315016 43.1549848,68.2628754 43.3910092,68.1326597 L43.3983227,68.139992 L43.3983227,69.7615096 C43.3983227,70.0767971 43.4698613,70.2215415 43.6878016,70.1491693 L43.7145289,70.2977157 L42.8999455,70.4721965 Z" id="Fill-12" fill="#444444"></path>
                <path d="M43.9850062,69.8012396 L44.1032179,69.8012396 C44.1424445,70.0919505 44.3574594,70.3014633 44.6055843,70.3014633 C44.8511826,70.3014633 44.9594214,70.1150335 44.9594214,69.9439473 C44.9594214,69.711623 44.8320347,69.6100575 44.4924255,69.3646981 C44.1111962,69.0936757 44.0110687,68.9667188 44.0110687,68.7035719 C44.0110687,68.3415751 44.3522735,68.1326054 44.7800429,68.1326054 C44.9594214,68.1326054 45.1610062,68.1487636 45.3839995,68.2082364 L45.3839995,68.7035719 L45.2667186,68.7035719 C45.213663,68.5155128 45.087606,68.3007045 44.8465286,68.3007045 C44.6707403,68.3007045 44.5626345,68.411639 44.5626345,68.5853051 C44.5626345,68.7701054 44.7541134,68.8874217 45.0943875,69.1504329 C45.4547403,69.4267508 45.5108543,69.6100575 45.5108543,69.8107444 C45.5108543,70.3051294 45.0603468,70.4721422 44.6449438,70.4721422 C44.3956223,70.4721422 44.1768841,70.4276054 43.9850062,70.3512955 L43.9850062,69.8012396 Z" id="Fill-14" fill="#444444"></path>
                <path d="M46.7218258,68.1400192 L46.7218258,69.8898514 C46.7218258,70.0134137 46.7218258,70.0768243 46.7397769,70.1639968 C46.7562654,70.2430224 46.9053265,70.2652907 47.0583767,70.2791406 L47.0583767,70.4162812 L45.7987376,70.4162812 L45.7987376,70.2791406 C45.9516548,70.2652907 46.1060347,70.2430224 46.1229221,70.1639968 C46.1400754,70.0768243 46.1400754,70.0134137 46.1400754,69.8898514 L46.1400754,68.7128866 C46.1400754,68.4889808 46.0274486,68.4588371 45.7987376,68.4588371 L45.7987376,68.3197955 C46.0960619,68.3150431 46.4772912,68.2627668 46.7146453,68.1325511 L46.7218258,68.1400192 M46.3944499,67.2377428 C46.5830035,67.2377428 46.7146453,67.3868323 46.7146453,67.5634856 C46.7146453,67.7393243 46.5830035,67.8867843 46.3944499,67.8867843 C46.2158692,67.8867843 46.0757172,67.7491006 46.0757172,67.5634856 C46.0757172,67.3820799 46.2158692,67.2377428 46.3944499,67.2377428" id="Fill-16" fill="#444444"></path>
                <path d="M49.3145175,70.1056917 L48.6850304,70.4721693 C48.4169598,70.4721693 47.9899883,70.5082875 47.6490494,70.1491422 C47.4744578,69.9771054 47.3303167,69.6262428 47.3303167,69.2854281 C47.3303167,68.5853323 47.8590114,68.1326326 48.5495324,68.1326326 C48.8070982,68.1326326 49.0447183,68.1899329 49.1752963,68.2715383 L49.3062733,68.5900847 C49.3145175,68.6195495 49.3145175,68.6401885 49.288854,68.6534952 L49.1400589,68.7497652 C49.1060182,68.7701326 49.0750358,68.7789585 49.0608079,68.7621214 L48.8428676,68.4832236 C48.7557712,68.3675367 48.6414157,68.2895974 48.4935514,68.2895974 C48.2042054,68.2895974 47.9248323,68.5961949 47.9248323,69.1626805 C47.9248323,69.6371054 48.1212312,70.1640783 48.6544469,70.1640783 C48.9122787,70.1640783 49.0820833,70.0372572 49.2202407,69.9487268 L49.3145175,70.1056917 Z" id="Fill-18" fill="#444444"></path>
                <path d="M52.4325929,68.4163642 L52.23154,68.5073387 L51.7851547,68.5073387 L51.7851547,69.8898786 C51.7851547,70.0134409 51.7851547,70.0768514 51.802308,70.164024 C51.8202592,70.2430495 51.9723786,70.2653179 52.2352632,70.2791677 L52.2352632,70.4163083 L50.8655237,70.4163083 L50.8655237,70.2791677 C51.0200366,70.2653179 51.1688318,70.2430495 51.1859851,70.164024 C51.2034043,70.0768514 51.2034043,70.0134409 51.2034043,69.8898786 L51.2034043,68.5073387 L50.8655237,68.5073387 L50.8655237,68.2784089 L51.2034043,68.2784089 L51.2034043,67.9705895 C51.2034043,67.610901 51.5061805,67.3985367 51.7690651,67.2889601 C51.886479,67.2304377 52.0560176,67.1476102 52.1876594,67.1353898 C52.2633202,67.1319952 52.3791384,67.1353898 52.4232849,67.1842716 L52.6244708,67.4160527 C52.6416242,67.4425304 52.6293908,67.4675144 52.6063867,67.4892396 L52.488441,67.610901 C52.4671655,67.6314042 52.4325929,67.6180974 52.4061316,67.6061486 L52.2399172,67.5070272 C52.1486988,67.4576022 52.0521615,67.382107 51.9521669,67.382107 C51.8251791,67.382107 51.7851547,67.5210128 51.7851547,67.6899265 L51.7851547,68.2784089 L52.4325929,68.2784089 L52.4325929,68.4163642 Z" id="Fill-20" fill="#444444"></path>
                <path d="M53.4906472,68.5961677 L53.4982266,68.5961677 L53.6833229,68.3368227 C53.7833175,68.197238 53.888232,68.1326054 53.9926147,68.1326054 C54.0598982,68.1326054 54.1250543,68.1585399 54.1908752,68.2736837 L54.3292985,68.5121182 C54.3562917,68.5600495 54.3347503,68.5998339 54.308156,68.6401613 L54.1908752,68.7701054 C54.1516486,68.8309361 54.1201343,68.8067668 54.0715997,68.7844984 L53.8607069,68.684155 C53.8140339,68.6582204 53.7492768,68.6401613 53.6865142,68.6401613 C53.5649783,68.6401613 53.4906472,68.8020144 53.4906472,69.2665272 L53.4906472,69.88977 C53.4906472,70.0134681 53.4906472,70.0767428 53.5078005,70.1640511 C53.5246879,70.2430767 53.673749,70.265345 53.8710787,70.2791949 L53.8710787,70.4161997 L52.5674261,70.4161997 L52.5674261,70.2791949 C52.7200773,70.265345 52.8723297,70.2430767 52.8917436,70.1640511 C52.9107585,70.0767428 52.9107585,70.0134681 52.9107585,69.88977 L52.9107585,68.7128051 C52.9107585,68.4890351 52.7944084,68.4587556 52.5674261,68.4587556 L52.5674261,68.3198498 C52.8650163,68.3150974 53.2454478,68.2628211 53.4818711,68.1326054 L53.4906472,68.1400735 L53.4906472,68.5961677 Z" id="Fill-22" fill="#444444"></path>
                <path d="M55.6244277,68.2895974 C56.1100396,68.2895974 56.2142893,69.0216022 56.2142893,69.3769457 C56.2142893,70.0834233 55.9345172,70.3152045 55.6939718,70.3152045 C55.4443843,70.3152045 55.0731278,70.1365144 55.0731278,69.2440144 C55.0731278,68.599861 55.3143381,68.2895974 55.6244277,68.2895974 M55.5938442,70.4721693 C56.3004548,70.4721693 56.8323408,69.9537508 56.8323408,69.26927 C56.8323408,68.5500288 56.2846312,68.1326326 55.6939718,68.1326326 C54.7974779,68.1326326 54.4578687,68.8510591 54.4578687,69.3349888 C54.4578687,69.9927204 54.9388266,70.4721693 55.5938442,70.4721693" id="Fill-24" fill="#444444"></path>
                <path d="M58.0244038,69.8898243 C58.0244038,70.0133866 58.0244038,70.0767971 58.0438176,70.1641054 C58.0597742,70.243131 58.2098991,70.2653994 58.3298393,70.2791134 L58.3298393,70.416254 L57.1011826,70.416254 L57.1011826,70.2791134 C57.2548977,70.2653994 57.4091446,70.243131 57.4244364,70.1641054 C57.4434513,70.0767971 57.4434513,70.0133866 57.4434513,69.8898243 L57.4434513,68.7128594 C57.4434513,68.4890895 57.3298936,68.4588099 57.1011826,68.4588099 L57.1011826,68.3197684 C57.3977091,68.315016 57.7805341,68.2628754 58.0168244,68.1326597 L58.0244038,68.139992 L58.0244038,68.5072843 L58.0322491,68.5072843 C58.191682,68.3007588 58.4965856,68.1326597 58.8513536,68.1326597 C59.1699533,68.1326597 59.2884309,68.2646406 59.4505232,68.5072843 C59.61953,68.3007588 59.9094079,68.1326597 60.263378,68.1326597 C60.7391501,68.1326597 60.8757118,68.4713019 60.8757118,68.9240016 L60.8757118,69.8898243 C60.8757118,70.0133866 60.8757118,70.0767971 60.8928651,70.1641054 C60.9110822,70.243131 61.0633346,70.2653994 61.2159859,70.2791134 L61.2159859,70.416254 L59.9878611,70.416254 L59.9878611,70.2791134 C60.1116575,70.2653994 60.2584581,70.243131 60.2765422,70.1641054 C60.2939615,70.0767971 60.2939615,70.0133866 60.2939615,69.8898243 L60.2939615,69.0390096 C60.2939615,68.7036262 60.2748136,68.4163099 59.9314811,68.4163099 C59.6595544,68.4163099 59.4505232,68.5696086 59.4505232,69.3280911 L59.4505232,69.8898243 C59.4505232,70.0133866 59.4505232,70.0767971 59.4686073,70.1641054 C59.4849628,70.243131 59.6348217,70.2653994 59.754629,70.2791134 L59.754629,70.416254 L58.5622735,70.416254 L58.5622735,70.2791134 C58.6827457,70.2653994 58.8342003,70.243131 58.8513536,70.1641054 C58.8687729,70.0767971 58.8687729,70.0133866 58.8687729,69.8898243 L58.8687729,69.0390096 C58.8687729,68.7036262 58.8473645,68.4163099 58.5097498,68.4163099 C58.242876,68.4163099 58.0244038,68.5500559 58.0244038,69.3280911 L58.0244038,69.8898243 Z" id="Fill-26" fill="#444444"></path>
                <path d="M55.8020776,83.5672748 L54.3635919,83.5672748 L54.3635919,83.3716118 C54.4372581,83.3716118 54.6696923,83.1949585 54.6696923,83.0305256 L54.6696923,74.0905895 C54.6696923,73.7739441 54.4695701,73.5739361 54.3661183,73.5739361 L54.3661183,73.4164281 L55.9085878,73.4164281 L56.8009596,79.4381214 L56.8009596,74.0767396 C56.8009596,73.8226901 56.6636,73.5899585 56.5209216,73.5899585 L56.5209216,73.4164281 L57.8298931,73.4164281 L57.8298931,73.5739361 C57.7717845,73.5739361 57.5483924,73.7712284 57.5483924,74.1732812 L57.5483924,83.5672748 L56.5642703,83.5672748 L55.5004982,76.7600783 L55.5004982,82.979607 C55.5004982,83.2081294 55.7179066,83.3811166 55.8020776,83.3811166 L55.8020776,83.5672748 Z" id="Fill-28" fill="#444444"></path>
                <path d="M23.0827631,73.9367748 L23.0827631,82.8289153 C23.0827631,83.2951933 22.7607061,83.3567029 22.6942204,83.3567029 L22.6942204,83.5673019 L24.5612733,83.5673019 L24.5612733,83.3715032 C24.394527,83.3715032 24.1769856,83.157238 24.1769856,82.7971422 L24.1769856,78.4425895 C24.7237645,78.4425895 24.9184347,79.8533722 24.9184347,80.1922859 L25.1975419,80.1922859 L25.1975419,75.9899457 L24.9184347,75.9899457 C24.9184347,76.9229089 24.7290833,77.5355607 24.1769856,77.5355607 L24.1769856,74.0402412 L24.370991,74.0364393 C25.3531186,74.0364393 25.6105514,76.8884201 25.6105514,76.8884201 L25.8939137,76.8884201 L25.8939137,73.4137396 L22.6760033,73.4137396 L22.6760033,73.5994904 C22.896337,73.5994904 23.0827631,73.7469505 23.0827631,73.9367748" id="Fill-30" fill="#444444"></path>
                <path d="M51.2587072,83.5672748 L49.8609107,83.5672748 L49.8609107,83.3376661 C50.2453313,83.2760208 50.2385498,82.8724744 50.2385498,82.8724744 L51.0486122,73.4164281 L52.1715566,73.4164281 C52.1715566,73.4164281 52.7751142,82.8405655 52.7914697,82.9599185 C52.8115484,83.1482492 52.9735077,83.3488003 53.1148564,83.3488003 L53.1148564,83.5672748 L51.455505,83.5672748 L51.455505,83.3439121 C51.7191875,83.2803658 51.7592119,83.0263163 51.7592119,82.909 C51.7554887,82.7870671 51.7048266,81.5750703 51.7048266,81.5750703 L51.0995403,81.5750703 C51.0995403,81.5750703 51.0287995,82.5728019 50.9976841,82.8920272 C50.9712228,83.2155974 51.1657601,83.3439121 51.2587072,83.3439121 L51.2587072,83.5672748 L51.2587072,83.5672748 Z M51.1540586,80.8950703 L51.6818225,80.8950703 L51.4711957,76.7192077 L51.1540586,80.8950703 Z" id="Fill-32" fill="#444444"></path>
                <path d="M46.2478621,77.870238 L46.2478621,82.829024 C46.2478621,83.2951661 45.9291294,83.3566757 45.8553303,83.3566757 L45.8553303,83.5672748 L47.8074849,83.5672748 L47.8074849,83.3716118 C47.6406057,83.3716118 47.4201389,83.1573466 47.4201389,82.797115 L47.4201389,78.4425623 C48.0210372,78.4425623 48.1373872,79.853345 48.1373872,80.1923946 L48.4168934,80.1923946 L48.4168934,75.9899185 L48.1373872,75.9899185 C48.1373872,76.9228818 47.9476369,77.5355335 47.4250589,77.5355335 L47.4250589,74.0402141 L47.6108201,74.0365479 C48.6662149,74.0365479 48.9683262,76.8885288 48.9683262,76.8885288 L49.2482312,76.8885288 L49.2482312,73.4138482 L45.8388418,73.4138482 L45.8388418,73.5994633 C46.0590426,73.5994633 46.2478621,73.7469233 46.2478621,73.9367476 L46.2478621,76.2747907 L46.2478621,77.870238 Z" id="Fill-34" fill="#444444"></path>
                <path d="M32.0878195,83.381103 C31.9989946,83.381103 31.7815862,83.2082516 31.7815862,82.9795935 L31.7815862,76.7600647 L32.9026689,83.5672612 L33.891711,83.5672612 L33.891711,74.1732676 C33.891711,73.7713506 34.1092524,73.5739225 34.167095,73.5739225 L34.167095,73.4164145 L32.855863,73.4164145 L32.855863,73.5899449 C33.004924,73.5899449 33.1426825,73.8226765 33.1426825,74.0768618 L33.1426825,79.4381078 L32.1879471,73.4164145 L30.6862999,73.4164145 L30.6862999,73.5739225 C30.7870923,73.5739225 30.98881,73.7739305 30.98881,74.0905759 L30.98881,83.030512 C30.98881,83.1949449 30.7566418,83.3715982 30.6780556,83.3715982 L30.6780556,83.5672612 L32.0878195,83.5672612 L32.0878195,83.381103 Z" id="Fill-36" fill="#444444"></path>
                <path d="M28.9268874,83.3402596 C28.8024261,83.3402596 28.6219837,83.2066494 28.6219837,82.9726957 L28.6219837,74.143151 C28.6219837,73.7288778 28.8617313,73.5814177 28.9268874,73.5814177 L28.9268874,73.4097883 L27.2128847,73.4097883 L27.2128847,73.5842692 C27.3364152,73.5842692 27.5625997,73.8237899 27.5625997,74.14125 L27.5625997,82.9482548 C27.5625997,83.1970088 27.318597,83.3439257 27.2128847,83.3439257 L27.2128847,83.5672883 L28.9290149,83.5672883 L28.9268874,83.3402596 Z" id="Fill-38" fill="#444444"></path>
                <path d="M36.64833,83.5672748 L35.2171577,83.5672748 L35.2171577,83.3376661 C35.6003815,83.2760208 35.5876163,82.8724744 35.5876163,82.8724744 L36.4342459,73.4164281 L37.5222187,73.4164281 C37.5222187,73.4164281 38.1114155,82.8405655 38.123117,82.9599185 C38.1425308,83.1482492 38.3055539,83.3488003 38.449562,83.3488003 L38.449562,83.5672748 L36.8065661,83.5672748 L36.8065661,83.3439121 C37.0754345,83.2803658 37.1139962,83.0263163 37.1094752,82.909 C37.1094752,82.7870671 37.0602757,81.5750703 37.0602757,81.5750703 L36.4928863,81.5750703 C36.4928863,81.5750703 36.4180233,82.5728019 36.391695,82.8920272 C36.3641699,83.2155974 36.554851,83.3439121 36.64833,83.3439121 L36.64833,83.5672748 L36.64833,83.5672748 Z M36.5436814,80.8950703 L37.0359419,80.8950703 L36.8649406,76.7192077 L36.5436814,80.8950703 Z" id="Fill-40" fill="#444444"></path>
                <path d="M41.103394,80.6129409 L41.103394,76.1410719 L41.103394,74.2900815 L41.103394,74.0402412 C41.103394,73.894139 41.3403493,73.6758003 41.4142814,73.6758003 L41.4142814,73.4164553 L39.6436328,73.4164553 L39.6436328,73.7005128 C39.7770033,73.7005128 40.0049164,73.9011997 40.0049164,74.0940112 L40.0049164,74.4236917 L40.0049164,75.2965032 L40.0049164,82.7615671 C40.0049164,82.9090272 39.8976084,83.3121661 39.6646423,83.3630847 L39.6646423,83.5673019 L42.7291037,83.5673019 L42.7291037,79.3951054 L42.4464062,79.3951054 C42.4464062,79.3951054 42.1014782,82.8511837 41.103394,82.9371342 L41.103394,82.0673099 L41.103394,80.6129409 Z" id="Fill-42" fill="#444444"></path>
                <path d="M65.0287843,83.5672748 L63.6361737,83.5672748 L63.6361737,83.3376661 C64.0159403,83.2760208 64.0110204,82.8724744 64.0110204,82.8724744 L64.8150991,73.4164281 L65.9533351,73.4164281 C65.9533351,73.4164281 66.5590204,82.8405655 66.5704559,82.9599185 C66.5896038,83.1482492 66.7486377,83.3488003 66.8927788,83.3488003 L66.8927788,83.5672748 L65.2731859,83.5672748 L65.2731859,83.3439121 C65.538597,83.2803658 65.5803501,83.0263163 65.5754301,82.909 C65.5754301,82.7870671 65.5268955,81.5750703 65.5268955,81.5750703 L64.8732076,81.5750703 C64.8732076,81.5750703 64.8010041,82.5728019 64.768559,82.8920272 C64.7415658,83.2155974 64.9363691,83.3439121 65.0287843,83.3439121 L65.0287843,83.5672748 L65.0287843,83.5672748 Z M64.9202795,80.8950703 L65.5029607,80.8950703 L65.3132103,76.7192077 L64.9202795,80.8950703 Z" id="Fill-44" fill="#444444"></path>
                <path d="M60.5352915,74.3584481 L60.5352915,82.852881 C60.5352915,83.2352452 60.3892887,83.3715711 60.2337121,83.3715711 L60.2337121,83.567234 L61.7704638,83.567234 L61.7704638,83.3683123 C61.5949414,83.3683123 61.5232697,83.0575056 61.5232697,82.8289832 L61.5232697,74.3475855 C62.0070201,74.9458442 62.2195085,77.000373 62.2195085,77.000373 L62.5737446,77.000373 L62.5197582,73.4165232 L59.5001083,73.4165232 L59.3979862,77.000373 L59.7356008,77.000373 C59.7356008,77.000373 60.0737474,74.784127 60.5352915,74.3584481" id="Fill-46" fill="#444444"></path>
                <path d="M72.9138483,74.1171214 C72.938714,74.3624808 73.6413354,79.5172013 73.6413354,79.5172013 L73.6413354,82.8581358 C73.6413354,83.1694856 73.4441387,83.3715304 73.3171509,83.3715304 L73.3171509,83.5640703 L75.010543,83.5640703 L75.010543,83.3715304 C74.8749121,83.377369 74.7016502,83.0331597 74.7016502,82.8554201 L74.7016502,79.5325447 C74.7016502,79.5325447 75.3992187,74.0964824 75.4327275,73.9256677 C75.45387,73.7468419 75.6646299,73.6460911 75.8078402,73.6460911 L75.8078402,73.4137668 L74.2713544,73.4137668 L74.2713544,73.6288466 C74.3999379,73.6288466 74.5536529,73.8126965 74.5266597,74.0906438 C74.4964752,74.3700847 74.1664399,77.3626006 74.1664399,77.3626006 C74.1664399,77.3626006 73.8675199,74.0865703 73.8524942,73.9270256 C73.8361387,73.7739984 74.0002255,73.6288466 74.1119216,73.6288466 L74.1119216,73.4137668 L72.5778293,73.4137668 L72.5778293,73.6318339 C72.7211726,73.6460911 72.8814033,73.8773291 72.9138483,74.1171214" id="Fill-48" fill="#444444"></path>
                <path d="M69.8201731,79.200488 C70.2476765,80.0936669 70.1627077,81.0919417 70.1627077,81.3538666 C70.1627077,81.6117181 70.1416982,82.5627404 69.9822654,82.9259593 C69.9547403,82.9907276 69.7651229,83.0113666 69.7076792,82.9138746 C69.6134024,82.7684513 69.5275028,82.4963427 69.5417308,81.3443618 C69.5425286,80.5201605 69.5856114,79.8666382 69.7386616,79.2884752 L68.4836765,80.0294417 C68.4836765,80.0294417 68.3943197,80.5551925 68.4419235,81.6058794 C68.5146589,83.1482356 69.0389655,83.7141781 69.8853292,83.7141781 C70.8600103,83.7141781 71.2425693,82.9445615 71.2855191,81.2711749 C71.3062627,80.3838347 71.0346019,79.3039545 70.7972478,78.8164944 C70.5763821,78.3529321 70.0531392,77.6888187 69.7027593,76.8396334 C69.5131419,76.3819097 69.4236521,75.65425 69.4236521,75.2486669 C69.4236521,74.8426765 69.4511772,74.3215423 69.5046318,74.164849 C69.5563577,74.0036749 69.7485015,73.8287867 69.8853292,74.1548011 C69.9547403,74.3215423 70.1331881,75.3412708 69.8937064,76.814242 L70.9525585,76.2275248 C70.9525585,76.2275248 71.0651853,74.1075487 70.6414052,73.6826845 C70.4097688,73.453619 70.1416982,73.2822612 69.671644,73.2822612 C69.2079723,73.2822612 68.7748841,73.5363107 68.6195734,73.8439944 C68.2977824,74.4878762 68.3816874,76.2212788 68.607606,76.9044018 C68.8950904,77.7588826 69.3111582,78.1392101 69.8201731,79.200488" id="Fill-50" fill="#444444"></path>
                <mask id="mask-4" fill="white">
                    <use xlink:href="#path-3"></use>
                </mask>
                <g id="Clip-53"></g>
                <polygon id="Fill-52" fill="#444444" mask="url(#mask-4)" points="21.6098643 84.9160863 77.2795821 84.9160863 77.2795821 84.4625719 21.6098643 84.4625719"></polygon>
                <path d="M76.360975,82.8019081 L76.360975,82.49952 L76.6404811,82.49952 C76.7448638,82.49952 76.79034,82.5626589 76.79034,82.6464369 C76.79034,82.7754305 76.6996535,82.8019081 76.5947389,82.8019081 L76.360975,82.8019081 L76.360975,82.8019081 Z M76.2487471,83.2691366 L76.360975,83.2691366 L76.360975,82.8989928 L76.6359601,82.8989928 C76.7448638,82.8989928 76.7648095,82.9689209 76.7770429,83.0548714 C76.7923346,83.1391925 76.7751813,83.2351909 76.8076263,83.2691366 L76.9331514,83.2691366 C76.8847498,83.2081701 76.8902016,83.116381 76.8819574,83.0273075 C76.8754418,82.9446158 76.8533685,82.8697995 76.7568312,82.8511973 L76.7568312,82.8475312 C76.8588204,82.8194241 76.9048285,82.7313011 76.9048285,82.6290567 C76.9048285,82.4916446 76.804568,82.4029784 76.6463319,82.4029784 L76.2487471,82.4029784 L76.2487471,83.2691366 Z" id="Fill-54" fill="#444444" mask="url(#mask-4)"></path>
                <path d="M76.5728917,83.4415671 C76.2437872,83.4415671 75.9783761,83.1668786 75.9783761,82.8300016 C75.9783761,82.4938035 76.2487072,82.2153131 76.5728917,82.2153131 C76.8990708,82.2153131 77.1671414,82.4938035 77.1671414,82.8300016 C77.1671414,83.1668786 76.9039908,83.4415671 76.5728917,83.4415671 M76.5728917,82.1633083 C76.2116081,82.1633083 75.9270491,82.4656965 75.9270491,82.8289153 C75.9270491,83.1949856 76.2181237,83.4930288 76.5728917,83.4930288 C76.9295213,83.4930288 77.2197981,83.1949856 77.2197981,82.8289153 C77.2197981,82.4656965 76.9344412,82.1633083 76.5728917,82.1633083" id="Fill-55" fill="#444444" mask="url(#mask-4)"></path>
                <path d="M3.10523039,54.1437915 L4.09945834,54.1437915 C6.56448412,54.1437915 7.87185997,55.6456845 7.87185997,58.2880168 C7.87185997,61.7927053 6.27846242,62.9607085 4.34452483,62.9607085 C3.29591153,62.9607085 3.10523039,62.8633522 3.10523039,61.43098 L3.10523039,54.1437915 L3.10523039,54.1437915 Z M-5.31886024e-05,63.4196542 L4.45356147,63.4196542 C7.54501601,63.4196542 9.94196038,61.5977212 9.94196038,58.2740312 C9.94196038,55.4092867 8.06254111,53.6847101 4.9709536,53.6847101 L-5.31886024e-05,53.6847101 L-5.31886024e-05,54.1159561 C0.612945455,54.1576414 1.07595224,54.2272979 1.13033758,54.4774097 C1.18498887,54.7417788 1.18498887,54.9502053 1.18498887,55.3257804 L1.18498887,61.7787196 C1.18498887,62.1541589 1.18498887,62.362857 1.13033758,62.6270903 C1.07595224,62.8773379 0.612945455,62.9468586 -5.31886024e-05,62.9885439 L-5.31886024e-05,63.4196542 Z" id="Fill-56" fill="#444444" mask="url(#mask-4)"></path>
                <path d="M13.7961927,56.3271917 L13.7961927,61.7785974 C13.7961927,62.1541725 13.7961927,62.3628706 13.850578,62.6269681 C13.9050963,62.8773514 14.3682361,62.9468722 14.844806,62.9885575 L14.844806,63.4196677 L10.9225455,63.4196677 L10.9225455,62.9885575 C11.3992483,62.9468722 11.8759512,62.8773514 11.9303365,62.6269681 C11.9848548,62.3628706 11.9848548,62.1541725 11.9848548,61.7785974 L11.9848548,58.1071677 C11.9848548,57.4118243 11.6307517,57.3144681 10.9225455,57.3144681 L10.9225455,56.8833578 C11.848692,56.869508 13.0334681,56.7027668 13.7689335,56.2993562 L13.7961927,56.3271917 M12.7747056,53.5179824 C13.3603121,53.5179824 13.7689335,53.9769281 13.7689335,54.5330942 C13.7689335,55.0754105 13.3603121,55.534492 12.7747056,55.534492 C12.2163582,55.534492 11.7804776,55.103246 11.7804776,54.5330942 C11.7804776,53.9629425 12.2163582,53.5179824 12.7747056,53.5179824" id="Fill-57" fill="#444444" mask="url(#mask-4)"></path>
                <path d="M15.7436269,61.5004601 L16.1112931,61.5004601 C16.2338928,62.4045016 16.9011438,63.0582955 17.6775645,63.0582955 C18.440156,63.0582955 18.7806961,62.4740224 18.7806961,61.9454201 C18.7806961,61.2225128 18.3856377,60.9024728 17.3234613,60.1376086 C16.1385522,59.289238 15.8252714,58.8999489 15.8252714,58.0794137 C15.8252714,56.9530958 16.8877137,56.2993019 18.2223487,56.2993019 C18.7806961,56.2993019 19.4071248,56.3549728 20.101635,56.5356997 L20.101635,58.0794137 L19.7339688,58.0794137 C19.5705468,57.4954121 19.1756214,56.8279042 18.4265929,56.8279042 C17.8818087,56.8279042 17.5414016,57.175508 17.5414016,57.7179601 C17.5414016,58.2881118 18.1404383,58.6495655 19.2028806,59.4701006 C20.3195753,60.3321853 20.4965604,60.9024728 20.4965604,61.5282955 C20.4965604,63.0720096 19.093844,63.5864904 17.8000312,63.5864904 C17.0237436,63.5864904 16.3427965,63.4475847 15.7436269,63.2110511 L15.7436269,61.5004601 Z" id="Fill-58" fill="#444444" mask="url(#mask-4)"></path>
                <path d="M26.2029262,57.1477268 L25.508283,57.4674952 L24.1328258,57.4674952 L24.1328258,60.4993882 C24.1328258,61.2779665 24.0510483,62.5854185 25.1133577,62.5854185 C25.4674608,62.5854185 25.7806087,62.5434617 26.0803265,62.4045559 L26.2300524,62.9190367 L24.1463889,63.5865447 C23.0703834,63.5865447 22.3214879,63.1834058 22.3214879,61.3893083 L22.3214879,57.4674952 L21.2863047,57.4674952 L21.2863047,56.7581661 L22.3077919,56.7581661 L22.3077919,55.2147236 C22.7164133,54.9502188 23.1929832,54.6861214 23.6153007,54.435738 L24.1328258,54.435738 L24.1328258,56.7581661 L26.2029262,56.7581661 L26.2029262,57.1477268 Z" id="Fill-59" fill="#444444" mask="url(#mask-4)"></path>
                <path d="M30.914971,60.5825958 C30.914971,61.8759265 30.3156684,62.5297204 29.5258176,62.5297204 C28.912952,62.5297204 28.5996711,62.0152396 28.5996711,61.3892812 C28.5996711,60.0821006 29.5530768,59.7482109 30.914971,59.3032508 L30.914971,60.5825958 L30.914971,60.5825958 Z M33.7068407,63.0442013 L33.6658855,62.5853914 C32.9442491,62.8079393 32.7263088,62.3628435 32.7263088,61.3752955 L32.7263088,58.7468131 C32.7263088,57.2033706 31.9364581,56.2993291 29.9888244,56.2993291 C29.2669221,56.2993291 28.4907674,56.4801917 27.8779018,56.7027396 C27.7280429,56.758139 27.5374947,56.8416454 27.4284581,57.2309345 L27.25134,57.8847284 C27.2106507,58.0514696 27.2922953,58.1072764 27.3876358,58.1629473 L28.0548868,58.3853594 C28.1639235,58.4131949 28.2591311,58.3992093 28.3000863,58.2740176 C28.6269303,57.5511102 29.0219886,56.7859744 29.757321,56.7859744 C30.5471718,56.7859744 30.9012749,57.5926597 30.9012749,58.733099 L28.9537742,59.400607 C27.6327023,59.8872524 26.7883332,60.3184984 26.7883332,61.6535144 C26.7883332,62.8216534 27.5510578,63.5865176 28.5043305,63.5865176 C29.0354187,63.5865176 29.4440402,63.4197764 29.7845802,63.1972284 L30.914971,62.4045288 C30.914971,62.7938179 30.9693563,63.2109425 31.1736005,63.5865176 L33.7068407,63.0442013 Z" id="Fill-60" fill="#444444" mask="url(#mask-4)"></path>
                <path d="M37.2068369,61.7786518 C37.2068369,62.1542268 37.2068369,62.3629249 37.2613552,62.6270224 C37.3157406,62.8774058 37.7788803,62.9469265 38.1736727,62.988476 L38.1736727,63.419722 L34.3333227,63.419722 L34.3333227,62.988476 C34.8098925,62.9469265 35.2865954,62.8774058 35.3411137,62.6270224 C35.3954991,62.3629249 35.3954991,62.1542268 35.3954991,61.7786518 L35.3954991,58.107222 C35.3954991,57.4118786 35.0413959,57.3145224 34.3333227,57.3145224 L34.3333227,56.8832764 C35.2593362,56.8695623 36.4442453,56.7026853 37.1795777,56.2992748 L37.2068369,56.327246 L37.2068369,57.5232204 C37.7924434,56.827877 38.7729753,56.2992748 39.889803,56.2992748 C41.4151191,56.2992748 41.8373037,57.3145224 41.8373037,58.7608802 L41.8373037,61.7786518 C41.8373037,62.1542268 41.8373037,62.3629249 41.891689,62.6270224 C41.9463403,62.8774058 42.4230431,62.9469265 42.899746,62.988476 L42.899746,63.419722 L39.0726931,63.419722 L39.0726931,62.988476 C39.4539224,62.9469265 39.9170621,62.8774058 39.9715805,62.6270224 C40.0259658,62.3629249 40.0259658,62.1542268 40.0259658,61.7786518 L40.0259658,59.1224696 C40.0259658,58.162893 39.9033661,57.1893307 38.8547528,57.1893307 C37.6972358,57.1893307 37.2068369,58.107222 37.2068369,59.9845543 L37.2068369,61.7786518 Z" id="Fill-61" fill="#444444" mask="url(#mask-4)"></path>
                <path d="M48.469816,57.1477268 L47.7751729,57.4674952 L46.3997156,57.4674952 L46.3997156,60.4993882 C46.3997156,61.2779665 46.3179381,62.5854185 47.3803805,62.5854185 C47.7343506,62.5854185 48.0476315,62.5434617 48.3472163,62.4045559 L48.4970752,62.9190367 L46.4132787,63.5865447 C45.3374062,63.5865447 44.5883777,63.1834058 44.5883777,61.3893083 L44.5883777,57.4674952 L43.5533275,57.4674952 L43.5533275,56.7581661 L44.5748147,56.7581661 L44.5748147,55.2147236 C44.9833031,54.9502188 45.460006,54.6861214 45.8821905,54.435738 L46.3997156,54.435738 L46.3997156,56.7581661 L48.469816,56.7581661 L48.469816,57.1477268 Z" id="Fill-62" fill="#444444" mask="url(#mask-4)"></path>
                <path d="M55.5514529,54.1159425 C54.6933878,54.143778 54.3801069,54.4078754 54.6525655,55.3536022 L56.1778817,61.1111981 L56.2051408,61.1111981 L58.6702996,53.8098882 L59.732476,53.8098882 L62.2520201,61.1249121 L62.2792792,61.1249121 C62.8240635,59.3727716 63.3687148,57.3702476 63.913632,55.3814377 C64.1450024,54.4915176 63.8863729,54.1854633 62.7831083,54.1159425 L62.7831083,53.6846965 L65.9292141,53.6846965 L65.9292141,54.1159425 C65.5207256,54.1020927 64.9758084,54.3663259 64.744438,55.1311901 L62.3199685,63.4197764 L60.9173851,63.4197764 L58.5885221,56.2993291 L58.561263,56.2993291 L56.1778817,63.4197764 L54.8705058,63.4197764 L52.8683539,55.9795607 C52.4871246,54.6167093 52.0378138,54.1576278 51.3157786,54.1159425 L51.3157786,53.6988179 L55.5514529,53.6988179 L55.5514529,54.1159425 Z" id="Fill-63" fill="#444444" mask="url(#mask-4)"></path>
                <path d="M69.1708999,56.785988 C70.6826529,56.785988 71.0096299,59.0667308 71.0096299,60.1794704 C71.0096299,62.3767069 70.1380016,63.0998858 69.3888402,63.0998858 C68.6125525,63.0998858 67.4550355,62.5434481 67.4550355,59.7620743 C67.4550355,57.7595503 68.204064,56.785988 69.1708999,56.785988 M69.0755593,63.5865312 C71.2818225,63.5865312 72.9300043,61.9732963 72.9300043,59.8455807 C72.9300043,57.6065232 71.2275701,56.2993427 69.3888402,56.2993427 C66.5969704,56.2993427 65.5346611,58.5384002 65.5346611,60.0402931 C65.5346611,62.098488 67.032718,63.5865312 69.0755593,63.5865312" id="Fill-64" fill="#444444" mask="url(#mask-4)"></path>
                <path d="M76.6476882,57.7457548 L76.6749474,57.7457548 L77.2471237,56.9390695 C77.5602716,56.508095 77.8869826,56.299397 78.2139596,56.299397 C78.4180708,56.299397 78.622581,56.3829034 78.8269582,56.744357 L79.2627058,57.4813858 C79.3442174,57.6344129 79.2762689,57.7596046 79.1943585,57.8846605 L78.8269582,58.2880711 C78.7043585,58.4827835 78.608752,58.3991414 78.459159,58.3297564 L77.8054711,58.0237021 C77.6556122,57.9404673 77.451235,57.8846605 77.2605539,57.8846605 C76.8793246,57.8846605 76.6476882,58.3854273 76.6476882,59.8317851 L76.6476882,61.7786382 C76.6476882,62.1542133 76.6476882,62.3629113 76.7022065,62.6270088 C76.7567248,62.8773922 77.2198646,62.9469129 77.8324643,62.9884625 L77.8324643,63.4197085 L73.774041,63.4197085 L73.774041,62.9884625 C74.2508768,62.9469129 74.7274467,62.8773922 74.781965,62.6270088 C74.8364833,62.3629113 74.8364833,62.1542133 74.8364833,61.7786382 L74.8364833,58.1072085 C74.8364833,57.411865 74.4822472,57.3145088 73.774041,57.3145088 L73.774041,56.8832628 C74.7001875,56.8695487 75.8852296,56.7026717 76.620429,56.299397 L76.6476882,56.3272324 L76.6476882,57.7457548 Z" id="Fill-65" fill="#444444" mask="url(#mask-4)"></path>
                <path d="M82.4493547,53.2259273 L82.4493547,61.778611 C82.4493547,62.1541861 82.4493547,62.3628842 82.503873,62.6269816 C82.5583913,62.877365 83.0215311,62.9468858 83.4981009,62.9884353 L83.4981009,63.4196813 L79.5759734,63.4196813 L79.5759734,62.9884353 C80.0525433,62.9468858 80.5291132,62.877365 80.5836315,62.6269816 C80.6381498,62.3628842 80.6381498,62.1541861 80.6381498,61.778611 L80.6381498,54.9643538 C80.6381498,54.5887788 80.5700684,54.0464625 79.9706328,54.0464625 L79.5759734,54.0464625 L79.5759734,53.6152165 C80.9512977,53.587381 81.8229259,53.4206398 82.4220955,53.1980919 L82.4493547,53.2259273 Z" id="Fill-66" fill="#444444" mask="url(#mask-4)"></path>
                <path d="M89.558397,61.1527748 C89.558397,62.0152668 88.8501908,62.5434617 88.1965028,62.5434617 C86.8755639,62.5434617 86.2626982,61.0417045 86.2626982,59.6508818 C86.2626982,58.0236613 86.889127,56.8138371 88.1422505,56.8138371 C88.7686792,56.8138371 89.2452491,57.0503706 89.558397,57.6761933 L89.558397,61.1527748 L89.558397,61.1527748 Z M92.4186141,63.0442284 L92.3368366,62.5854185 C91.5878081,62.8078307 91.3698678,62.3628706 91.3698678,61.3753227 L91.3698678,53.2259137 L91.3426087,53.1980783 C90.7434391,53.4206262 89.8718109,53.5873674 88.4962206,53.6152029 L88.4962206,54.0464489 L88.891146,54.0464489 C89.4903156,54.0464489 89.558397,54.5887652 89.558397,54.9643403 L89.558397,56.5356182 C89.068264,56.3271917 88.4553984,56.2993562 87.9377403,56.2993562 C85.9357213,56.2993562 84.3423237,57.6900431 84.3423237,59.9845 C84.3423237,61.6255703 85.3365517,63.5865447 87.5019927,63.5865447 C87.9377403,63.5865447 88.1284214,63.461353 88.6595096,63.1277348 L89.558397,62.4739409 C89.5722261,62.8633658 89.5994852,63.2109696 89.8035965,63.5865447 L92.4186141,63.0442284 Z" id="Fill-67" fill="#444444" mask="url(#mask-4)"></path>
                <path d="M93.181086,61.5004601 L93.5488852,61.5004601 C93.6714849,62.4045016 94.338603,63.0582955 95.1148906,63.0582955 C95.8776152,63.0582955 96.2181552,62.4740224 96.2181552,61.9454201 C96.2181552,61.2225128 95.8230969,60.9024728 94.7609205,60.1376086 C93.5761444,59.289238 93.2625976,58.8999489 93.2625976,58.0794137 C93.2625976,56.9530958 94.3251729,56.2993019 95.6598079,56.2993019 C96.2181552,56.2993019 96.844584,56.3549728 97.5389612,56.5356997 L97.5389612,58.0794137 L97.1715609,58.0794137 C97.007873,57.4954121 96.6132136,56.8279042 95.8639191,56.8279042 C95.3192678,56.8279042 94.9788608,57.175508 94.9788608,57.7179601 C94.9788608,58.2881118 95.5778974,58.6495655 96.6402068,59.4701006 C97.7569015,60.3321853 97.9340195,60.9024728 97.9340195,61.5282955 C97.9340195,63.0720096 96.5313031,63.5864904 95.2374904,63.5864904 C94.4612027,63.5864904 93.7802556,63.4475847 93.181086,63.2110511 L93.181086,61.5004601 Z" id="Fill-68" fill="#444444" mask="url(#mask-4)"></path>
            </g>
        </g>
    </g>
</svg>