<?xml version="1.0" encoding="UTF-8"?>
<svg width="230px" height="110px" viewBox="0 0 230 110" version="1.1" xmlns="http://www.w3.org/2000/svg" xmlns:xlink="http://www.w3.org/1999/xlink">
    <!-- Generator: Sketch 50.2 (55047) - http://www.bohemiancoding.com/sketch -->
    <title>Emptmeyer</title>
    <desc>Created with Sketch.</desc>
    <defs>
        <polygon id="path-1" points="14.9123357 0.530875817 0.105577549 0.530875817 0.105577549 19.3720658 14.9123357 19.3720658 14.9123357 0.530875817"></polygon>
        <polygon id="path-3" points="15.6524115 0.530875817 0.149983596 0.530875817 0.149983596 19.3721412 15.6524115 19.3721412 15.6524115 0.530875817"></polygon>
        <polygon id="path-5" points="14.6528721 0.530875817 0.431704651 0.530875817 0.431704651 19.372669 14.6528721 19.372669 14.6528721 0.530875817"></polygon>
        <polygon id="path-7" points="18.6154855 0.530875817 0.119955223 0.530875817 0.119955223 19.3723674 18.6154855 19.3723674 18.6154855 0.530875817"></polygon>
        <polygon id="path-9" points="14.2561381 0.530875817 0.0349706977 0.530875817 0.0349706977 19.3725936 14.2561381 19.3725936"></polygon>
        <polygon id="path-11" points="14.3375282 0.530875817 0.132086386 0.530875817 0.132086386 19.3723674 14.3375282 19.3723674 14.3375282 0.530875817"></polygon>
        <polygon id="path-13" points="14.6649284 0.530875817 0.459486512 0.530875817 0.459486512 19.3723674 14.6649284 19.3723674 14.6649284 0.530875817"></polygon>
        <polygon id="path-15" points="12.2222129 19.3724428 12.2222129 0.530875817 6.19497197 0.530875817 0.167731037 0.530875817 0.167731037 19.3724428 12.2222129 19.3724428"></polygon>
        <polygon id="path-17" points="0.0311516279 6.21275973 5.61597953 6.21275973 5.61597953 0.00520768827 0.0311516279 0.00520768827"></polygon>
        <polygon id="path-19" points="0 37.7042484 160.314065 37.7042484 160.314065 0.530875817 0 0.530875817"></polygon>
    </defs>
    <g id="Emptmeyer" stroke="none" stroke-width="1" fill="none" fill-rule="evenodd">
        <g id="Page-1" transform="translate(35.000000, 46.000000)">
            <polygon id="Fill-1" fill="#444444" points="0 0.75393415 0 19.5962552 14.2196698 19.5962552 14.2196698 15.9072716 4.0631907 15.9072716 4.0631907 11.9513418 12.884493 11.9513418 12.884493 8.26462042 4.0631907 8.26462042 4.0631907 4.44216373 14.2466279 4.44216373 14.2466279 0.75393415"></polygon>
            <g id="Group-47" transform="translate(0.000000, 0.223511)">
                <g id="Group-4" transform="translate(37.263945, 0.000000)">
                    <mask id="mask-2" fill="white">
                        <use xlink:href="#path-1"></use>
                    </mask>
                    <g id="Clip-3"></g>
                    <path d="M10.7450566,7.17851185 C10.7450566,7.98689093 10.4575031,8.66330515 9.88763801,9.21077083 C9.3177729,9.75823652 8.51501941,10.0327234 7.4823729,10.0327234 L4.22193569,10.0327234 L4.22193569,4.27226838 L7.40374499,4.27226838 C8.43714034,4.27226838 9.25037755,4.51508374 9.84869848,4.99920629 C10.4447729,5.48257475 10.7450566,6.19292279 10.7450566,7.1257259 L10.7450566,7.17851185 Z M10.7577869,1.00180188 C9.87490778,0.688102533 8.87221476,0.530498775 7.74970778,0.530498775 L0.105577549,0.530498775 L0.105577549,19.3720658 L4.22193569,19.3720658 L4.22193569,13.7186908 L7.34907987,13.7186908 C8.40044732,13.7186908 9.38516825,13.5806932 10.3032427,13.30319 C11.2213171,13.0241785 12.0218241,12.6064154 12.7092566,12.0499007 C13.3944427,11.4956483 13.9336055,10.8033983 14.3252473,9.97767525 C14.7168892,9.15421446 14.9123357,8.19275613 14.9123357,7.09782475 L14.9123357,7.04503881 C14.9123357,6.07453145 14.7490892,5.19149796 14.418852,4.39216789 C14.0878659,3.59510008 13.618345,2.90888276 13.0028008,2.33351593 C12.3872566,1.75890319 11.6384194,1.3170094 10.7577869,1.00180188 L10.7577869,1.00180188 Z" id="Fill-2" fill="#444444" mask="url(#mask-2)"></path>
                </g>
                <g id="Group-7" transform="translate(53.738364, 0.000000)">
                    <mask id="mask-4" fill="white">
                        <use xlink:href="#path-3"></use>
                    </mask>
                    <g id="Clip-6"></g>
                    <polygon id="Fill-5" fill="#444444" mask="url(#mask-4)" points="15.6524115 0.530574183 0.149983596 0.530574183 0.149983596 4.35303088 5.84189522 4.35303088 5.84189522 19.3721412 9.95975104 19.3721412 9.95975104 4.35303088 15.6524115 4.35303088"></polygon>
                </g>
                <g id="Group-10" transform="translate(92.106977, 0.000000)">
                    <mask id="mask-6" fill="white">
                        <use xlink:href="#path-5"></use>
                    </mask>
                    <g id="Clip-9"></g>
                    <polygon id="Fill-8" fill="#444444" mask="url(#mask-6)" points="14.6528721 15.6836854 4.49489535 15.6836854 4.49489535 11.7277556 13.3147 11.7277556 13.3147 8.04178832 4.49489535 8.04178832 4.49489535 4.21933162 14.6528721 4.21933162 14.6528721 0.530347958 0.431704651 0.530347958 0.431704651 19.372669 14.6528721 19.372669"></polygon>
                </g>
                <g id="Group-13" transform="translate(108.403480, 0.000000)">
                    <mask id="mask-8" fill="white">
                        <use xlink:href="#path-7"></use>
                    </mask>
                    <g id="Clip-12"></g>
                    <polygon id="Fill-11" fill="#444444" mask="url(#mask-8)" points="11.4266482 19.3723674 11.4266482 11.8616811 18.6154855 0.530800408 13.9389971 0.530800408 9.3950529 8.09351855 4.93198313 0.530800408 0.119955223 0.530800408 7.30879243 11.9423682 7.30879243 19.3723674"></polygon>
                </g>
                <g id="Group-16" transform="translate(129.548837, 0.000000)">
                    <mask id="mask-10" fill="white">
                        <use xlink:href="#path-9"></use>
                    </mask>
                    <g id="Clip-15"></g>
                    <polygon id="Fill-14" fill="#444444" mask="url(#mask-10)" points="14.2561381 4.21925621 14.2561381 0.530272549 0.0349706977 0.530272549 0.0349706977 19.3725936 14.2561381 19.3725936 14.2561381 15.68361 4.0981614 15.68361 4.0981614 11.7276802 12.917966 11.7276802 12.917966 8.04171291 4.0981614 8.04171291 4.0981614 4.21925621"></polygon>
                </g>
                <g id="Group-19" transform="translate(18.543015, 0.000000)">
                    <mask id="mask-12" fill="white">
                        <use xlink:href="#path-11"></use>
                    </mask>
                    <g id="Clip-18"></g>
                    <polygon id="Fill-17" fill="#444444" mask="url(#mask-12)" points="14.3375282 19.3723674 14.3375282 0.530800408 9.89991894 0.530800408 4.98230499 8.496954 0.132086386 0.640142729 0.132086386 7.82732655 4.90143057 15.1185741 5.00851429 15.1185741 10.2743375 7.07097933 10.2743375 19.3723674"></polygon>
                </g>
                <g id="Group-22" transform="translate(73.386047, 0.000000)">
                    <mask id="mask-14" fill="white">
                        <use xlink:href="#path-13"></use>
                    </mask>
                    <g id="Clip-21"></g>
                    <polygon id="Fill-20" fill="#444444" mask="url(#mask-14)" points="14.6649284 19.3723674 14.6649284 0.530800408 10.2280679 0.530800408 5.30970512 8.496954 0.459486512 0.640142729 0.459486512 7.82732655 5.2288307 15.1185741 5.33591442 15.1185741 10.6017377 7.07097933 10.6017377 19.3723674"></polygon>
                </g>
                <g id="Group-25" transform="translate(148.091852, 0.000000)">
                    <mask id="mask-16" fill="white">
                        <use xlink:href="#path-15"></use>
                    </mask>
                    <g id="Clip-24"></g>
                    <path d="M6.67587522,8.95475899 C6.13221941,9.43888154 5.35342871,9.6816969 4.33725662,9.6816969 L0.167731037,9.6816969 L0.167731037,13.3420253 L3.34804267,13.3420253 L3.40195894,13.3420253 L7.41123336,19.3724428 L12.2225124,19.3724428 L7.65011243,12.6437426 C8.84450778,12.194308 9.81200546,11.4892386 10.5518566,10.5292884 C11.2917078,9.57009232 11.6616334,8.32811438 11.6616334,6.80184641 L11.6616334,6.74906046 C11.6616334,4.95509232 11.1262148,3.51856046 10.0561264,2.44248121 C8.79208918,1.16807761 6.97391243,0.530875817 4.60534034,0.530875817 L0.167731037,0.530875817 L0.167731037,4.27189134 L4.25713104,4.27189134 C5.27255429,4.27189134 6.06482406,4.49736275 6.63468918,4.94453513 C7.20605197,5.39321569 7.49135894,6.06585948 7.49135894,6.96397467 L7.49135894,7.01902288 C7.49135894,7.82438562 7.21953104,8.47063644 6.67587522,8.95475899" id="Fill-23" fill="#444444" mask="url(#mask-16)"></path>
                </g>
                <polygon id="Fill-26" fill="#444444" points="28.5714344 31.5978945 29.654253 31.5978945 29.654253 34.1436854 32.3845135 34.1436854 32.3845135 31.5978945 33.4673321 31.5978945 33.4673321 37.6026731 32.3845135 37.6026731 32.3845135 35.0825212 29.654253 35.0825212 29.654253 37.6026731 28.5714344 37.6026731"></polygon>
                <path d="M37.9421586,32.6380793 C37.9421586,32.6380793 37.8073679,33.230036 37.6905493,33.5686202 L37.1611214,35.1755752 L38.7231958,35.1755752 L38.1945167,33.5686202 C38.0844377,33.230036 37.958633,32.6380793 37.958633,32.6380793 L37.9421586,32.6380793 Z M38.9920284,36.0631333 L36.900526,36.0631333 L36.3973074,37.6022207 L35.2792935,37.6022207 L37.3797819,31.5981962 L38.5135214,31.5981962 L40.6125121,37.6022207 L39.4959958,37.6022207 L38.9920284,36.0631333 Z" id="Fill-28" fill="#444444"></path>
                <path d="M42.4264205,31.5978945 L43.5092391,31.5978945 L45.7684809,35.0651772 C45.9953786,35.4120563 46.2642112,35.9957181 46.2642112,35.9957181 L46.2806856,35.9957181 C46.2806856,35.9957181 46.2222763,35.4203512 46.2222763,35.0651772 L46.2222763,31.5978945 L47.2976065,31.5978945 L47.2976065,37.6026731 L46.2222763,37.6026731 L43.9630344,34.1436854 C43.7361367,33.7968063 43.468053,33.2131445 43.468053,33.2131445 L43.4508298,33.2131445 C43.4508298,33.2131445 43.5092391,33.7885114 43.5092391,34.1436854 L43.5092391,37.6026731 L42.4264205,37.6026731 L42.4264205,31.5978945 Z" id="Fill-30" fill="#444444"></path>
                <g id="Group-34" transform="translate(49.423256, 31.491489)">
                    <mask id="mask-18" fill="white">
                        <use xlink:href="#path-17"></use>
                    </mask>
                    <g id="Clip-33"></g>
                    <path d="M3.10512837,0.00520768827 C4.56610977,0.00520768827 5.32243535,0.76607942 5.32243535,0.76607942 L4.7840214,1.57822893 C4.7840214,1.57822893 4.14676093,1.0028621 3.19723535,1.0028621 C1.8620586,1.0028621 1.14841674,1.93340295 1.14841674,3.06679266 C1.14841674,4.36909739 2.02979814,5.21442664 3.14706326,5.21442664 C4.04566791,5.21442664 4.64174233,4.5892902 4.64174233,4.5892902 L4.64174233,3.88648302 L3.72591442,3.88648302 L3.72591442,2.94840132 L5.61597953,2.94840132 L5.61597953,6.11103367 L4.69191442,6.11103367 L4.69191442,5.8237273 C4.69191442,5.69704102 4.70090047,5.56960066 4.70090047,5.56960066 L4.68367721,5.56960066 C4.68367721,5.56960066 4.06214233,6.21283514 2.95386326,6.21283514 C1.38280279,6.21283514 0.0311516279,4.9859389 0.0311516279,3.09997239 C0.0311516279,1.35803612 1.3326307,0.00520768827 3.10512837,0.00520768827" id="Fill-32" fill="#444444" mask="url(#mask-18)"></path>
                </g>
                <mask id="mask-20" fill="white">
                    <use xlink:href="#path-19"></use>
                </mask>
                <g id="Clip-36"></g>
                <polygon id="Fill-35" fill="#444444" mask="url(#mask-20)" points="57.2890419 37.6024469 58.3718605 37.6024469 58.3718605 31.5976683 57.2890419 31.5976683"></polygon>
                <path d="M60.9337823,31.5978945 L62.0166009,31.5978945 L64.2758428,35.0651772 C64.5027405,35.4120563 64.771573,35.9957181 64.771573,35.9957181 L64.7880474,35.9957181 C64.7880474,35.9957181 64.7296381,35.4203512 64.7296381,35.0651772 L64.7296381,31.5978945 L65.8049684,31.5978945 L65.8049684,37.6026731 L64.7296381,37.6026731 L62.4703963,34.1436854 C62.2434986,33.7968063 61.9754149,33.2131445 61.9754149,33.2131445 L61.9581916,33.2131445 C61.9581916,33.2131445 62.0166009,33.7885114 62.0166009,34.1436854 L62.0166009,37.6026731 L60.9337823,37.6026731 L60.9337823,31.5978945 Z" id="Fill-37" fill="#444444" mask="url(#mask-20)"></path>
                <path d="M71.035746,31.4966963 C72.4967274,31.4966963 73.253053,32.2575681 73.253053,32.2575681 L72.7146391,33.0697176 C72.7146391,33.0697176 72.0773786,32.4943507 71.127853,32.4943507 C69.7926763,32.4943507 69.0790344,33.4248916 69.0790344,34.5582813 C69.0790344,35.860586 69.9604158,36.7059153 71.0776809,36.7059153 C71.9762856,36.7059153 72.57236,36.0807788 72.57236,36.0807788 L72.57236,35.3779717 L71.6565321,35.3779717 L71.6565321,34.43989 L73.5465972,34.43989 L73.5465972,37.6025223 L72.6225321,37.6025223 L72.6225321,37.3152159 C72.6225321,37.1885297 72.6315181,37.0610893 72.6315181,37.0610893 L72.6142949,37.0610893 C72.6142949,37.0610893 71.99276,37.7043238 70.8844809,37.7043238 C69.3134205,37.7043238 67.9617693,36.4774275 67.9617693,34.591461 C67.9617693,32.8495248 69.2632484,31.4966963 71.035746,31.4966963" id="Fill-38" fill="#444444" mask="url(#mask-20)"></path>
                <path d="M80.6419795,36.7060661 C81.3136865,36.7060661 81.7173098,36.3343022 81.7173098,35.6066102 L81.7173098,34.9558349 L80.7093749,34.9558349 C80.0451563,34.9558349 79.6175702,35.2514362 79.6175702,35.835098 C79.6175702,36.3169583 80.0286819,36.7060661 80.6419795,36.7060661 M79.5247144,34.4061069 L79.5247144,34.388763 C79.5247144,34.388763 78.7691377,34.0931617 78.7691377,33.0781633 C78.7691377,32.0126413 79.6175702,31.4968471 80.6502167,31.4968471 C81.0283795,31.4968471 81.431254,31.5978945 81.431254,31.5978945 L81.1706586,32.4605677 C81.1706586,32.4605677 80.9692214,32.410044 80.7767702,32.410044 C80.2728028,32.410044 79.8609423,32.6890555 79.8609423,33.2131445 C79.8609423,33.5600236 80.0541423,34.0079501 80.7677842,34.0079501 L81.7173098,34.0079501 L81.7173098,33.2304885 L82.7829051,33.2304885 L82.7829051,34.0079501 L83.556454,34.0079501 L83.556454,34.9558349 L82.7829051,34.9558349 L82.7829051,35.6661829 C82.7829051,36.8923251 81.9853935,37.7044746 80.6419795,37.7044746 C79.3479888,37.7044746 78.5085423,36.917964 78.5085423,35.9029656 C78.5085423,35.2514362 78.8949423,34.6255457 79.5247144,34.4061069" id="Fill-39" fill="#444444" mask="url(#mask-20)"></path>
                <path d="M89.0978493,31.5978945 L90.2570493,31.5978945 L91.4237377,34.566727 C91.5585284,34.9219011 91.7270167,35.4459901 91.7270167,35.4459901 L91.7434912,35.4459901 C91.7434912,35.4459901 91.9029935,34.9219011 92.0377842,34.566727 L93.2044726,31.5978945 L94.3636726,31.5978945 L94.8421795,37.6026731 L93.7668493,37.6026731 L93.51524,34.2447328 C93.4897795,33.84733 93.5070028,33.314946 93.5070028,33.314946 L93.4897795,33.314946 C93.4897795,33.314946 93.3138028,33.8986078 93.1707749,34.2447328 L92.2047749,36.5710849 L91.256747,36.5710849 L90.2989842,34.2447328 C90.1559563,33.8986078 89.9709935,33.3066511 89.9709935,33.3066511 L89.9545191,33.3066511 C89.9545191,33.3066511 89.9709935,33.84733 89.9462819,34.2447328 L89.6939237,37.6026731 L88.6111051,37.6026731 L89.0978493,31.5978945 Z" id="Fill-40" fill="#444444" mask="url(#mask-20)"></path>
                <path d="M99.1324926,32.6380793 C99.1324926,32.6380793 98.9977019,33.230036 98.8801344,33.5686202 L98.3514553,35.1755752 L99.9135298,35.1755752 L99.3848507,33.5686202 C99.2747716,33.230036 99.148967,32.6380793 99.148967,32.6380793 L99.1324926,32.6380793 Z M100.182362,36.0631333 L98.09086,36.0631333 L97.5876414,37.6022207 L96.4696274,37.6022207 L98.5701158,31.5981962 L99.7038553,31.5981962 L101.802846,37.6022207 L100.68633,37.6022207 L100.182362,36.0631333 Z" id="Fill-41" fill="#444444" mask="url(#mask-20)"></path>
                <path d="M103.749898,36.0635103 C103.749898,36.0635103 104.396893,36.6976958 105.23634,36.6976958 C105.690135,36.6976958 106.101995,36.4609131 106.101995,35.9700038 C106.101995,34.8961868 103.288614,35.0824458 103.288614,33.238708 C103.288614,32.2410536 104.144535,31.4967717 105.28726,31.4967717 C106.462935,31.4967717 107.067995,32.1392521 107.067995,32.1392521 L106.597726,33.0275642 C106.597726,33.0275642 106.026363,32.5027211 105.279023,32.5027211 C104.774307,32.5027211 104.380419,32.7990765 104.380419,33.2213641 C104.380419,34.2876402 107.184814,34.0252186 107.184814,35.945119 C107.184814,36.9005446 106.462935,37.7043992 105.219865,37.7043992 C103.892926,37.7043992 103.16206,36.8839547 103.16206,36.8839547 L103.749898,36.0635103 Z" id="Fill-42" fill="#444444" mask="url(#mask-20)"></path>
                <polygon id="Fill-43" fill="#444444" mask="url(#mask-20)" points="109.317877 31.5978945 110.400695 31.5978945 110.400695 34.0418839 111.174244 34.0418839 112.576816 31.5978945 113.751742 31.5978945 112.063863 34.4566306 112.063863 34.4732205 113.852835 37.6026731 112.635226 37.6026731 111.174244 34.9807197 110.400695 34.9807197 110.400695 37.6026731 109.317877 37.6026731"></polygon>
                <polygon id="Fill-44" fill="#444444" mask="url(#mask-20)" points="115.800186 37.6024469 116.883005 37.6024469 116.883005 31.5976683 115.800186 31.5976683"></polygon>
                <path d="M119.444028,31.5978945 L120.526847,31.5978945 L122.786088,35.0651772 C123.012986,35.4120563 123.281819,35.9957181 123.281819,35.9957181 L123.298293,35.9957181 C123.298293,35.9957181 123.239884,35.4203512 123.239884,35.0651772 L123.239884,31.5978945 L124.315214,31.5978945 L124.315214,37.6026731 L123.239884,37.6026731 L120.980642,34.1436854 C120.753744,33.7968063 120.48566,33.2131445 120.48566,33.2131445 L120.468437,33.2131445 C120.468437,33.2131445 120.526847,33.7885114 120.526847,34.1436854 L120.526847,37.6026731 L119.444028,37.6026731 L119.444028,31.5978945 Z" id="Fill-45" fill="#444444" mask="url(#mask-20)"></path>
                <path d="M129.54674,31.4966963 C131.007722,31.4966963 131.763299,32.2575681 131.763299,32.2575681 L131.226382,33.0697176 C131.226382,33.0697176 130.588373,32.4943507 129.638847,32.4943507 C128.303671,32.4943507 127.590029,33.4248916 127.590029,34.5582813 C127.590029,35.860586 128.47141,36.7059153 129.588675,36.7059153 C130.48728,36.7059153 131.083354,36.0807788 131.083354,36.0807788 L131.083354,35.3779717 L130.167527,35.3779717 L130.167527,34.43989 L132.057592,34.43989 L132.057592,37.6025223 L131.133527,37.6025223 L131.133527,37.3152159 C131.133527,37.1885297 131.142513,37.0610893 131.142513,37.0610893 L131.125289,37.0610893 C131.125289,37.0610893 130.503754,37.7043238 129.395475,37.7043238 C127.824415,37.7043238 126.472764,36.4774275 126.472764,34.591461 C126.472764,32.8495248 127.774243,31.4966963 129.54674,31.4966963" id="Fill-46" fill="#444444" mask="url(#mask-20)"></path>
            </g>
        </g>
    </g>
</svg>