<svg height="110" viewBox="0 0 230 110" width="230" xmlns="http://www.w3.org/2000/svg"><path d="m52.6240157 21.5285714 4.2937008-21.37142854h-6.7023622l-1.6755905 8.32857143h-4.8173229l1.6755906-8.32857143h-40.89488189l-4.29370079 21.37142854h16.28464568l1.0472441-5.3952381h-9.63464569l.62834646-2.9333333h9.63464563l.9425197-4.81904762h-9.63464564l.62834644-2.93333333h15.2374016l-3.2464567 16.08095235h6.7023622l3.2464567-16.08095235h5.6027559l-3.2464567 16.08095235h6.7023622l1.6755906-8.3285714h4.8173228l-1.6755906 8.3285714zm18.3267717-12.88571426.3665354-1.78095238h-9.9488189l-.3665354 1.88571429v.05238095h7.2783465l-9.7393701 11-.3665355 1.7809524h10.3153544l.3665354-1.8857143h-7.7496063zm8.2208661-5.81428571.5236221-2.67142857h-2.1468504l-.5759843 2.67142857zm5.7598426 0 .523622-2.67142857h-2.1468504l-.5759842 2.67142857zm.7330708 4.08571428-2.1992126-.05238095-1.7803149 8.95714284c-.7854331 3.8238095-3.7177166 3.9809524-4.2413386 3.9809524-1.6755906 0-2.6181102-.9428571-2.6181102-2.5142857 0-.3666667.0523622-.8380953.1570866-1.3619048l1.8326771-9.00952379v-.05238095h-2.1468504l-1.8326771 9.21904764v.1571428c-.1047244.4190477-.1570866.7857143-.1570866 1.3095238 0 2.4619048 1.6232283 4.1380953 4.0318897 4.1380953 1.780315 0 3.1940945-.6285714 4.2413386-1.7285714l-.261811 1.5190476v.0523809h2.1468504zm12.0956693 2.72380953 1.7279528-1.57142857c-.7854331-.89047619-1.8326772-1.36190477-3.1940945-1.36190477-1.6755906 0-3.0893701.68095239-4.0318898 1.88571429l.3665355-1.67619048v-.05238095h-2.1468504l-2.8799213 14.66666664v.052381h2.1468504l1.780315-8.9571429c.4712598-2.3047619 2.2515748-3.9285714 4.1889763-3.9285714.8377953-.10476191 1.518504.2095238 2.042126.94285714zm7.1212598-2.72380953h-2.094488l-2.9322836 14.66666669v.0523809h2.1468506zm.785433-4.08571428.523622-2.67142857h-2.14685l-.575984 2.67142857zm13.195276 6.07619047c-1.047244-1.57142857-2.356299-2.25238095-4.188977-2.25238095-3.874803 0-6.597637 2.72380953-7.435433 7.49047615-.157086.7857143-.209449 1.6761905-.209449 2.3047619 0 3.2476191 1.989764 5.2904762 5.183859 5.2904762 1.885039 0 3.56063-.7333333 4.869685-2.0952381l-1.204331-1.5190476v-.0523809.0523809c-1.099606 1.2047619-2.14685 1.6761905-3.508268 1.6761905-1.518504 0-3.141732-.8904762-3.141732-3.4571429 0-.7857142.104724-1.4666666.261811-2.2.261811-1.2571428.785433-2.9857142 1.885039-4.19047615.890158-.94285714 1.989764-1.41428571 3.194095-1.41428571 1.256693 0 2.094488.47142857 2.827559 1.62380956v.0523809zm13.980708 1.9380952c0-2.46190472-1.623228-4.1380952-4.031889-4.1380952-1.780315 0-3.141733.57619048-4.188977 1.67619048l1.675591-8.17142857h-2.199213l-4.293701 21.37142859h2.146851l1.780315-8.9571429c.785433-3.8238095 3.717716-3.9285714 4.293701-3.9285714 1.623228 0 2.61811.94285714 2.61811 2.5142857 0 .3666667-.052362.8380952-.157087 1.3619048l-1.832677 9.0619047h2.14685l1.88504-9.2714285c.104724-.5761905.157086-.9428572.157086-1.5190477z" fill="#444" transform="translate(49 44)"/></svg>