<svg height="110" viewBox="0 0 230 110" width="230" xmlns="http://www.w3.org/2000/svg"><g fill="#444" transform="translate(35 32)"><path d="m35.4326772 3.68378378c-3.6129922-2.22297297-7.7964567-3.36621621-12.0433071-3.36621621-8.1133858 0-15.46614175 4.12837838-19.77637797 11.11486483-2.21850394 3.6202703-3.35944882 7.8121622-3.35944882 12.0675676 0 6.1608108 2.40866141 12.0040541 6.78228346 16.322973 4.37362203 4.3824324 10.14173233 6.7959459 16.29015753 6.7959459 12.7405511 0 23.0724409-10.3527027 23.0724409-23.1189189.1267717-8.1297297-3.9933071-15.56081081-10.965748-19.81621622zm-11.2192914-.69864864 5.514567 5.52567567-5.514567 5.52567569zm-1.5846456 0v13.02027026 7.4310811 5.5256757l-2.4086615-2.35-10.58543303-10.6067568zm11.9799212 2.03243243c6.1484252 3.74729729 9.9515748 10.16216213 10.268504 17.33918923l-20.0299213-6.668919 6.5287402-6.54189185c.3169291-.31756757.3169291-.82567568 0-1.14324325l-6.0216536-6.03378378c3.296063.31756757 6.4653543 1.33378378 9.2543307 3.04864865zm-29.60118109 7.17702703c3.5496063-5.90675676 9.63464569-9.59054055 16.41692909-10.22567568l-13.50118105 13.52837838c-.31692914.3175676-.31692914.8256757 0 1.1432432l11.15590555 11.1783784 3.4862204 3.4932433v13.7824324c-5.4511811-.1905405-10.5220472-2.4135135-14.45196847-6.2878378-4.05669292-4.0648649-6.33858268-9.4635136-6.33858268-15.3067568.06338583-4.0013514 1.20433071-7.8756757 3.23267716-11.3054054zm19.20590549 25.977027v-6.6689189l20.7271654-6.922973c-.5704725 11.1148649-9.5712599 20.0702703-20.7271654 20.5148649v-6.6689189z"/><g transform="translate(58.314961 15.878378)"><path d="m.25354331 13.5918919h1.83818897v-11.68648649h-1.83818897v-1.65135136h10.26850389v3.49324325h-1.83818893v-1.71486487h-4.5003937v4.89054054h5.13425197v1.71486487h-5.13425197v4.76351356h2.02834645v1.6513513h-5.95826771z"/><path d="m18.0649606 4.25540541c3.1692914 0 5.7047244 2.35 5.7047244 5.52567567 0 3.23918922-2.5988189 5.58918922-5.7047244 5.58918922s-5.7047244-2.35-5.7047244-5.58918922c0-3.17567567 2.5988189-5.52567567 5.7047244-5.52567567zm0 9.46351349c2.0283465 0 3.6129922-1.5878378 3.6129922-3.81081079 0-2.22297297-1.6480315-3.7472973-3.6129922-3.7472973-2.0283464 0-3.6129921 1.58783784-3.6129921 3.7472973 0 2.15945949 1.5846457 3.81081079 3.6129921 3.81081079z"/><path d="m31.0590551 4.25540541c3.1692914 0 5.7047244 2.35 5.7047244 5.52567567 0 3.23918922-2.5988189 5.58918922-5.7047244 5.58918922-3.1692913 0-5.7047244-2.35-5.7047244-5.58918922-.0633858-3.17567567 2.5354331-5.52567567 5.7047244-5.52567567zm0 9.46351349c2.0283465 0 3.6129921-1.5878378 3.6129921-3.81081079 0-2.22297297-1.6480315-3.7472973-3.6129921-3.7472973-2.0283464 0-3.6129921 1.58783784-3.6129921 3.7472973-.0633858 2.15945949 1.5846457 3.81081079 3.6129921 3.81081079z"/><path d="m43.1023622 4.25540541c2.4086614 0 3.2326772 1.77837837 3.2326772 1.77837837h.0633858s-.0633858-.31756756-.0633858-.82567567v-3.23918919h-1.7748032v-1.58783784h3.8031496v12.82972972c0 .3175676.1901575.4445946.4437008.4445946h1.0775591v1.5243243h-2.1551181c-.9507874 0-1.3311024-.4445946-1.3311024-1.1432432v-.1905406c0-.381081.0633858-.5716216.0633858-.5716216h-.0633858s-.8874016 2.1594595-3.5496063 2.1594595c-2.915748 0-4.6271654-2.2864865-4.6271654-5.58918921.0633859-3.36621621 2.0917323-5.58918918 4.8807087-5.58918918zm.2535433 9.46351349c1.5846457 0 3.1059055-1.1432432 3.1059055-3.74729728 0-1.96891892-1.0141732-3.81081081-3.0425197-3.81081081-1.7114173 0-3.1059055 1.3972973-3.1059055 3.7472973.1267717 2.28648649 1.2677166 3.81081079 3.0425197 3.81081079z"/><path d="m51.0889764 4.50945946h4.753937v1.58783784h-1.457874l1.8381889 6.1608108c.1267717.4445946.1901575 1.0162162.1901575 1.0162162h.0633859s.0633858-.5716216.1901574-1.0162162l2.3452756-7.74864864h1.838189l2.3452756 7.74864864c.1267716.4445946.1901575 1.0162162.1901575 1.0162162h.0633858s.0633858-.5716216.1901575-1.0162162l1.838189-6.1608108h-1.4578741v-1.58783784h4.753937v1.58783784h-1.3311023l-2.7889764 9.0189189h-2.2818898l-2.2818897-7.1135135c-.1267717-.50810811-.1901575-1.01621621-.1901575-1.01621621h-.0633858s-.0633859.5081081-.1901575 1.01621621l-2.2818898 7.1135135h-2.2185039l-2.7889764-9.08243242h-1.3311023z"/><path d="m75.5559055 8.63783784h.6972441v-.4445946c0-1.71486486-.9507874-2.28648648-2.2818898-2.28648648-1.7114173 0-3.1059055 1.01621621-3.1059055 1.01621621l-.8240157-1.46081081s1.5846457-1.27027027 3.9933071-1.27027027c2.7255905 0 4.1200787 1.3972973 4.1200787 4.06486487v4.76351354c0 .3175675.1901575.4445946.4437008.4445946h1.0775591v1.5878378h-2.1551182c-.9507874 0-1.3311023-.4445946-1.3311023-1.1432432v-.1270271c0-.4445946.0633858-.6986486.0633858-.6986486h-.0633858s-.9507874 2.2864865-3.4862205 2.2864865c-1.7748031 0-3.4862205-1.0162162-3.4862205-3.1756757.1267717-3.36621622 4.5637796-3.55675676 6.3385827-3.55675676zm-2.2818898 5.20810806c1.838189 0 2.9791339-1.8418918 2.9791339-3.4297297v-.44459458h-.5070866c-.9507874 0-4.3102362.06351348-4.3102362 2.09594598 0 .9527027.6338582 1.7783783 1.8381889 1.7783783z"/><path d="m83.415748 17.9108108c.8874016 0 1.5846457-.6351351 1.9649607-1.4608108l.4437007-1.0797297-3.6763779-9.272973h-1.3311024v-1.58783784h4.8173229v1.58783784h-1.3944882l2.4086614 6.3513513c.1267717.4445946.1901575.9527028.1901575.9527028h.0633858s.0633858-.4445946.2535433-.9527028l2.3452756-6.3513513h-1.3944882v-1.58783784h4.6905512v1.58783784h-1.3311024l-4.1834645 10.7337838c-.6972441 1.8418919-2.0917323 2.7945946-3.7397638 2.7945946-1.3944882 0-2.2818898-.6986487-2.2818898-.6986487l.6972441-1.5243243c-.0633858 0 .5704725.5081081 1.457874.5081081z"/><path d="m94.0011811 11.75h1.7748032v.6986486c0 .8891892 1.2677165 1.3337838 2.4720472 1.3337838s2.1551185-.5081081 2.1551185-1.3972973c0-1.0797297-1.2043311-1.3972973-2.6622051-1.9689189-1.5846457-.57162161-3.296063-1.33378377-3.296063-3.23918917 0-2.09594595 2.0917323-2.98513514 3.9299212-2.98513514 1.5212599 0 3.6763779.57162162 3.6763779 2.15945946v1.27027027h-1.774803v-.69864865c0-.63513513-.8240158-1.07972973-1.9015749-1.07972973-1.0141732 0-1.9015748.4445946-1.9015748 1.27027027 0 1.01621622 1.2043308 1.46081081 2.4720473 1.90540541 1.6480314.57162162 3.4862204 1.27027028 3.4862204 3.17567568 0 2.0324324-1.838189 3.1121622-4.2468503 3.1121622-1.9649607 0-4.1200788-.8891892-4.1200788-2.6040541z"/></g></g></svg>