<svg height="110" viewBox="0 0 230 110" width="230" xmlns="http://www.w3.org/2000/svg"><g fill="#444" transform="translate(36 42)"><path d="m146.652234 21.8033898c-.380069.7593221-.814433 1.3016949-1.46598 1.7355933-.597251.379661-1.411684.5966101-2.280412.5966101-1.791753 0-3.04055-.6508474-3.746392-2.0067796-.760137-1.3559322-1.08591-3.6881356-1.08591-7.1050848 0-3.5254237.380068-5.96610168 1.08591-7.2677966.705842-1.3559322 1.954639-2.00677966 3.692096-2.00677966.868729 0 1.574571.16271187 2.171822.4881356.597251.32542372 1.08591.81355932 1.411684 1.46440678v-7.37627119h4.289347v23.26779657h-4.01787zm-4.289347-7.2135593c0 2.7118644.162886 4.3932203.434364 5.0983051.271478.7050847.814433 1.0305085 1.520275 1.0305085.868728 0 1.411684-.3254238 1.737457-.9220339.325773-.5966102.48866-1.8983051.48866-3.7966102 0-3.0915254-.162887-4.9898305-.48866-5.8033898-.325773-.75932206-.868729-1.13898308-1.737457-1.13898308-.760138 0-1.248797.32542373-1.520275.97627118-.271478.6508475-.434364 2.1694915-.434364 4.5559322zm-11.727835 9.0033898v-17.46440674h4.235051v17.46440674zm0-19.63389827v-3.6338983h4.235051v3.6338983zm-3.149141 12.79999997v.3796611.5966101c0 2.1694915-.48866 3.7423729-1.46598 4.7728814-.977319 1.0305085-2.497594 1.5728813-4.506529 1.5728813-2.280412 0-3.909278-.6508474-4.832302-1.9525423-.923024-1.301695-1.357389-3.6881356-1.357389-7.2677967 0-3.5254237.434365-5.91186436 1.357389-7.26779656.923024-1.30169492 2.55189-1.95254237 4.832302-1.95254237 2.008935 0 3.52921.48813559 4.506529 1.41016949.97732.97627118 1.46598 2.44067796 1.46598 4.44745764v.5966102h-4.072165v-.3796611c0-1.0847457-.162887-1.84406776-.434365-2.27796606-.271477-.4881356-.760137-.70508475-1.411683-.70508475-.651547 0-1.140207.21694915-1.411684.70508475-.271478.4338983-.434365 1.19322036-.434365 2.27796606v6.020339c0 1.1932204.162887 2.061017.434365 2.4949153.271477.4881356.760137.7050847 1.411684.7050847.705842 0 1.194501-.2711864 1.520275-.8135593.271477-.5423729.434364-1.5728814.434364-3.0372881v-.3796611zm-27.690722-1.8983051c0-3.5254237.48866-5.91186436 1.411684-7.26779656.977319-1.30169492 2.606185-1.95254237 5.049484-1.95254237 2.389004 0 4.072165.65084745 5.049485 1.95254237.97732 1.30169491 1.411684 3.74237286 1.411684 7.26779656 0 3.5254238-.48866 5.9661017-1.411684 7.2677967-.97732 1.3016949-2.660481 1.9525423-5.049485 1.9525423-2.389003 0-4.072165-.6508474-5.049484-1.9525423-.923024-1.301695-1.411684-3.7423729-1.411684-7.2677967zm4.343643-.1627118v.4338983c0 2.7118644.162886 4.3932203.434364 4.9898305s.814433.9220339 1.628866.9220339c.868728 0 1.411684-.2711864 1.683161-.8677966.271478-.5423729.434365-2.061017.434365-4.4474576v-.7050848-.9762712c0-2.2779661-.162887-3.7423729-.434365-4.33898302-.325773-.59661017-.868728-.86779661-1.683161-.86779661s-1.357388.27118644-1.683162.81355932c-.325773.54237291-.434364 1.84406781-.434364 3.90508471v1.1389831zm-19.6006877 8.8949152v-23.26779657h4.2893471v7.26779661c.3800687-.65084746.814433-1.13898305 1.4116839-1.46440678.5972508-.32542373 1.3030927-.48813559 2.1718213-.48813559 1.737457 0 2.9862543.65084745 3.6920962 2.00677966.7058419 1.3559322 1.0316151 3.74237287 1.0316151 7.26779657 0 3.4169492-.3800687 5.8033899-1.0859106 7.1050848-.705842 1.3559322-1.9546392 2.0067796-3.7463918 2.0067796-.8687285 0-1.628866-.2169491-2.2804124-.5966101s-1.0859106-.9762712-1.4659794-1.7355932v1.8440678zm6.3525773-14.53559318c-.8687285 0-1.4116838.37966102-1.737457 1.13898308-.3257732.759322-.4886598 2.5491525-.4886598 5.3694915 0 2.1694915.1628866 3.579661.4886598 4.1762712.3257732.6508474.8687285.9220339 1.737457.9220339.7601375 0 1.2487973-.3254237 1.520275-1.0305085.2714776-.7050847.4343642-2.2779661.4343642-4.7728814 0-2.6033898-.108591-4.2305084-.4343642-4.88135588-.2714777-.59661017-.814433-.9220339-1.520275-.9220339zm-30.785567 14.53559318v-17.46440674h3.9635739v2.00677966c.4886598-.9220339 1.0859107-1.57288136 1.7374571-1.89830508.6515464-.37966102 1.5745704-.54237289 2.7147766-.54237289.9230241 0 1.6831615.21694916 2.3347079.59661017.6515464.37966102 1.1402062.9220339 1.4116839 1.62711865.5429553-.75932204 1.1945017-1.35593221 1.8460481-1.68135593.6515464-.32542373 1.4659793-.4881356 2.3890034-.4881356 1.4659794 0 2.55189.37966102 3.257732 1.13898305.7601374.75932204 1.0859106 1.89830509 1.0859106 3.36271191v13.4508474h-4.180756v-11.2813559c0-1.3559322-.1628866-2.2779661-.4343643-2.65762714-.2714776-.37966101-.814433-.59661017-1.6288659-.59661017-.7601375 0-1.2487973.21694916-1.5745705.70508475-.3257732.43389826-.4886598 1.30169496-.4886598 2.49491526v11.2813559h-4.1264605v-11.3898305c0-1.1932203-.1628866-2.0067796-.4343642-2.44067795-.2714777-.4338983-.814433-.65084746-1.5202749-.65084746-.7601375 0-1.3030928.21694916-1.628866.70508475-.3257732.48813556-.4886598 1.24745766-.4886598 2.33220336v11.4440678h-4.2350516zm-16.1257732-8.7322034c0-3.5254237.4886598-5.91186436 1.4116839-7.26779656.9773196-1.30169492 2.6061856-1.95254237 5.0494845-1.95254237 2.3890035 0 4.072165.65084745 5.0494846 1.95254237.9773196 1.30169491 1.4116838 3.74237286 1.4116838 7.26779656 0 3.5254238-.4886598 5.9661017-1.4116838 7.2677967-.9773196 1.3016949-2.6604811 1.9525423-5.0494846 1.9525423-2.3890034 0-4.0721649-.6508474-5.0494845-1.9525423-.9773196-1.301695-1.4116839-3.7423729-1.4116839-7.2677967zm4.3436427-.1627118v.4338983c0 2.7118644.1628866 4.3932203.4343642 4.9898305.2714777.5966102.814433.9220339 1.628866.9220339.8687285 0 1.4116838-.2711864 1.6831615-.8677966.3257732-.5423729.4343643-2.061017.4343643-4.4474576v-.7050848-.9762712c0-2.2779661-.1628866-3.7423729-.4343643-4.33898302-.3257732-.59661017-.8687285-.86779661-1.6831615-.86779661s-1.3573883.27118644-1.6831615.81355932c-.3257732.54237291-.4343643 1.84406781-.4343643 3.90508471v1.1389831zm-14.7683849 8.8949152v-17.46440674h4.0721649v2.82033898c.5972509-1.19322034 1.1945017-2.00677966 1.8460481-2.54915254.6515464-.48813559 1.4659794-.75932203 2.443299-.75932203v4.93559323c-.1628866 0-.3257732-.0542373-.4886598-.0542373s-.3257732 0-.5972509 0c-.923024 0-1.6288659.2711864-2.1718213.759322-.5429553.5423729-.8144329 1.1932204-.8144329 2.061017v10.2508474zm-15.8 0v-23.26779657h4.2350515v7.43050847c.3800688-.65084745.8687285-1.19322034 1.5202749-1.57288135.6515464-.37966102 1.4116839-.54237288 2.2261169-.54237288 1.3573883 0 2.3347079.37966101 3.0405498 1.08474576.7058419.70508474 1.0859107 1.78983051 1.0859107 3.14576271v13.72203386h-4.1264605v-11.7152542c0-1.0847458-.1085911-1.8440678-.3800688-2.22372881-.2714776-.37966102-.6515463-.54237288-1.3030927-.54237288-.7601375 0-1.3030928.21694915-1.628866.75932203-.3257732.48813556-.4886598 1.35593216-.4886598 2.60338986v11.118644zm-11.99931274 0v-19.41694911h-5.26666667v-3.85084746h15.03986251v3.85084746h-5.2123711v19.41694911z"/><path d="m154.633677 2.82033898h.217182c.325773 0 .542955 0 .597251-.05423729.054295 0 .162887-.05423728.162887-.10847457.054295-.05423729.054295-.10847458.054295-.21694915 0-.05423729 0-.16271187-.054295-.21694916-.054296-.05423728-.108592-.10847457-.162887-.10847457-.108591 0-.271478-.05423729-.597251-.05423729h-.217182zm-.542955 1.51864407v-2.60338983h.542955.868728c.162887 0 .325774.05423729.434365.10847458.108591.05423728.162886.16271186.271477.27118644.054296.10847457.108591.21694915.108591.37966101 0 .16271187-.054295.32542373-.217182.4881356-.108591.16271186-.325773.21694915-.542955.27118644.108591.05423729.162887.05423729.217182.10847457.054296.05423729.108591.10847458.162887.21694916 0 0 .108591.10847457.217182.32542373l.325773.54237288h-.705842l-.217182-.43389831c-.162887-.27118644-.271478-.48813559-.380069-.54237288s-.217182-.10847458-.380068-.10847458h-.162887v1.08474577h-.542955zm1.194501-3.30847458c-.380068 0-.705842.10847458-1.031615.27118645-.325773.16271186-.597251.4338983-.760137.75932203-.162887.32542373-.271478.65084746-.271478.97627119 0 .32542372.108591.65084745.271478.97627118.162886.32542373.434364.54237288.760137.75932204.325773.16271186.651547.27118644 1.031615.27118644.380069 0 .705842-.10847458 1.031615-.27118644.325774-.16271187.597251-.43389831.760138-.75932204s.271478-.65084746.271478-.97627118c0-.32542373-.108591-.70508475-.271478-.97627119-.162887-.32542373-.434364-.54237288-.760138-.75932203-.325773-.21694916-.705841-.27118645-1.031615-.27118645zm0-.48813559c.434365 0 .868729.10847458 1.303093.32542373s.760138.54237288.97732.9220339.325773.81355932.325773 1.24745763c0 .4338983-.108591.86779661-.325773 1.24745762-.217182.37966102-.542956.70508475-.97732.9220339s-.868728.32542373-1.303093.32542373c-.434364 0-.868728-.10847458-1.303092-.32542373-.434365-.21694915-.705842-.54237288-.97732-.9220339-.217182-.37966101-.325773-.81355932-.325773-1.24745762 0-.43389831.108591-.86779661.325773-1.24745763s.542955-.70508475.97732-.9220339c.434364-.21694915.814433-.32542373 1.303092-.32542373z"/><path d="m78.2398625 29.559322c0 .3796611.0542956.5966102.2171822.8135594.1628866.1627118.3257732.2711864.5972508.2711864.2171822 0 .4343643-.1084746.5972509-.2711864.1628866-.1627119.2171821-.4338983.2171821-.8135594 0-.3254237-.0542955-.5966101-.2171821-.759322s-.3257732-.2711864-.5972509-.2711864c-.2171821 0-.4343642.1084745-.5972508.2711864s-.2171822.4338983-.2171822.759322zm-.4886598 0c0-.4881356.1628866-.8677966.4343643-1.138983.2171821-.2169492.5429553-.3254237.8687285-.3254237.3800688 0 .705842.1084745.9230241.379661.2171821.2711864.3800687.5966101.3800687 1.0305084 0 .3796611-.0542955.6508475-.1628866.8135594-.108591.2169491-.2714776.379661-.4886598.4881356-.2171821.1084745-.4343642.1627118-.6515464.1627118-.3800687 0-.7058419-.1084746-.923024-.379661-.2714777-.2169491-.3800688-.5423729-.3800688-1.0305085zm-2.7690721 1.4101695v-2.7661017h.4343642v.379661c.2171822-.3254237.4886598-.4338983.8687286-.4338983.1628866 0 .3257732.0542373.4886598.1084746s.2171821.1627119.3257732.2169492c.0542955.1084745.108591.2169491.1628866.3254237v.4338983 1.6813559h-.4886598v-1.6813559c0-.2169491 0-.3254237-.0542956-.4338983-.0542955-.1084746-.108591-.1627119-.2171821-.2169492-.1085911-.0542372-.2171821-.1084745-.3257732-.1084745-.2171821 0-.3800687.0542373-.5429553.2169491-.1628866.1084746-.2171822.379661-.2171822.7050848v1.518644h-.4343642zm-1.1945017-1.4101695c-.1628866.0542373-.4343643.1084746-.7601375.1627119-.2171821.0542373-.3257732.0542373-.4343643.1084746-.0542955.0542373-.1628866.1084746-.1628866.1627118-.0542955.0542373-.0542955.1627119-.0542955.2169492 0 .1084746.0542955.2169491.1628866.3254237s.2171821.1084746.4343643.1084746c.1628866 0 .3257732-.0542373.4886598-.1084746s.2171821-.1627118.3257732-.3254237c.0542955-.1084746.0542955-.2711864.0542955-.4881356zm0 1.0305085c-.1628866.1627119-.3257732.2711864-.4886598.3254237s-.3257732.1084746-.5429554.1084746c-.3257732 0-.5429553-.0542373-.7058419-.2169491-.1628866-.1627119-.2714776-.3254238-.2714776-.5423729 0-.1084746.0542955-.2711865.108591-.379661.0542956-.1084746.1628866-.2169492.2171822-.2711865.108591-.0542373.2171821-.1084746.3257731-.1627118.1085911 0 .2171822-.0542373.4343643-.0542373.3800687-.0542373.6515464-.1084746.814433-.1627119 0-.0542373 0-.1084746 0-.1084746 0-.2169491-.0542955-.3254237-.1085911-.379661-.108591-.1084746-.3257732-.1627119-.5429553-.1627119s-.3800687.0542373-.4886598.1084746-.1628866.2169492-.2171821.4338983l-.4343643-.0542373c.0542956-.2169491.1085911-.379661.2171822-.4881356.108591-.1084745.2171821-.2169491.4343642-.2711864.1628866-.0542373.3800687-.1084746.6515464-.1084746.2171821 0 .4343643 0 .5972509.1084746.1628866.0542373.2714776.1084746.3257732.2169492.0542955.1084745.108591.2169491.1628866.3254237v.4338983.4881356c0 .4338983 0 .7050847.0542955.8135593 0 .1084746.0542955.2169492.1085911.3254237h-.4886598c-.1085911-.0542373-.1085911-.1627118-.1628866-.3254237zm-4.6694158-.4881356.4886598-.0542373c0 .1627119.108591.3254238.2171821.4338983.108591.1084746.2714776.1627119.4886598.1627119.2171821 0 .3800687-.0542373.4886598-.1084746.108591-.1084746.1628866-.2169491.1628866-.3254237s-.0542956-.2169492-.1628866-.2711864c-.0542956-.0542373-.2171822-.1084746-.4886598-.1627119-.3257732-.1084746-.5972509-.1627119-.7058419-.2169492-.1085911-.0542373-.2171822-.1627118-.3257732-.2711864-.0542956-.1084746-.1085911-.2169492-.1085911-.379661 0-.1084746 0-.2169492.1085911-.3254238.0542955-.1084745.108591-.2169491.2171821-.2711864.0542955-.0542373.1628866-.1084746.3257732-.1627119.108591-.0542372.2714776-.0542372.3800687-.0542372.2171821 0 .4343643.0542372.5972509.1084745s.2714776.1627119.3800687.2711865c.0542955.1084745.1085911.2711864.1628866.4338983l-.4343643.0542373c0-.1627119-.0542955-.2711865-.1628866-.3254238-.108591-.0542373-.2171821-.1084745-.4343642-.1084745-.2171822 0-.3800688.0542372-.4343643.1084745-.108591.0542373-.1628866.1627119-.1628866.2711865 0 .0542373 0 .1084746.0542956.1627118.0542955.0542373.108591.1084746.1628865.1084746.0542956 0 .1628866.0542373.4343643.1084746.3257732.1084746.5429553.1627119.7058419.2169491.1085911.0542373.2171822.1627119.3257732.2711865.0542956.1084746.1085911.2169491.1085911.379661s-.0542955.3254237-.1628866.4338983c-.1085911.1627119-.2171821.2711864-.3800687.3254237s-.3800688.1084746-.5972509.1084746c-.3800687 0-.6515464-.0542373-.814433-.2169491-.2171821-.1627119-.3800687-.3796611-.4343642-.7050848zm-2.443299-.5423729c0 .3796611.0542955.5966102.2171821.8135594.1628866.1627118.3257732.2711864.5972509.2711864.2171821 0 .4343642-.1084746.5972508-.2711864.1628866-.1627119.2171822-.4338983.2171822-.8135594 0-.3254237-.0542956-.5966101-.2171822-.759322s-.3257732-.2711864-.5972508-.2711864c-.2171822 0-.4343643.1084745-.5972509.2711864s-.2171821.4338983-.2171821.759322zm-.4886598 0c0-.4881356.1628866-.8677966.4343643-1.138983.2171821-.2169492.5429553-.3254237.8687285-.3254237.3800687 0 .7058419.1084745.923024.379661.2171822.2711864.3800688.5966101.3800688 1.0305084 0 .3796611-.0542956.6508475-.1628866.8135594-.1085911.2169491-.2714777.379661-.4886598.4881356-.2171822.1084745-.4343643.1627118-.6515464.1627118-.3800687 0-.7058419-.1084746-.9230241-.379661-.2714776-.2169491-.3800687-.5423729-.3800687-1.0305085zm-.2714777.9762712.0542956.4338983c-.1085911 0-.2714777.0542373-.3800688.0542373-.1628866 0-.3257732 0-.3800687-.0542373-.1085911-.0542373-.1628866-.1084746-.2171821-.2169491-.0542956-.1084746-.0542956-.2711865-.0542956-.5423729v-1.5728814h-.3257732v-.379661h.3257732v-.7050847l.4886598-.2711865v.9762712h.4886598v.379661h-.4886598v1.6271187.2711864c0 .0542373.0542956.0542373.0542956.1084746.0542955 0 .108591.0542373.1628866.0542373.108591-.1627119.1628866-.1627119.2714776-.1627119zm-4.0178694.4338983v-2.7661017h.4343643v.379661c.2171821-.3254237.4886598-.4338983.8687285-.4338983.1628866 0 .3257732.0542373.4343643.1084746.1628866.0542373.2171821.1627119.3257732.2169492.0542955.1084745.108591.2169491.1628866.3254237v.4338983 1.6813559h-.4886598v-1.6813559c0-.2169491 0-.3254237-.0542956-.4338983-.0542955-.1084746-.108591-.1627119-.2171821-.2169492-.1085911-.0542372-.2171821-.1084745-.3257732-.1084745-.2171821 0-.3800687.0542373-.5429553.2169491-.1628866.1084746-.2171822.379661-.2171822.7050848v1.518644h-.3800687zm-2.6061856-1.6813559h1.520275c0-.2169492-.0542956-.4338983-.1628866-.5423729-.1628866-.1627119-.3257732-.2711864-.5972509-.2711864-.2171821 0-.3800687.0542373-.5429553.2169491-.1085911.1627119-.2171822.379661-.2171822.5966102zm1.520275.759322.4886598.0542373c-.0542956.2711865-.2171822.4881356-.4343643.6508475-.2171821.1627118-.4886598.2169491-.814433.2169491-.3800687 0-.7058419-.1084746-.9773196-.379661-.2171821-.2711864-.3800687-.5966102-.3800687-1.0305085 0-.4881356.1085911-.8135593.3800687-1.0847457.2171821-.2711865.5429553-.379661.9230241-.379661.3800687 0 .6515464.1084745.923024.379661.2171822.2711864.3257732.5966101.3257732 1.0847457v.1084746h-2.0632302c0 .3254237.108591.5423729.2714776.7050848.1628866.1627118.3257732.2169491.5972509.2169491.1628866 0 .3257732-.0542373.4343643-.1627119.1628866-.0542372.2714776-.1627118.3257732-.379661zm-4.3979382-.4881356c0 .3796611.0542956.5966102.2171821.7593221.1628866.1627118.3257732.2711864.5429554.2711864.2171821 0 .3800687-.1084746.5429553-.2711864.1628866-.1627119.2171821-.4338983.2171821-.8135594 0-.3254237-.0542955-.5966101-.2171821-.8135593-.1628866-.1627118-.3257732-.2711864-.5429553-.2711864-.2171822 0-.3800688.1084746-.5429554.2711864-.1628865.2711865-.2171821.5423729-.2171821.8677966zm-.4343642 2.440678v-3.8508475h.4343642v.3796611c.1085911-.1627119.2171821-.2711865.3257732-.3254238s.2714777-.1084745.4343643-.1084745c.2171821 0 .4343642.0542372.6515464.1627118.1628866.1084746.3257732.2711865.4343642.4881356.1085911.2169492.1628866.4881356.1628866.7050848 0 .2711864-.0542955.5423728-.1628866.759322-.108591.2169491-.2714776.379661-.4343642.5423729-.2171822.1084745-.3800688.1627118-.5972509.1627118-.1628866 0-.2714777-.0542373-.4343643-.1084745-.108591-.0542373-.2171821-.1627119-.3257731-.2711865v1.3559322h-.4886598zm-4.1264605-2.7118644h1.5202749c0-.2169492-.0542955-.4338983-.1628866-.5423729-.1628866-.1627119-.3257732-.2711864-.5972509-.2711864-.2171821 0-.3800687.0542373-.5429553.2169491-.1085911.1627119-.2171821.379661-.2171821.5966102zm1.5202749.759322.4886598.0542373c-.0542955.2711865-.2171821.4881356-.4343643.6508475-.2171821.1627118-.4886598.2169491-.814433.2169491-.3800687 0-.7058419-.1084746-.9773196-.379661-.2171821-.2711864-.3800687-.5966102-.3800687-1.0305085 0-.4881356.1085911-.8135593.3800687-1.0847457.2171822-.2711865.5429554-.379661.9230241-.379661s.6515464.1084745.9230241.379661c.2171821.2711864.3800687.5966101.3800687 1.0847457v.1084746h-2.0632303c0 .3254237.1085911.5423729.2714777.7050848.1628866.1627118.3257732.2169491.5972509.2169491.1628866 0 .3257732-.0542373.4343642-.1627119.1085911-.0542372.2171822-.1627118.2714777-.379661zm-4.5065292-.4881356c0 .3796611.0542955.5966102.2171821.8135594.1628866.1627118.3257732.2711864.5429553.2711864.2171822 0 .3800688-.1084746.5429554-.2711864.1628866-.1627119.2171821-.4338983.2171821-.7593221 0-.379661-.0542955-.6508474-.2171821-.8135593s-.3257732-.2711864-.5429554-.2711864c-.2171821 0-.3800687.1084745-.5429553.2711864s-.2171821.379661-.2171821.759322zm1.4659794 1.4101695v-.3254237c-.1628866.2711864-.4343643.4338983-.7601375.4338983-.2171821 0-.4343643-.0542373-.5972509-.1627119-.1628866-.1084745-.3257731-.2711864-.4343642-.4881356-.1085911-.2169491-.1628866-.4881355-.1628866-.759322 0-.2711864.0542955-.5423729.1628866-.759322.1085911-.2169492.2171821-.379661.4343642-.4881356.1628866-.1084746.3800688-.1627119.5972509-.1627119.1628866 0 .3257732.0542373.4343643.1084746.108591.0542373.2171821.1627119.3257732.2711864v-1.3559322h.4886598v3.7966102h-.4886598zm-5.9182131-1.4101695c0 .3796611.0542955.5966102.2171821.8135594.1628866.1627118.3257732.2711864.5972509.2711864.2171821 0 .4343643-.1084746.5972509-.2711864.1628866-.1627119.2171821-.4338983.2171821-.8135594 0-.3254237-.0542955-.5966101-.2171821-.759322s-.3257732-.2711864-.5972509-.2711864c-.2171821 0-.4343643.1084745-.5972509.2711864s-.2171821.4338983-.2171821.759322zm-.4886598 0c0-.4881356.1628866-.8677966.4343643-1.138983.2171821-.2169492.5429553-.3254237.8687285-.3254237.3800687 0 .7058419.1084745.923024.379661.2171822.2711864.3800688.5966101.3800688 1.0305084 0 .3796611-.0542956.6508475-.1628866.8135594-.1085911.2169491-.2714777.379661-.4886598.4881356-.2171821.1084745-.4343643.1627118-.6515464.1627118-.3800687 0-.7058419-.1084746-.9230241-.379661-.2714776-.2169491-.3800687-.5423729-.3800687-1.0305085zm-.7058419.3796611.4343642.0542372c-.0542955.3254238-.1628866.5423729-.3800687.7593221-.2171821.1627118-.4343642.2711864-.7601374.2711864-.3800688 0-.705842-.1084746-.9230241-.379661s-.3257732-.5966102-.3257732-1.0847458c0-.3254237.0542955-.5423728.1628866-.759322s.2714777-.379661.4343643-.4881356c.2171821-.1084746.4343642-.1627119.6515464-.1627119.3257732 0 .5429553.0542373.7601374.2169492s.3257732.379661.3800687.6508475l-.4343642.0542372c-.0542955-.1627118-.1085911-.3254237-.2171821-.4338983-.1085911-.1084745-.2171822-.1627118-.3800688-.1627118-.2171821 0-.4343642.1084745-.5972508.2711864s-.2171822.4338983-.2171822.8135593c0 .3796611.0542956.6508475.2171822.8135594.1628866.1627118.3257732.2711864.5429553.2711864.1628866 0 .3257732-.0542373.4886598-.1627119.0542955-.1084745.1085911-.3254237.1628866-.5423728zm-2.9862543 1.0305084v-2.7661017h.4886598v2.7661017zm0-3.3084746v-.5423728h.4886598v.5423728zm-2.6604811 1.8983051c0 .3796611.0542955.5966102.2171821.8135594.1628866.1627118.3257732.2711864.5429553.2711864.2171822 0 .3800688-.1084746.5429554-.2711864.1628866-.1627119.2171821-.4338983.2171821-.7593221 0-.379661-.0542955-.6508474-.2171821-.8135593s-.3257732-.2711864-.5429554-.2711864c-.2171821 0-.3800687.1084745-.5429553.2711864s-.2171821.379661-.2171821.759322zm1.4659794 1.4101695v-.3254237c-.1628866.2711864-.4343643.4338983-.7601375.4338983-.2171821 0-.4343642-.0542373-.5972508-.1627119-.1628866-.1084745-.3257732-.2711864-.4343643-.4881356-.1085911-.2169491-.1628866-.4881355-.1628866-.759322 0-.2711864.0542955-.5423729.1628866-.759322.1085911-.2169492.2171821-.379661.4343643-.4881356.1628866-.1084746.3800687-.1627119.5972508-.1627119.1628866 0 .3257732.0542373.4343643.1084746.108591.0542373.2171821.1627119.3257732.2711864v-1.3559322h.4886598v3.7966102h-.4886598zm-4.0178694-3.1457627.3257732-.7050847h.5972508l-.5972508.7050847zm-.4343643 1.7355932c0 .3796611.0542955.5966102.2171821.8135594.1628866.1627118.3257732.2711864.5972509.2711864.2171821 0 .4343642-.1084746.5972508-.2711864.1628866-.1627119.2171822-.4338983.2171822-.8135594 0-.3254237-.0542956-.5966101-.2171822-.759322s-.3257732-.2711864-.5972508-.2711864c-.2171821 0-.4343643.1084745-.5972509.2711864-.108591.1627119-.2171821.4338983-.2171821.759322zm-.4886598 0c0-.4881356.1628866-.8677966.4343643-1.138983.2171821-.2169492.5429553-.3254237.8687285-.3254237.3800687 0 .7058419.1084745.923024.379661.2171822.2711864.3800688.5966101.3800688 1.0305084 0 .3796611-.0542956.6508475-.1628866.8135594-.1085911.2169491-.2714777.379661-.4886598.4881356-.2171822.1084745-.4343643.1627118-.6515464.1627118-.3800687 0-.7058419-.1084746-.9230241-.379661-.2714776-.2169491-.3800687-.5423729-.3800687-1.0305085zm-2.6604811.5423729.4886598-.0542373c0 .1627119.1085911.3254238.2171821.4338983.1085911.1084746.2714777.1627119.4886598.1627119.2171822 0 .3800687-.0542373.4886598-.1084746.1085911-.1084746.1628866-.2169491.1628866-.3254237s-.0542955-.2169492-.1628866-.2711864c-.0542955-.0542373-.2171821-.1084746-.4886598-.1627119-.3257732-.1084746-.5972508-.1627119-.7058419-.2169492s-.2171821-.1627118-.3257732-.2711864c-.0542955-.1084746-.1085911-.2169492-.1085911-.379661 0-.1084746.0542956-.2169492.1085911-.3254238.0542955-.1084745.1085911-.2169491.2171821-.2711864.0542956-.0542373.1628866-.1084746.2714777-.1627119.1085911-.0542372.2714777-.0542372.4343643-.0542372.2171821 0 .3800687.0542372.5972508.1084745.1628866.0542373.2714777.1627119.3800687.2711865.0542956.1084745.1085911.2711864.1628866.4338983l-.4343642.0542373c0-.1627119-.0542956-.2711865-.1628866-.3254238-.1085911-.0542373-.2171821-.1084745-.4343643-.1084745-.2171821 0-.3800687.0542372-.4343642.1084745-.1085911.0542373-.1628866.1627119-.1628866.2711865 0 .0542373 0 .1084746.0542955.1627118.0542955.0542373.1085911.1084746.1628866.1084746s.1628866.0542373.4343643.1084746c.3257731.1084746.5429553.1627119.7058419.2169491.108591.0542373.2171821.1627119.3257732.2711865.0542955.1084746.108591.2169491.108591.379661s-.0542955.3254237-.1628866.4338983c-.108591.1627119-.2171821.2711864-.3800687.3254237s-.3800687.1084746-.5972508.1084746c-.3800688 0-.6515464-.0542373-.814433-.2169491-.2714777-.1627119-.3800688-.3796611-.4343643-.7050848zm-3.9635739-.5423729c0 .3796611.0542956.5966102.2171821.8135594.1628866.1627118.3257732.2711864.5972509.2711864.2171821 0 .4343643-.1084746.5972509-.2711864.1628866-.1627119.2171821-.4338983.2171821-.8135594 0-.3254237-.0542955-.5966101-.2171821-.759322s-.3257732-.2711864-.5972509-.2711864c-.2171821 0-.4343643.1084745-.5972509.2711864-.1628865.1627119-.2171821.4338983-.2171821.759322zm-.4886598 0c0-.4881356.1628866-.8677966.4343643-1.138983.2171821-.2169492.5429553-.3254237.8687285-.3254237.3800687 0 .7058419.1084745.9230241.379661.2171821.2711864.3800687.5966101.3800687 1.0305084 0 .3796611-.0542955.6508475-.1628866.8135594-.1085911.2169491-.2714777.379661-.4886598.4881356-.2171821.1084745-.4343643.1627118-.6515464.1627118-.3800687 0-.7058419-.1084746-.923024-.379661-.2714777-.2169491-.3800688-.5423729-.3800688-1.0305085zm-.2714776.9762712.0542955.4338983c-.1085911 0-.2714777.0542373-.3800687.0542373-.1628866 0-.3257732 0-.3800688-.0542373-.108591-.0542373-.1628866-.1084746-.2171821-.2169491-.0542955-.1084746-.0542955-.2711865-.0542955-.5423729v-1.5728814h-.3257732v-.379661h.3257732v-.7050847l.4886598-.2711865v.9762712h.4886598v.379661h-.4886598v1.6271187.2711864c0 .0542373.0542955.0542373.0542955.1084746.0542955 0 .1085911.0542373.1628866.0542373.1085911-.1627119.1628866-.1627119.2714777-.1627119zm-2.2261169-.9762712c-.1628866.0542373-.4343642.1084746-.7601374.1627119-.2171822.0542373-.3257732.0542373-.4343643.1084746-.0542955.0542373-.1628866.1084746-.1628866.1627118-.0542955.0542373-.0542955.1627119-.0542955.2169492 0 .1084746.0542955.2169491.1628866.3254237.108591.1084746.2171821.1084746.4343642.1084746.1628866 0 .3257732-.0542373.4886598-.1084746s.2171822-.1627118.3257732-.3254237c.0542956-.1084746.0542956-.2711864.0542956-.4881356zm.0542956 1.0305085c-.1628866.1627119-.3257732.2711864-.4886598.3254237s-.3257732.1084746-.5429554.1084746c-.3257732 0-.5429553-.0542373-.7058419-.2169491-.1628866-.1627119-.2714777-.3254238-.2714777-.5423729 0-.1084746.0542956-.2711865.1085911-.379661.0542955-.1084746.1628866-.2169492.2171821-.2711865.1085911-.0542373.2171822-.1084746.3257732-.1627118.1085911 0 .2171822-.0542373.4343643-.0542373.3800687-.0542373.6515464-.1084746.814433-.1627119 0-.0542373 0-.1084746 0-.1084746 0-.2169491-.0542955-.3254237-.1085911-.379661-.108591-.1084746-.3257732-.1627119-.5429553-.1627119s-.3800687.0542373-.4886598.1084746-.1628866.2169492-.2171821.4338983l-.4343643-.0542373c.0542955-.2169491.1085911-.379661.2171821-.4881356.1085911-.1084745.2171822-.2169491.4343643-.2711864.1628866-.1627119.3257732-.1627119.5972509-.1627119.2171821 0 .4343642 0 .5972508.1084746.1628866.0542373.2714777.1084746.3257732.2169492.0542956.1084745.1085911.2169491.1628866.3254237v.4338983.5423729c0 .4338983 0 .7050847.0542955.8135593 0 .1084746.0542956.2169492.1085911.3254237h-.4886598c-.108591-.0542373-.108591-.1627118-.108591-.3254237zm-3.2034365.379661v-2.3864407h-.4343642v-.379661h.4343642v-.2711864c0-.1627119 0-.3254237.0542956-.4338983.0542955-.1084746.108591-.2169492.2171821-.2711865.1085911-.0542372.2714777-.1084745.4886598-.1084745.1085911 0 .2714777 0 .4343642.0542373l-.0542955.4338983c-.108591 0-.2171821 0-.2714776 0-.1628866 0-.2171822.0542372-.3257732.1084745-.0542956.0542373-.1085911.1627119-.1085911.3254238v.2711864h.5429553v.379661h-.5429553v2.3864407h-.4343643zm-1.3030928 0v-3.7966101h.4886598v3.7966101zm-1.1402061 0v-.4338983c-.2171822.3254237-.4886598.4881356-.8687286.4881356-.1628866 0-.3257732-.0542373-.4343642-.1084746-.1628866-.0542373-.2714777-.1627118-.3257732-.2169491-.0542956-.1084746-.1085911-.2169492-.1628866-.3254237 0-.1084746-.0542955-.2169492-.0542955-.4338983v-1.7355933h.4886597v1.5186441c0 .2711864 0 .4338983.0542956.4881356.0542955.1084746.108591.2169491.1628866.2711864.108591.0542373.2171821.1084746.3800687.1084746s.2714777-.0542373.3800687-.1084746c.1085911-.0542373.2171822-.1627118.2714777-.2711864s.0542955-.3254237.0542955-.5423729v-1.4644068h.4886598v2.7661017zm-4.6694158-.8677966.4886597-.0542373c0 .1627119.1085911.3254238.2171822.4338983.108591.1084746.2714776.1627119.4886598.1627119.2171821 0 .3800687-.0542373.4886598-.1084746.108591-.1084746.1628866-.2169491.1628866-.3254237s-.0542956-.2169492-.1628866-.2711864c-.0542956-.0542373-.2171822-.1084746-.4886598-.1627119-.3257732-.1084746-.5972509-.1627119-.705842-.2169492-.108591-.0542373-.2171821-.1627118-.3257731-.2711864-.0542956-.1084746-.1085911-.2169492-.1085911-.379661 0-.1084746.0542955-.2169492.1085911-.3254238.0542955-.1084745.108591-.2169491.2171821-.2711864.0542955-.0542373.1628866-.1084746.3257732-.1627119.108591-.0542372.2714776-.0542372.3800687-.0542372.2171821 0 .4343643.0542372.5972509.1084745s.2714776.1627119.3800687.2711865c.0542955.1084745.1085911.2711864.1628866.4338983l-.4343643.0542373c0-.1627119-.108591-.2711865-.1628866-.3254238-.108591-.0542373-.2171821-.1084745-.4343642-.1084745-.2171822 0-.3800688.0542372-.4343643.1084745-.1085911.0542373-.1628866.1627119-.1628866.2711865 0 .0542373 0 .1084746.0542955.1627118.0542956.0542373.1085911.1084746.1628866.1084746.0542956 0 .1628866.0542373.4343643.1084746.3257732.1084746.5429553.1627119.7058419.2169491.1085911.0542373.2171822.1627119.3257732.2711865.0542956.1084746.1085911.2169491.1085911.379661s-.0542955.3254237-.1085911.4338983c-.108591.1627119-.2171821.2711864-.3800687.3254237s-.3800687.1084746-.5972509.1084746c-.3800687 0-.6515464-.0542373-.814433-.2169491-.3257731-.1627119-.4343642-.3796611-.4886597-.7050848zm-1.0316152.8677966v-2.7661017h.4886598v2.7661017zm0-3.3084746v-.5423728h.4886598v.5423728zm-1.1945017 3.3084746v-3.7966101h.4886598v3.7966101zm-2.66048108-1.4101695c0 .3796611.05429553.5966102.21718213.8135594.16288659.1627118.32577319.2711864.59725085.2711864.2714777 0 .4343643-.1084746.5972509-.2711864.1628866-.1627119.2171821-.4338983.2171821-.8135594 0-.3254237-.0542955-.5966101-.2171821-.759322s-.3257732-.2711864-.5972509-.2711864c-.21718213 0-.43436426.1084745-.59725085.2711864-.10859107.1627119-.21718213.4338983-.21718213.759322zm-.4886598 0c0-.4881356.1628866-.8677966.43436426-1.138983.21718213-.2169492.54295533-.3254237.86872852-.3254237.3800687 0 .7058419.1084745.9230241.379661.2171821.2711864.3800687.5966101.3800687 1.0305084 0 .3796611-.0542955.6508475-.1628866.8135594-.1085911.2169491-.2714777.379661-.4886598.4881356-.2171821.1084745-.4343643.1627118-.6515464.1627118-.38006872 0-.70584192-.1084746-.92302405-.379661-.21718213-.2169491-.38006873-.5423729-.38006873-1.0305085zm-2.76907216-.5966101h.97731958c.3257732 0 .54295533-.0542373.70584193-.1627119s.21718213-.2711864.21718213-.4881356c0-.1627119-.05429553-.2711864-.10859107-.4338983-.05429553-.1084746-.16288659-.1627119-.32577319-.2169492-.10859107-.0542372-.27147767-.0542372-.4886598-.0542372h-.97731958zm-.54295533 2.0067796v-3.7966101h1.46597938c.27147766 0 .43436426 0 .59725086.0542372.1628866.0542373.3257732.1084746.48865979.1627119.10859107.1084746.21718213.2169492.3257732.379661.05429553.1627119.10859107.3254238.10859107.5423729 0 .3254237-.10859107.5966102-.3257732.8135593-.21718213.2169492-.59725086.3254238-1.14020619.3254238h-.97731958v1.5728813h-.54295533z"/></g></svg>