<svg height="110" viewBox="0 0 230 110" width="230" xmlns="http://www.w3.org/2000/svg"><g fill="#444"><g transform="translate(35 32.361702)"><path d="m37.5522388 7.14893617-7.1641791 2.8-9.7313433.65531913-13.37313431 10.7234043s-.29850746-1.7872341-.29850746-2.2638298c0-.4170213 0-1.012766.11940298-1.3106383.11940299-.3574468.47761194-1.012766.95522388-1.3106383s2.08955221-2.0255319 2.38805971-3.2170213c.2985075-1.1914893.5970149-3.0382979-.0597015-5.24255318-.65671642-2.20425532-1.13432836-2.91914893-1.73134328-3.81276595-.59701493-.89361703-1.85074627-2.14468086-2.32835821-2.4425532-.41791045-.29787234-.8358209-.47659574-1.13432836-.53617021-.29850746 0-.53731343 0-.53731343 0s-1.07462687 0-1.97014926 1.25106383c-.83582089 1.19148936-2.80597015 4.64680851-2.50746268 7.86382981.23880597 3.2765957 1.31343283 4.6468085 2.50746268 5.5404255s2.56716418 1.0723404 2.74626866 3.2170213c.17910448 2.0851064.65671642 11.4978723.65671642 12.8680851s.11940298 4.1702128-.41791045 8.1617021c0 0-.41791045 3.3957447-.47761194 4.1702128s-.05970149 2.8.59701493 3.3957447c.65671641.6553191.89552238 1.0723404 2.62686567 1.1319149 1.73134325.0595744 2.44776115-.6553192 2.86567165-1.3702128.4179104-.7744681.4776119-2.5021277.1791045-3.5744681-.358209-1.0723404-1.0149254-3.3957447-1.2537314-4.1106383-.23880595-.7148936-1.25373132-4.3489362-1.73134326-7.8638298s-1.25373134-10.1276595-1.25373134-10.1276595l10.1492537-4.9446809-2.1492537 5.0638298s-.238806.5361702-.238806.7148936v.4170213l12.119403.2978723s.1791045-2.0851064.477612-3.4553191c.3582089-1.3702128 1.0746268-3.4553192 1.4925373-3.8723405.4179104-.4170212 9.6716418-6.91063825 9.6716418-6.91063825l.2985074-1.90638298z"/><path d="m15.2238806 24.306383 2.8059701 25.9148936 4.119403-16.0851064 9.1940299 15.8468085-4-25.9744681z"/><ellipse cx="25.731343" cy="4.468085" rx="4.358209" ry="4.348936"/></g><g transform="translate(138.880597 27)"><path d="m38.9253731 6.55319149s-1.4925373-.23829787-2.1492537.41702128c-.6567164.65531914-.7761194 1.13191489-.8358209 2.02553191-.119403.83404255-.3582089 4.28936172-.7761194 7.20851062-.358209 2.9787234-1.4328358 9.293617-1.4328358 9.293617l-11.880597-9.5319149-9.7910448-.7148936s-10.56716419-3.0978723-11.04477613-3.2170212c-.47761194-.119149-.95522388-.0595745-.95522388-.0595745l4.89552239 4.2893617 8.41791042 5.1829787s1.1343284 2.6212766 1.3731344 3.9914894c.2388059 1.3702127.2985074 3.2765957.2985074 3.2765957l12.238806-.3574468s0-.2978723-.119403-.7148936-2.2089552-5.4212766-2.2089552-5.4212766l8.5970149 4.1106383-2.7462687 11.3191489-2.9850746 11.4978724s-.4776119 1.8468085-.5373134 2.5617021c-.0597015.6553191-.0597015 1.5489362.2985075 2.0851064.3582089.5957447 1.1940298.5957447 1.5522388.6553191.3582089.0595745 2.2686567.119149 2.6268656-.1787234.358209-.2978723.477612-.4765957.6567164-1.0127659.119403-.5361702.119403-1.012766.119403-1.1914894 0-.1191489-.7164179-.4170213-.7761194-.893617-.0597015-.4765958-.2388059-.893617 0-2.0851064.238806-1.1914894.358209-1.5489362.5373135-2.1446808.2388059-.5957447 1.0149253-2.6808511 1.1343283-3.1574469.119403-.4765957.477612-2.4425531.5970149-3.5148936.119403-1.0127659.238806-2.0255319.358209-2.7404255.119403-.6553192.1791045-1.2510638.1791045-1.2510638l-.358209-.0595745s.358209-1.6085106.5373135-2.2638298c.1791044-.6553191.3582089-1.4297872.4776119-1.6085106.0597015-.2382979.4776119-1.1319149 1.9701493-.5361702 1.5522388.5957446 5.6716417 2.1446808 5.6716417 2.1446808l2.6865672-10.4851064 2.9253731-12.2127659.7761194-3.99148939z"/><path d="m11.1044776 55.3446809 9.3134328-15.8468086 4.119403 16.1446809 2.8059702-25.9148936-12.1791045-.3574468z"/><path d="m16.8358209 14.7744681c2.2686567 0 4.0597015-1.7276596 4.358209-3.8723404.4179104-.4170213 1.4328358-1.60851068 1.9104477-1.96595749.5373134-.47659574 1.3731343-1.07234042 1.7313433-1.13191489.4179104-.05957447 1.4925373-.53617021 1.5522388-1.78723404 0-1.19148937-.4776119-1.90638298-1.3134328-2.14468085-.8358209-.23829788-1.4328359.05957446-1.4328359.05957446s.597015-1.78723404-.8358209-2.50212766c-1.2537313-.71489361-2.3880597.59574468-2.3880597.59574468s-.4776119-1.78723404-2.0298507-1.6680851-1.9104478.89361702-2.0895522 1.72765957c-.119403.83404256.2985074 1.19148936.2985074 1.66808511 0 .35744681-.3582089 1.72765957-.7164179 2.50212766-.0597015 0-.0597015 0-.119403 0-1.9104477.47659574-3.3432836 2.20425532-3.3432836 4.22978725 0 2.3234042 1.9701493 4.2893617 4.4179105 4.2893617z"/></g><g transform="translate(72.61194 38.914894)"><path d="m8.05970149 0h5.01492541v1.90638298h-1.1940299v5.89787234c0 4.05106378-1.7313433 5.36170208-5.4925373 5.36170208-4.23880597 0-5.19402985-1.9063829-5.19402985-4.70638293v-6.55319149h-1.19402985v-1.90638298h5.01492537v1.90638298h-1.19402985v6.07659574c0 1.90638298.53731344 3.09787238 2.62686567 3.09787238 1.73134329 0 2.92537314-.5957447 2.92537314-3.09787238v-6.07659574h-1.43283582v-1.90638298z"/><path d="m14.2686567 11.0212766h1.1940299v-9.11489362h-1.6716418v-1.90638298h3.761194l5.4328358 6.85106383c.597015.71489362.9552239 1.25106383 1.0746269 1.72765957h.0597015v-6.67234042h-1.1940299v-1.90638298h4.6567165v1.90638298h-1.2537314v11.02127662h-1.9701492l-6.1492538-7.74468088c-.2985074-.41702127-.5970149-.83404255-.5970149-1.01276595h-.0597015v6.85106383h1.2537313v1.906383h-4.5970149v-1.906383z"/><path d="m30.2089552 1.90638298h-1.1940298v-1.90638298h5.0149253v1.90638298h-1.1940298v9.17446812h1.1940298v1.9063829h-5.0149253v-1.9063829h1.1940298z"/><path d="m44.8358209 1.90638298h-2.3283582v9.17446812h1.1940298v1.9063829h-5.0149253v-1.9063829h1.1940298v-9.17446812h-2.3283582l-.119403 1.78723404h-2.2089552l.119403-3.63404255h11.8208955l.119403 3.63404255h-2.2089552z"/><path d="m55.4626866 8.87659574h2.2089552l-.119403 4.05106386h-9.3134328v-1.906383h1.1940298v-9.11489362h-1.3731343v-1.90638298h9.4925373l.119403 3.81276596h-2.2089552l-.119403-1.90638298h-3.1641791v3.39574468h3.2835821v1.96595745h-3.2835821v3.75319149h3.2238806z"/><path d="m60.358209 1.90638298h-1.3731344v-1.90638298h6.0298508c4.3582089 0 6.9253731 2.14468085 6.9253731 6.19574468 0 3.99148932-2.5671642 6.73191492-6.8059701 6.73191492h-6.2089553v-1.906383h1.3731344zm4.2388059 9.11489362c2.2089552 0 4.4179105-1.25106383 4.4179105-4.76595745 0-3.27659575-2.0298508-4.34893617-4.4179105-4.34893617h-1.5522388v9.17446812h1.5522388z"/></g><g transform="translate(72.014925 66.914894)"><path d="m16.5970149.29787234h5.1940299v1.96595745h-1.0746269l-4.4776119 11.43829791h-2.9850747l-2.1492537-6.25531919h-.0597015l-2.32835819 6.25531919h-3.04477612l-4.47761194-11.43829791h-1.07462686v-1.96595745h5.43283582v1.96595745h-1.13432836l2.62686567 7.68510638c.17910448.47659573.29850746 1.07234043.41791045 1.60851063h.05970149c.05970149-.5361702.23880597-1.1319149.41791045-1.60851063l2.02985074-5.7787234-.71641791-1.90638298h-1.25373134v-1.96595745h5.3134328v1.96595745h-1.1940298l2.3880597 7.68510638c.1791045.47659573.2985074 1.07234043.3582089 1.60851063h.0597015c.0597015-.5361702.238806-1.1319149.4179105-1.60851063l2.6268657-7.68510638h-1.3731344z"/><path d="m29.9701493 9.23404255h-4.597015l-.9552239 2.56170215h1.3134329v1.9659574h-5.0149254v-1.9659574h1.0746269l4.7164179-11.43829789h3.1044776l4.4179104 11.43829789h1.0746269v1.9659574h-5.3134328v-1.9659574h1.0746268zm-1.6716418-4.88510638c-.238806-.59574468-.4179105-1.25106383-.477612-1.96595745h-.0597015c-.1791044.71489362-.3582089 1.3106383-.5970149 1.96595745l-1.0149254 2.8h3.1044776z"/><path d="m43.4626866 2.38297872c-.477612-.1787234-1.1343284-.29787234-1.7910448-.29787234-1.8507463 0-2.4477612.95319149-2.4477612 1.72765958 0 .95319149.7164179 1.25106383 1.6119403 1.4893617l1.6119403.41702128c1.9701492.47659574 4.1791045 1.13191489 4.1791045 3.93191489 0 2.56170217-1.7313433 4.40851067-5.5522388 4.40851067-1.4925373 0-2.9850747-.1787234-4.8358209-.7744681v-3.51489363h2.8059701v1.78723403c.7164179.2978723 1.4925373.3574468 2.2686567.3574468 1.6716418 0 2.3880597-.7744681 2.3880597-1.787234 0-.71489364-.3582089-1.19148939-2.2089552-1.66808513l-1.4925373-.35744681c-2.7462687-.71489362-3.7014925-1.78723404-3.7014925-3.87234043 0-2.14468085 1.4925373-3.99148936 5.3134328-3.99148936 1.6119403 0 3.2835821.23829788 4.4179104.71489362v3.21702128h-2.5074626z"/><path d="m57.8507463 2.26382979h-2.4477612v9.47234041h1.1940298v1.9659575h-5.1940298v-1.9659575h1.1940298v-9.47234041h-2.4477612l-.119403 1.84680851h-2.2686567l.119403-3.81276596h12.238806l.119403 3.81276596h-2.3283582z"/><path d="m68.8358209 9.53191489h2.3283582l-.1791045 4.22978721h-9.6716418v-1.9659574h1.1940299v-9.53191491h-1.4328358v-1.96595745h9.8507462l.119403 3.93191489h-2.3283582l-.119403-1.96595744h-3.2835821v3.51489361h3.4029851v2.08510639h-3.4029851v3.93191491h3.3432836z"/></g><g transform="translate(72.014925 53.212766)"><path d="m.47761194 10.6638298h1.01492537l4.0597015-9.94893618h1.43283582l3.70149257 9.94893618h1.0746268v.9531915h-3.70149251v-.9531915h1.13432836l-1.19402985-3.33617023h-3.94029851l-1.31343283 3.33617023h1.31343283v.9531915h-3.58208955zm7.1641791-4.34893618-1.31343283-3.63404256c-.11940299-.3574468-.17910448-.53617021-.23880597-.77446808h-.05970149c-.0597015.1787234-.11940299.41702128-.23880597.77446808l-1.43283582 3.63404256z"/><path d="m21.0746269 11.3787234c-.6567165.2978723-2.0895523.4765957-3.1641791.4765957-3.5820896 0-5.8507463-1.787234-5.8507463-5.54042548 0-3.03829788 1.7910448-5.71914894 5.8507463-5.71914894 1.4328358 0 2.8656716.35744681 3.3432835.59574468v2.44255319h-1.1343283v-1.60851064c-.358209-.1787234-1.2537314-.3574468-2.2686567-.3574468-2.6268657 0-4.2985075 1.54893617-4.2985075 4.52765957 0 2.97872341 1.5522388 4.64680852 4.4776119 4.64680852.4179105 0 1.2537314-.0595745 1.8507463-.2382979v-2.68085104h-1.3731343v-1.01276596h3.761194v1.01276596h-1.1940298z"/><path d="m22.7462687 10.6638298h1.0149253l4.0597015-9.94893618h1.4328358l3.7014926 9.94893618h1.0746268v.9531915h-3.7014925v-.9531915h1.1343284l-1.1940299-3.33617023h-3.9402985l-1.3134328 3.33617023h1.3134328v.9531915h-3.5820895zm7.2238806-4.34893618-1.3134329-3.63404256c-.119403-.3574468-.1791045-.53617021-.238806-.77446808h-.0597014c-.0597015.1787234-.119403.41702128-.238806.77446808l-1.4328358 3.63404256z"/><path d="m36.119403 1.66808511h-1.2537314v-.95319149h3.7611941v.95319149h-1.1940299l-.0597015 8.93617019h1.2537314v.9531915h-3.7611941v-.893617h1.1940299z"/><path d="m41.3134328 1.66808511h-1.4328358v-.95319149h2.6268657l5.9701492 7.98297872c.1791045.23829787.358209.53617021.5373135.83404255h.0597015l.0597015-7.80425532h-1.3731344v-.95319148h3.7014926v.95319148h-1.1940299l-.119403 9.88936173h-1.1343283l-6.2089553-8.22127662c-.1791044-.23829787-.2985074-.47659574-.4179104-.71489362l-.0597015 7.98297874h1.3731343v.9531915h-3.641791v-.9531915h1.1940298z"/><path d="m52.8955224 8.87659574h1.2537313v1.48936166c.477612.2978724 1.4328359.4170213 2.1492538.4170213 1.5522388 0 2.5671641-.7148936 2.5671641-2.02553189 0-2.91914894-6.0298507-1.19148936-6.0298507-5.12340426 0-1.31063829.7761194-3.09787234 4.0597015-3.09787234.7761194 0 2.2686567.17872341 2.9253731.53617022v2.20425531h-1.1940298v-1.37021276c-.4179105-.17872341-1.3134329-.29787234-1.8507463-.29787234-1.1940298 0-2.5074627.47659574-2.5074627 1.90638298 0 2.8 6.0298508 1.07234042 6.0298508 5.06382978 0 2.3829787-2.0895523 3.2765957-4.1791045 3.2765957-1.7910448 0-2.6865672-.4170212-3.2835821-.5361702z"/><path d="m65.6716418 1.66808511h-2.9850746l-.119403 1.6680851h-1.1343284l.119403-2.68085106h9.6119403l.119403 2.68085106h-1.1343284l-.119403-1.6680851h-2.9850746l-.0597015 8.93617019h1.3731344v.9531915h-3.8805971v-.893617h1.1940299z"/></g><g transform="translate(189.029851 34.148936)"><path d="m.71641791 2.38297872h.23880597v-1.84680851h-.53731343v.35744681h-.35820896v-.65531915h2.20895523v.65531915h-.35820896v-.35744681h-.53731343v1.84680851h.29850746v.29787234h-.89552239v-.29787234z"/><path d="m2.50746269 2.38297872h.23880597v-1.84680851h-.29850747v-.29787234h.77611941l.71641791 1.78723404v.11914894.11914894c0-.05957447 0-.05957447 0-.11914894s0-.05957447 0-.11914894l.71641791-1.78723404h.7761194v.29787234h-.29850746v1.84680851h.23880597v.29787234h-.89552239v-.29787234h.23880597v-1.60851063c0 .05957446-.05970149.11914893-.05970149.1787234s0 .11914894-.05970149.1787234l-.59701493 1.60851064h-.35820896l-.59701492-1.54893617c0-.05957447-.05970149-.11914893-.05970149-.1787234s-.0597015-.11914894-.0597015-.17872341v1.60851064h.29850747v.29787234h-.8358209v-.35744681z"/></g></g></svg>