<?xml version="1.0" encoding="UTF-8"?>
<svg width="60px" height="46px" viewBox="0 0 60 46" version="1.1" xmlns="http://www.w3.org/2000/svg" xmlns:xlink="http://www.w3.org/1999/xlink">
    <!-- Generator: Sketch 49.3 (51167) - http://www.bohemiancoding.com/sketch -->
    <title>Group 3 Copy</title>
    <desc>Created with Sketch.</desc>
    <defs></defs>
    <g id="Serviços" stroke="none" stroke-width="1" fill="none" fill-rule="evenodd">
        <g id="Services-1024px" transform="translate(-100.000000, -1487.000000)" fill="#000000">
            <g id="Group-3-Copy" transform="translate(100.000000, 1487.000000)">
                <path d="M0,45.35 L60,45.35 L60,0.35 L0,0.35 L0,45.35 Z M58.605,0.9 L59.453,0.9 L59.453,44.799 L0.288,44.799 L58.605,0.9 Z M0.549,0.9 L57.69,0.9 L0.549,43.914 L0.549,0.9 Z" id="Fill-1"></path>
                <path d="M6.066,11.861 L11.468,11.861 L11.468,6.439 L6.066,6.439 L6.066,11.861 Z M6.613,11.309 L10.919,11.309 L10.919,6.989 L6.613,6.989 L6.613,11.309 Z" id="Fill-2"></path>
                <path d="M6.066,20.994 L11.468,20.994 L11.468,15.573 L6.066,15.573 L6.066,20.994 Z M6.613,20.444 L10.919,20.444 L10.919,16.123 L6.613,16.123 L6.613,20.444 Z" id="Fill-3"></path>
                <polygon id="Fill-4" points="15.1659 25.619 15.1659 26.169 17.9579 26.169 18.6909 25.619"></polygon>
                <path d="M6.066,30.127 L11.468,30.127 L11.468,24.706 L6.066,24.706 L6.066,30.127 Z M6.613,29.577 L10.919,29.577 L10.919,25.256 L6.613,25.256 L6.613,29.577 Z" id="Fill-5"></path>
                <polygon id="Fill-6" points="15.1659 7.3517 15.1659 7.9017 42.2249 7.9017 42.9569 7.3517"></polygon>
                <polygon id="Fill-7" points="15.1659 10.3964 15.1659 10.9464 38.1809 10.9464 38.9129 10.3964"></polygon>
                <polygon id="Fill-8" points="15.1659 16.4849 15.1659 17.0359 30.0919 17.0359 30.8239 16.4849"></polygon>
                <polygon id="Fill-9" points="15.1659 19.5305 15.1659 20.0805 26.0479 20.0805 26.7789 19.5305"></polygon>
                <path d="M43.983,39.261 L53.935,39.261 L53.935,29.272 L43.983,29.272 L43.983,39.261 Z M44.531,38.71 L53.386,38.71 L53.386,29.823 L44.531,29.823 L44.531,38.71 Z" id="Fill-10"></path>
                <path d="M30.333,39.261 L40.285,39.261 L40.285,29.272 L30.333,29.272 L30.333,39.261 Z M30.881,38.71 L39.736,38.71 L39.736,29.823 L30.881,29.823 L30.881,38.71 Z" id="Fill-11"></path>
                <path d="M16.6831,37.8583 L16.6831,39.2603 L26.6351,39.2603 L26.6351,30.3663 L16.6831,37.8583 Z M26.0861,38.7103 L17.2311,38.7103 L17.2311,38.1333 L17.3651,38.0333 L26.0861,31.4683 L26.0861,38.7103 Z" id="Fill-12"></path>
                <polygon id="Fill-13" points="51.2197 11.8603 53.9347 11.8603 53.9347 9.8163"></polygon>
                <path d="M46.2891,15.5722 L43.9831,17.3082 L43.9831,25.5612 L53.9341,25.5612 L53.9341,15.5722 L46.2891,15.5722 Z M53.3861,25.0102 L44.5311,25.0102 L44.5311,17.5832 L46.4711,16.1222 L53.3861,16.1222 L53.3861,25.0102 Z" id="Fill-14"></path>
                <path d="M33.02,25.5604 L40.285,25.5604 L40.285,20.0914 L33.02,25.5604 Z M39.737,25.0094 L34.666,25.0094 L39.737,21.1924 L39.737,25.0094 Z" id="Fill-15"></path>
                <polygon id="Fill-16" points="47.017 32.868 50.9 32.868 50.9 32.318 47.017 32.318"></polygon>
                <polygon id="Fill-17" points="47.017 35.911 50.9 35.911 50.9 35.361 47.017 35.361"></polygon>
                <polygon id="Fill-18" points="33.367 32.868 37.25 32.868 37.25 32.318 33.367 32.318"></polygon>
                <polygon id="Fill-19" points="33.367 35.911 37.25 35.911 37.25 35.361 33.367 35.361"></polygon>
                <polygon id="Fill-20" points="47.017 19.167 50.9 19.167 50.9 18.616 47.017 18.616"></polygon>
                <polygon id="Fill-21" points="47.017 22.211 50.9 22.211 50.9 21.661 47.017 21.661"></polygon>
            </g>
        </g>
    </g>
</svg>