<?xml version="1.0" encoding="UTF-8"?>
<svg width="61px" height="52px" viewBox="0 0 61 52" version="1.1" xmlns="http://www.w3.org/2000/svg" xmlns:xlink="http://www.w3.org/1999/xlink">
    <!-- Generator: Sketch 49.3 (51167) - http://www.bohemiancoding.com/sketch -->
    <title>Group 2 Copy</title>
    <desc>Created with Sketch.</desc>
    <defs></defs>
    <g id="Serviços" stroke="none" stroke-width="1" fill="none" fill-rule="evenodd">
        <g id="Services-1024px" transform="translate(-99.000000, -1236.000000)" fill="#000000">
            <g id="Group-2-Copy" transform="translate(99.000000, 1236.000000)">
                <polygon id="Fill-22" points="42.5293 24.1396 37.7073 19.5686 37.2243 20.0526 41.6783 24.1346 37.2213 28.3116 37.7053 28.7966"></polygon>
                <polygon id="Fill-23" points="18.9053 24.1342 23.3593 20.0522 22.8773 19.5682 18.0543 24.1392 22.8793 28.7962 23.3623 28.3112"></polygon>
                <polygon id="Fill-24" points="34.4434 15.14 25.7094 32.809 26.2814 33.093 35.0144 15.423"></polygon>
                <path d="M0.2922,0.3497 L0.2922,44.6837 L22.3332,44.6837 L22.3332,50.7127 L18.1652,50.7127 L18.1652,51.3497 L42.2332,51.3497 L42.2332,50.7127 L38.0662,50.7127 L38.0662,44.6837 L60.2912,44.6837 L60.2912,0.3497 L0.2922,0.3497 Z M1.0232,7.1067 L59.6542,7.1067 L59.6542,0.9867 L1.0232,0.9867 L1.0232,7.1067 Z M1.0232,39.6967 L59.6542,39.6967 L59.6542,7.6527 L1.0232,7.6527 L1.0232,39.6967 Z M1.0232,44.0457 L59.6542,44.0457 L59.6542,40.3327 L1.0232,40.3327 L1.0232,44.0457 Z M23.0622,50.6197 L37.5202,50.6197 L37.5202,44.5917 L23.0622,44.5917 L23.0622,50.6197 Z" id="Fill-25"></path>
                <polygon id="Fill-26" points="47.615 4.506 48.253 4.506 48.253 3.868 47.615 3.868"></polygon>
                <polygon id="Fill-27" points="54.652 4.506 55.291 4.506 55.291 3.868 54.652 3.868"></polygon>
                <polygon id="Fill-28" points="51.133 4.506 51.772 4.506 51.772 3.868 51.133 3.868"></polygon>
                <polygon id="Fill-29" points="5.848 4.506 42.233 4.506 42.233 3.868 5.848 3.868"></polygon>
                <polygon id="Fill-30" points="15.6548 11.1815 5.1998 11.1815 5.1998 19.0405 5.8388 19.0405 5.8388 11.8195 15.6548 11.8195"></polygon>
                <polygon id="Fill-31" points="5.2002 28.1229 5.2002 35.9819 15.6552 35.9819 15.6552 35.3439 5.8392 35.3439 5.8392 28.1229"></polygon>
                <polygon id="Fill-32" points="54.7456 28.1229 54.7456 35.3439 44.9296 35.3439 44.9296 35.9819 55.3836 35.9819 55.3836 28.1229"></polygon>
                <polygon id="Fill-33" points="55.3838 19.0404 55.3838 11.1814 44.9288 11.1814 44.9288 11.8194 54.7458 11.8194 54.7458 19.0404"></polygon>
            </g>
        </g>
    </g>
</svg>