<svg xmlns="http://www.w3.org/2000/svg" viewBox="0 0 528.7 284.7"><path d="M35.3 281.6h38.1l33.4-89.1h-36l-16.5 54.9-16.7-54.9h-36l33.7 89.1zm121.6-27.9c-8.6 0-15.3-6.8-15.3-16.7s6.7-16.7 15.3-16.7 15.3 6.8 15.3 16.7-6.7 16.7-15.3 16.7zm-8.8 29.7c10.1 0 18.3-3.8 24.1-10.8v9h34.2v-89.1h-34.2v9c-5.8-7-14-10.8-24.1-10.8-23.4 0-40.3 19.8-40.3 46.3s16.9 46.4 40.3 46.4zm69.5-1.7h34.2v-36.4c0-11 10.3-21.7 22.2-21.7 6.6 0 10.8 4 10.8 10.7v47.4H319v-46.6c0-27.2-16.9-42.3-39.8-42.3-10.8 0-21.9 4.9-27.4 11.2v-11.4h-34.2v89.1zm159.5 2.4c16 0 30.2-7.7 39-19.6l-25.2-19.1c-2.5 5.4-8.3 7.9-14 7.9-7.9 0-14.9-6.8-14.9-16.2 0-9.7 7.2-16.7 15.1-16.7 5.8 0 10.8 3.1 13.7 8.1l25.5-19.3c-8.8-12.1-23.2-20-39.2-20-26.4 0-48.2 21.4-48.2 47.7.1 26.2 21.8 47.2 48.2 47.2zm97.3-30.4c-8.6 0-15.3-6.8-15.3-16.7s6.7-16.7 15.3-16.7 15.3 6.8 15.3 16.7-6.6 16.7-15.3 16.7zm-7.8 29.7c10.1 0 24.3-5.8 30.1-12.8v11h31.2v-89.1h-31.2v11c-5.8-7-20-12.8-30.1-12.8-23.4 0-42.3 19.8-42.3 46.3s19 46.4 42.3 46.4zM49.9 108.7c-8.6 0-15.3-6.8-15.3-16.7s6.7-16.7 15.3-16.7S65.2 82.1 65.2 92s-6.6 16.7-15.3 16.7zm-8.8 29.7c10.1 0 18.3-3.8 24.1-10.8v9h34.2V47.5H65.2v9c-5.8-7-14-10.8-24.1-10.8C17.7 45.7.8 65.5.8 92s17 46.4 40.3 46.4zm115.8-29.7c-8.6 0-15.3-6.8-15.3-16.7s6.7-16.7 15.3-16.7 15.3 6.8 15.3 16.7-6.7 16.7-15.3 16.7zm-8.8 29.7c10.1 0 19.2-4.1 24.1-11.3v9.5h34.2V1.7h-34.2V57c-4.9-6.7-14-11.2-24.1-11.2-23.4 0-40.3 19.8-40.3 46.3s16.9 46.3 40.3 46.3zm69.5-1.7h34.2v-34.6c0-16.4 12.9-23.7 22.4-23.7V47.9c-7.9 1.7-17.3 4.3-22.4 10.4V47.7h-34.2v89zm67.3-.1h33.4V47.5h-33.4v89.1zm16.7-99.3c10.1 0 18.5-8.3 18.5-18.7 0-9.7-8.4-18-18.5-18-10.2 0-18.7 8.3-18.7 18 0 10.4 8.5 18.7 18.7 18.7zm73.8 33.3c6.7 0 11.1 2.9 13.5 9.5h-28.4c2.9-6.3 8.1-9.5 14.9-9.5zm44.2 31.1c.4-3.1.4-5.9.4-8.6 0-31.9-18.5-48.8-44.8-48.8-27.3 0-47.5 20.5-47.5 47.9 0 26.1 20.1 47 47.6 47 13.7 0 29.3-6.3 37.8-18.2l-20.5-17.3c-3.8 4.7-10.6 7.7-17.4 7.7-6.3 0-12.6-2.3-15.5-9.7h59.9zm9.9 37.1h33.2v-36.4c0-11 10.3-21.7 22.2-21.7 6.6 0 10.8 4 10.8 10.7v47.4h32.2V92.2c0-27.2-15.9-42.3-38.8-42.3-10.8 0-20.9 4.9-26.4 11.2V49.7h-33.2v89.1z"/></svg>