<svg xmlns="http://www.w3.org/2000/svg" viewBox="0 0 33 49"><g opacity=".3" stroke="#fff"><g stroke-linecap="square"><path d="M4 23v23.2" fill="none"/><path d="M4 48l3-10.8H1L4 48z" fill="#fff"/></g><path d="M30.2 16.2c-1 1.8-2.4 3.3-4 4.6-.7.5-1.5 1-2.3 1.3-1 .4-2 .6-3.1.7h-.1l-7-.3h-.1c-.6-.1-1.2-.5-1.5-1-.8-.9-.6-2.3.3-3.1.5-.5 1.1-.8 1.8-.8l2.5-.2c.1 0 .2-.1.3-.2 0-.1 0-.3-.1-.3l-.6-.4c-3.5-2-7-4-10.5-6.1-1.2-.7-1.6-2.3-.9-3.6s2.3-1.7 3.6-1L14.1 9c.2-1.3 1-3 2.2-4.6C17.9 2.3 20.6.7 22.6.6h0c.8 0 2 .6 2.9 1.2.1.1.2.1.2.1l3.2 1.9.9.6c.3.2.6.4.9.7.4.4.7.8.9 1.3.7 1.3.7 2.9.7 3.3-.1 2.6-1.3 5.2-2.1 6.5h0z" fill="none"/></g></svg>