<svg xmlns="http://www.w3.org/2000/svg" viewBox="0 0 28 101"><g opacity=".289"><g stroke="#fff" stroke-linecap="square"><path d="M14 67.5v32.2" fill="none"/><path d="M14 99.7l3-10.8h-6l3 10.8z" fill="#fff"/></g><path d="M1.5 12.6c0-1.9.6-11.1 12.5-11.1s12.5 9.3 12.5 11.1v20.8c0 1.8-.5 10.7-11.8 11.1v-5.3c1.5-.3 2.6-1.7 2.6-3.3v-4c0-1.6-1.1-2.9-2.6-3.3v-6.1c0-.4-.3-.7-.7-.7-.4 0-.7.3-.7.7v6.1c-1.5.3-2.6 1.7-2.6 3.3v4c0 1.6 1.1 2.9 2.6 3.3v5.3C2.1 44.1 1.5 35.2 1.5 33.4V12.6zM14 30c1 0 1.9.8 1.9 1.9v4c0 1-.8 1.9-1.9 1.9-1 0-1.9-.8-1.9-1.9v-4c.1-1.1.9-1.9 1.9-1.9zM2.9 41.6C5.3 44.5 9.1 46 14 46c4.9 0 8.7-1.5 11.2-4.4 2.4-3 2.8-6.4 2.8-8.2V12.6c0-1.8-.4-5.2-2.8-8.2C22.7 1.5 18.9 0 14 0 9.1 0 5.3 1.5 2.9 4.4.4 7.3.1 10.8.1 12.6v20.8c-.1 1.8.3 5.2 2.8 8.2z" fill="#fff"/></g></svg>