<svg width="93" height="254" xmlns="http://www.w3.org/2000/svg" xmlns:xlink="http://www.w3.org/1999/xlink"><defs><path id="a" d="M0 .574h44.047V33H0z"/></defs><g fill="none" fill-rule="evenodd"><path d="M39.837 108.213c-2.198 0-4.097-1.897-4.097-4.154 0-2.258 1.9-4.16 4.097-4.16 2.258 0 4.217 1.901 4.217 4.16 0 2.257-1.959 4.154-4.217 4.154" fill="#1D1C1A"/><g transform="translate(0 221.158)"><mask id="b" fill="#fff"><use xlink:href="#a"/></mask><path d="M38.12 16.781c0 5.668-4.612 10.28-10.279 10.28-5.668 0-10.28-4.612-10.28-10.28 0-5.668 4.612-10.279 10.28-10.279 5.667 0 10.278 4.611 10.278 10.28m-26.485 0a16.13 16.13 0 0 0 3.084 9.505H0V33h28.348l-.042-.024c8.735-.247 15.741-7.4 15.741-16.195 0-8.95-7.256-16.207-16.206-16.207S11.634 7.83 11.634 16.781" fill="#1D1C1A" mask="url(#b)"/></g><path d="M43.292 212.592H12.405v-6.715h4.477c-2.942-2.366-5.244-6.075-5.244-10.04h6.65c-.127.576-.19 1.216-.19 2.047 0 2.878 1.918 6.65 4.155 7.993h21.04v6.715zm-30.887-26.269h30.887v-6.714H12.405v6.714zm-7.929.768a4.148 4.148 0 0 1-4.156-4.156 4.148 4.148 0 0 1 4.156-4.157 4.149 4.149 0 0 1 4.157 4.157 4.149 4.149 0 0 1-4.157 4.156zm12.662-31.161c0 5.691 4.412 8.377 8.12 8.633V147.17c-3.643.192-8.12 2.686-8.12 8.761m10.679 15.603c-8.952 0-16.18-6.523-16.18-15.666 0-9.274 7.035-15.157 16.756-15.157h1.662v23.79c4.604-.512 8.505-3.966 8.505-9.785 0-3.07-1.215-6.587-3.452-8.825l4.412-3.069c2.94 3.133 4.54 7.673 4.54 12.533 0 9.337-6.458 16.18-16.243 16.18m15.475-41.67H18.225v5.116h-5.82v-5.116H10.68c-6.715 0-10.679-3.901-10.679-9.72 0-2.813.703-5.564 2.685-7.418l4.157 2.622c-.832.896-1.343 2.046-1.343 3.517 0 2.686 1.727 4.285 5.18 4.285h1.726v-6.267h5.82v6.267h25.067v6.714z" fill="#1D1C1A"/><path d="M76.799 254.158c-8.95 0-16.061-5.84-16.061-14.854 0-5.332 2.095-8.38 5.206-10.855l2.031 2.285c-3.047 2.222-4.253 5.015-4.253 8.38 0 7.172 5.713 11.552 13.077 11.552 7.363 0 13.14-4.38 13.14-11.552 0-3.365-1.27-6.158-4.317-8.38l2.031-2.285c3.174 2.476 5.269 5.523 5.269 10.855 0 9.014-7.173 14.854-16.123 14.854m15.361-34.785H61.5v-3.301h5.27c-3.429-2.602-5.905-6.094-5.905-10.346h3.618c-.126.57-.126 1.015-.126 1.65 0 3.11 2.792 7.299 5.46 8.696H92.16v3.3zm-28.564-34.785c0 7.237 6.347 10.855 11.679 11.108v-22.28c-5.204.063-11.68 3.492-11.68 11.172M76.8 199.25c-8.888 0-16.06-6.22-16.06-14.727 0-9.332 7.363-14.472 16.25-14.472h.889v25.644c6.665-.316 12.188-4.76 12.188-11.996 0-3.873-1.46-7.427-4.253-10.03l2.158-1.714c3.175 3.047 4.95 6.919 4.95 11.996 0 8.952-6.664 15.3-16.122 15.3m9.33-58.906h-6.729c-2.856 2.159-4.252 5.586-4.252 9.268 0 5.015 3.237 8.379 7.617 8.379 4.316 0 7.553-3.364 7.553-8.38 0-3.681-1.395-7.108-4.189-9.267zm6.03 0h-3.618c2.984 2.73 4.38 6.158 4.38 10.41 0 5.269-3.618 10.729-10.22 10.729-6.665 0-10.157-5.396-10.157-10.728 0-4.253 1.397-7.744 4.38-10.411h-6.22c-4.57 0-7.047 3.682-7.047 8.189 0 3.872 1.333 6.856 4.508 9.649l-2.286 1.84c-3.428-3.173-5.142-6.728-5.142-11.806 0-6.222 2.984-11.173 9.84-11.173H92.16v3.3zm-5.903-15.933H64.42v5.08H61.5v-5.08h-8.379v-3.364H61.5v-6.22h2.92v6.22h21.329c2.476 0 4.19-1.016 4.19-3.174 0-1.46-.699-2.73-1.46-3.428l2.539-1.269c1.142 1.206 1.904 2.666 1.904 5.205 0 4.062-2.476 6.03-6.665 6.03m5.903-42.083L61.5 95.278v-3.681l26.788-11.172L61.5 69.379v-3.745l30.66 12.95zM63.596 45.385c0 7.237 6.347 10.855 11.679 11.109V34.213c-5.204.063-11.68 3.49-11.68 11.172M76.8 60.049c-8.888 0-16.06-6.222-16.06-14.727 0-9.332 7.363-14.473 16.25-14.473h.889v25.645c6.665-.317 12.188-4.761 12.188-11.998 0-3.872-1.46-7.426-4.253-10.03l2.158-1.713c3.175 3.047 4.95 6.919 4.95 11.997 0 8.95-6.664 15.299-16.122 15.299m11.234-36.753l-2.412-1.967c2.475-1.968 4.507-5.587 4.507-9.903 0-5.142-2.666-8.189-6.22-8.189-8.38 0-3.619 19.361-14.665 19.361-4.696 0-8.506-3.999-8.506-10.918 0-5.269 2.031-8.76 4.508-10.982l2.348 1.841c-2.413 1.777-4.063 5.078-4.063 9.141 0 4.761 2.412 7.617 5.587 7.617C76.8 19.297 72.101 0 83.908 0c4.951 0 9.014 3.809 9.014 11.489 0 4.952-1.46 8.761-4.888 11.807m-26.579 82.583H92.16v-3.302H61.455z" fill="#C6C5C4"/></g></svg>