<svg width="103" height="38" xmlns="http://www.w3.org/2000/svg"><g fill="none" fill-rule="evenodd"><path d="M.337 31.33c0-3.629 2.348-6.512 5.97-6.512 2.144 0 3.368.85 4.363 2.11l-.918.824c-.893-1.235-2.016-1.724-3.368-1.724-2.883 0-4.643 2.316-4.643 5.302 0 2.986 1.76 5.329 4.643 5.329 1.352 0 2.475-.515 3.368-1.751l.918.824c-.995 1.287-2.22 2.137-4.363 2.137-3.622 0-5.97-2.91-5.97-6.539M14 37.508V25.075h1.327v2.137c1.046-1.39 2.45-2.394 4.158-2.394v1.467c-.23-.051-.408-.051-.663-.051-1.25 0-2.934 1.132-3.495 2.213v9.061H14zm13.93-11.532c-2.908 0-4.362 2.574-4.464 4.737h8.955c-.026-2.111-1.404-4.737-4.49-4.737m-5.894 5.355c0-3.604 2.5-6.513 5.92-6.513 3.75 0 5.816 2.986 5.816 6.59v.36H23.466c.127 2.703 1.913 4.942 4.822 4.942 1.556 0 2.985-.592 4.031-1.724l.689.875c-1.225 1.287-2.781 2.008-4.822 2.008-3.597 0-6.149-2.703-6.149-6.538m23.766 3.783v-2.728c-.867-1.159-2.245-1.725-3.724-1.725-2.016 0-3.368 1.313-3.368 3.089 0 1.75 1.352 3.063 3.368 3.063 1.48 0 2.857-.566 3.724-1.699zm0 2.446v-1.467c-1.097 1.209-2.474 1.776-4.184 1.776-2.117 0-4.311-1.468-4.311-4.145 0-2.703 2.168-4.118 4.311-4.118 1.71 0 3.113.566 4.184 1.776v-2.523c0-1.853-1.48-2.857-3.29-2.857-1.557 0-2.756.54-3.879 1.827l-.74-.926c1.276-1.39 2.705-2.085 4.746-2.085 2.5 0 4.49 1.21 4.49 3.99v8.752h-1.327zm6.405-2.52v-8.855h-2.041v-1.184h2.041v-3.398h1.352v3.398h2.5v1.184h-2.5v8.65c0 1.003.408 1.698 1.276 1.698.586 0 1.097-.283 1.377-.592l.51 1.03c-.484.463-1.07.772-2.091.772-1.633 0-2.424-1.004-2.424-2.703m7.603 2.21h1.327V24.819H59.81zm9.223 0L63.83 24.819h1.48L69.8 35.68l4.439-10.863h1.505L70.54 37.25zM84.19 25.976c-2.909 0-4.363 2.574-4.465 4.737h8.955c-.026-2.111-1.404-4.737-4.49-4.737m-5.894 5.355c0-3.604 2.5-6.513 5.92-6.513 3.75 0 5.816 2.986 5.816 6.59v.36H79.725c.127 2.703 1.913 4.942 4.822 4.942 1.556 0 2.985-.592 4.031-1.724l.689.875c-1.225 1.287-2.781 2.008-4.822 2.008-3.597 0-6.149-2.703-6.149-6.538m14.467 4.556l.79-.979c.792 1.004 2.246 1.828 3.98 1.828 2.067 0 3.292-1.081 3.292-2.522 0-3.398-7.782-1.468-7.782-5.947 0-1.904 1.608-3.45 4.389-3.45 2.117 0 3.52.825 4.413 1.829l-.74.952c-.714-.978-2.04-1.647-3.673-1.647-1.914 0-3.062.978-3.062 2.265 0 3.115 7.756 1.21 7.756 5.998 0 2.007-1.53 3.655-4.618 3.655-1.99 0-3.52-.592-4.745-1.982" fill="#BBBDBF"/><path d="M59.008 15.445c0-.885.757-1.649 1.657-1.649s1.66.764 1.66 1.65c0 .908-.76 1.697-1.66 1.697-.9 0-1.657-.789-1.657-1.698m-52.2-.095c-2.261 0-4.1-1.857-4.1-4.139 0-2.281 1.839-4.137 4.1-4.137 2.261 0 4.101 1.856 4.101 4.137 0 2.282-1.84 4.138-4.1 4.138m0-10.661a6.398 6.398 0 0 0-3.793 1.241V.133H.337v11.283l.01-.017c.099 3.516 2.953 6.336 6.461 6.336 3.57 0 6.466-2.92 6.466-6.524 0-3.602-2.895-6.523-6.466-6.523m10.407 12.206V4.46h2.679v1.801c.944-1.183 2.424-2.11 4.005-2.11v2.677a3.672 3.672 0 0 0-.816-.078c-1.148 0-2.654.773-3.19 1.674v8.469h-2.678zm10.755.537h2.678V4.998H27.97v12.433zm-.307-15.624c0-.927.74-1.674 1.658-1.674.919 0 1.659.747 1.659 1.674 0 .926-.74 1.673-1.659 1.673a1.662 1.662 0 0 1-1.658-1.673zm11.851 4.559c-2.27 0-3.342 1.776-3.444 3.269h6.94c-.077-1.468-1.072-3.27-3.496-3.27m-6.225 4.3c0-3.604 2.603-6.513 6.25-6.513 3.7 0 6.047 2.831 6.047 6.744v.67h-9.49c.204 1.852 1.581 3.423 3.903 3.423 1.224 0 2.628-.49 3.52-1.39l1.225 1.776c-1.25 1.184-3.061 1.827-5 1.827-3.725 0-6.455-2.6-6.455-6.538M50.6 17.56V7.47h-2.04V5.126h2.04v-.695c0-2.703 1.557-4.299 3.878-4.299 1.123 0 2.22.283 2.96 1.081l-1.046 1.673a1.98 1.98 0 0 0-1.403-.54c-1.072 0-1.71.695-1.71 2.085v.695h2.5v2.342h-2.5v10.09h-2.678z" fill="#FFF"/></g></svg>