<svg width="241" height="367" xmlns="http://www.w3.org/2000/svg"><path d="M120.5 335.097c-49.069 0-88.99-40.28-88.99-89.789 0-49.511 39.921-89.79 88.99-89.79 49.07 0 88.993 40.279 88.993 89.79 0 49.51-39.922 89.79-88.992 89.79zM31.587 163.262V32.079h82.345v.01c.11-.003.218-.008.329-.01h.035c25.126 0 45.57 20.624 45.57 45.978 0 23.663-17.811 43.203-40.617 45.704-34.702.357-65.892 15.497-87.662 39.5zM0 245.308c0 67.148 53.95 121.58 120.5 121.58 66.552 0 120.5-54.432 120.5-121.58 0-49.943-29.857-92.835-72.537-111.543 14.308-14.164 23.193-33.886 23.193-55.708C191.656 34.947 157.02 0 114.295 0H0v245.308z" fill="#FFF" fill-rule="evenodd"/></svg>