<?xml version="1.0" encoding="UTF-8"?>
<svg width="62px" height="46px" viewBox="0 0 62 46" version="1.1" xmlns="http://www.w3.org/2000/svg" xmlns:xlink="http://www.w3.org/1999/xlink">
    <!-- Generator: Sketch 49.3 (51167) - http://www.bohemiancoding.com/sketch -->
    <title>Group Copy</title>
    <desc>Created with Sketch.</desc>
    <defs></defs>
    <g id="Serviços" stroke="none" stroke-width="1" fill="none" fill-rule="evenodd">
        <g id="Services-1024px" transform="translate(-99.000000, -1799.000000)">
            <g id="Group-Copy" transform="translate(100.000000, 1799.000000)">
                <polygon id="Stroke-34" stroke="#000000" stroke-width="0.7" points="0 45.35 60 45.35 60 0.35 0 0.35"></polygon>
                <polyline id="Fill-36" fill="#FFFFFF" points="12.8779 33.3266 17.2959 27.8036 21.7149 31.1176 29.4479 20.0706 40.4939 24.4896 47.1219 11.2336"></polyline>
                <polyline id="Stroke-37" stroke="#000000" stroke-width="0.7" points="12.8779 33.3266 17.2959 27.8036 21.7149 31.1176 29.4479 20.0706 40.4939 24.4896 46.2239 13.0316"></polyline>
                <polygon id="Fill-38" fill="#000000" points="47.2896 14.0209 47.1226 11.2339 44.7916 12.7719"></polygon>
                <polyline id="Stroke-39" stroke="#000000" stroke-width="0.7" points="6.25 7.35 6.25 36.85 53.75 36.85"></polyline>
                <g id="Group-58" transform="translate(15.000000, 6.350000)">
                    <path d="M4.5059,21.4536 C4.5059,22.6736 3.5169,23.6626 2.2969,23.6626 C1.0759,23.6626 0.0879,22.6736 0.0879,21.4536 C0.0879,20.2336 1.0759,19.2446 2.2969,19.2446 C3.5169,19.2446 4.5059,20.2336 4.5059,21.4536" id="Fill-40" fill="#FFFFFF"></path>
                    <path d="M4.5059,21.4536 C4.5059,22.6736 3.5169,23.6626 2.2969,23.6626 C1.0759,23.6626 0.0879,22.6736 0.0879,21.4536 C0.0879,20.2336 1.0759,19.2446 2.2969,19.2446 C3.5169,19.2446 4.5059,20.2336 4.5059,21.4536 Z" id="Stroke-42" stroke="#000000" stroke-width="0.7"></path>
                    <path d="M16.6567,13.7207 C16.6567,14.9407 15.6677,15.9297 14.4477,15.9297 C13.2277,15.9297 12.2387,14.9407 12.2387,13.7207 C12.2387,12.5007 13.2277,11.5117 14.4477,11.5117 C15.6677,11.5117 16.6567,12.5007 16.6567,13.7207" id="Fill-44" fill="#FFFFFF"></path>
                    <path d="M16.6567,13.7207 C16.6567,14.9407 15.6677,15.9297 14.4477,15.9297 C13.2277,15.9297 12.2387,14.9407 12.2387,13.7207 C12.2387,12.5007 13.2277,11.5117 14.4477,11.5117 C15.6677,11.5117 16.6567,12.5007 16.6567,13.7207 Z" id="Stroke-46" stroke="#000000" stroke-width="0.7"></path>
                    <path d="M27.7036,18.1396 C27.7036,19.3596 26.7146,20.3486 25.4946,20.3486 C24.2736,20.3486 23.2846,19.3596 23.2846,18.1396 C23.2846,16.9196 24.2736,15.9306 25.4946,15.9306 C26.7146,15.9306 27.7036,16.9196 27.7036,18.1396" id="Fill-48" fill="#FFFFFF"></path>
                    <path d="M27.7036,18.1396 C27.7036,19.3596 26.7146,20.3486 25.4946,20.3486 C24.2736,20.3486 23.2846,19.3596 23.2846,18.1396 C23.2846,16.9196 24.2736,15.9306 25.4946,15.9306 C26.7146,15.9306 27.7036,16.9196 27.7036,18.1396 Z" id="Stroke-50" stroke="#000000" stroke-width="0.7"></path>
                    <path d="M9.292,34.5 L21.292,34.5" id="Stroke-52" stroke="#000000" stroke-width="0.7"></path>
                    <path d="M28.292,2.5 L34.292,2.5" id="Stroke-54" stroke="#000000" stroke-width="0.7"></path>
                    <path d="M28.292,0.5 L40.292,0.5" id="Stroke-56" stroke="#000000" stroke-width="0.7"></path>
                </g>
            </g>
        </g>
    </g>
</svg>