<svg width="27" height="27" xmlns="http://www.w3.org/2000/svg"><path d="M22.377 17.596a4.564 4.564 0 0 0-3.347 1.467L9.189 14.16c.034-.23.057-.463.057-.703 0-.234-.022-.461-.054-.686l9.826-4.846a4.568 4.568 0 0 0 3.359 1.478C24.93 9.404 27 7.299 27 4.702S24.93 0 22.377 0c-2.555 0-4.624 2.105-4.624 4.702 0 .234.023.46.055.685l-9.825 4.847a4.57 4.57 0 0 0-3.36-1.478C2.07 8.756 0 10.861 0 13.458c0 2.598 2.07 4.702 4.623 4.702a4.569 4.569 0 0 0 3.347-1.465l9.84 4.9c-.034.23-.057.463-.057.703 0 2.598 2.07 4.702 4.623 4.702C24.93 27 27 24.896 27 22.298c.001-2.597-2.068-4.702-4.622-4.702" fill="#202020" fill-rule="evenodd"/></svg>